<svg xmlns="http://www.w3.org/2000/svg" viewBox="0 0 171 242"><defs><style>.cls-1{fill:#d8d8d8;fill-opacity:0.5;}.cls-2{isolation:isolate;}.cls-3{fill:#454f5b;}</style></defs><g id="Layer_12" data-name="Layer 12"><g id="Layer_2" data-name="Layer 2"><g id="Layer_1-2" data-name="Layer 1-2"><path class="cls-1" d="M20,0H151a20.06,20.06,0,0,1,20,20V151a20.06,20.06,0,0,1-20,20H20A20.06,20.06,0,0,1,0,151V20A20.06,20.06,0,0,1,20,0Z"/><g class="cls-2"><g class="cls-2"><path class="cls-3" d="M65.3,211.85c0,2.18-1.73,3.44-5,3.44H53.74v-12.6H59.9c3.15,0,4.77,1.31,4.77,3.27A3,3,0,0,1,63,208.74,3.11,3.11,0,0,1,65.3,211.85Zm-8.66-7v3h2.9c1.42,0,2.2-.5,2.2-1.49s-.78-1.48-2.2-1.48Zm5.73,6.66c0-1.06-.81-1.56-2.32-1.56H56.64v3.11h3.41C61.56,213.09,62.37,212.62,62.37,211.54Z"/><path class="cls-3" d="M75.89,209.76v5.53H73.26v-1.21a3.17,3.17,0,0,1-3,1.35c-2.26,0-3.61-1.26-3.61-2.93s1.2-2.9,4.16-2.9h2.23c0-1.21-.72-1.91-2.23-1.91a4.68,4.68,0,0,0-2.8.9l-1-2a7.41,7.41,0,0,1,4.17-1.17C74.18,205.46,75.89,206.83,75.89,209.76Zm-2.81,2.47v-1H71.15c-1.31,0-1.73.48-1.73,1.13s.6,1.17,1.59,1.17A2.08,2.08,0,0,0,73.08,212.23Z"/></g><g class="cls-2"><path class="cls-3" d="M82.59,211.49l-1.35,1.33v2.47H78.43V201.93h2.81v7.56l4.1-3.89h3.35l-4,4.11,4.39,5.58h-3.4Z"/></g><g class="cls-2"><path class="cls-3" d="M99.32,211.24H92a2.58,2.58,0,0,0,2.78,1.94,3.29,3.29,0,0,0,2.43-.93l1.49,1.62a5.09,5.09,0,0,1-4,1.56c-3.35,0-5.52-2.1-5.52-5a4.93,4.93,0,0,1,5.16-5,4.8,4.8,0,0,1,5,5C99.38,210.7,99.34,211,99.32,211.24ZM92,209.6h4.77a2.31,2.31,0,0,0-2.38-2A2.29,2.29,0,0,0,92,209.6Z"/></g><g class="cls-2"><path class="cls-3" d="M107.26,205.46v2.59c-.23,0-.41,0-.63,0a2.37,2.37,0,0,0-2.57,2.7v4.57h-2.81V205.6h2.68v1.28A3.92,3.92,0,0,1,107.26,205.46Z"/></g><g class="cls-2"><path class="cls-3" d="M118.89,205.6l-4.37,10.28c-.94,2.34-2.27,3.05-4,3.05a4.29,4.29,0,0,1-2.7-.89l1-2a2.51,2.51,0,0,0,1.58.61c.77,0,1.21-.34,1.59-1.21l0-.09-4.19-9.76h2.89l2.72,6.57,2.74-6.57Z"/></g></g><path class="cls-3" d="M69.4,91.5A1.5,1.5,0,0,1,67.9,90V52.52c-3.7-.9-6.5-5.05-6.5-10v-.1c0-5.62,3.59-10.2,8-10.2h52c4.47,0,8.1,4.58,8.1,10.2v.1c0,5-2.8,9.12-6.5,10V87.9a1.5,1.5,0,0,1-3,0V51.2a1.5,1.5,0,0,1,1.5-1.5c2.71,0,5-3.3,5-7.2v-.1c0-3.9-2.34-7.2-5.1-7.2h-52c-2.76,0-5,3.23-5,7.2v.1c0,4,2.24,7.2,5,7.2a1.5,1.5,0,0,1,1.5,1.5V90A1.5,1.5,0,0,1,69.4,91.5Z"/><path class="cls-3" d="M23,54.2c-4.49,0-8-4.79-8-10.9s3.51-11,8-11H75a1.5,1.5,0,0,1,0,3H23c-2.71,0-5,3.62-5,7.9s2.29,8,5,8a1.5,1.5,0,0,1,0,3Z"/><path class="cls-3" d="M40.9,116.7H29.1c-4.08,0-7.4-4.22-7.4-9.4V52.7a1.5,1.5,0,0,1,1.5-1.5H55.4a1.5,1.5,0,0,1,0,3H24.7v53.1c0,3.47,2,6.4,4.4,6.4H40.9a1.5,1.5,0,0,1,0,3Z"/><path class="cls-3" d="M97.7,138.8c-30.72,0-58.3-1.58-58.3-20.6,0-18.09,26.15-32.8,58.3-32.8S156,100.11,156,118.2C156,137.22,128.42,138.8,97.7,138.8Zm0-50.4c-30.49,0-55.3,13.37-55.3,29.8,0,16.25,26.16,17.6,55.3,17.6s55.3-1.35,55.3-17.6C153,101.77,128.19,88.4,97.7,88.4Z"/><path class="cls-3" d="M74.1,110.6a1.5,1.5,0,0,1-1.2-2.4L88.9,87a1.5,1.5,0,1,1,2.4,1.8L75.3,110A1.52,1.52,0,0,1,74.1,110.6Z"/><path class="cls-3" d="M90.5,110.7a1.47,1.47,0,0,1-.91-.31,1.49,1.49,0,0,1-.28-2.1l2.9-3.8a1.5,1.5,0,1,1,2.38,1.82l-2.9,3.8A1.48,1.48,0,0,1,90.5,110.7Z"/><path class="cls-3" d="M97.4,101.6a1.53,1.53,0,0,1-.91-.3,1.51,1.51,0,0,1-.29-2.11l9.7-12.8a1.51,1.51,0,1,1,2.4,1.82L98.59,101A1.48,1.48,0,0,1,97.4,101.6Z"/><path class="cls-3" d="M107.5,110.6a1.5,1.5,0,0,1-1.22-2.38l13.8-19.1a1.5,1.5,0,0,1,2.44,1.76L108.72,110A1.53,1.53,0,0,1,107.5,110.6Z"/></g></g></g></svg>