<svg xmlns="http://www.w3.org/2000/svg" viewBox="0 0 171 242"><defs><style>.cls-1{fill:#d8d8d8;fill-opacity:0.5;}.cls-2{isolation:isolate;}.cls-3,.cls-4{fill:#454f5b;}.cls-4{fill-rule:evenodd;}</style></defs><g id="Layer_23" data-name="Layer 23"><path class="cls-1" d="M20,0H151a20.06,20.06,0,0,1,20,20V151a20.06,20.06,0,0,1-20,20H20A20.06,20.06,0,0,1,0,151V20A20.06,20.06,0,0,1,20,0Z"/><g class="cls-2"><g class="cls-2"><path class="cls-3" d="M46.61,189.85c0,2.18-1.72,3.44-5,3.44H35.05v-12.6h6.16C44.36,180.69,46,182,46,184a3,3,0,0,1-1.67,2.78A3.11,3.11,0,0,1,46.61,189.85Zm-8.66-7v3h2.9c1.42,0,2.2-.5,2.2-1.49s-.78-1.48-2.2-1.48Zm5.73,6.66c0-1.06-.81-1.56-2.32-1.56H38v3.11h3.41C42.87,191.09,43.68,190.62,43.68,189.54Z"/></g><g class="cls-2"><path class="cls-3" d="M58.06,189.24H50.73a2.58,2.58,0,0,0,2.78,1.94,3.29,3.29,0,0,0,2.43-.93l1.49,1.62a5.09,5.09,0,0,1-4,1.56c-3.35,0-5.52-2.1-5.52-5a4.93,4.93,0,0,1,5.16-5,4.8,4.8,0,0,1,5,5C58.12,188.7,58.08,189,58.06,189.24ZM50.7,187.6h4.77a2.31,2.31,0,0,0-2.38-2A2.29,2.29,0,0,0,50.7,187.6Z"/></g><g class="cls-2"><path class="cls-3" d="M69.42,183.6l-4.09,9.69H62.44l-4.07-9.69h2.89L64,190.19l2.77-6.59Z"/></g><g class="cls-2"><path class="cls-3" d="M79.73,189.24H72.4a2.58,2.58,0,0,0,2.78,1.94,3.29,3.29,0,0,0,2.43-.93l1.49,1.62a5.09,5.09,0,0,1-4,1.56c-3.35,0-5.52-2.1-5.52-5a4.93,4.93,0,0,1,5.16-5,4.79,4.79,0,0,1,5,5C79.78,188.7,79.75,189,79.73,189.24Zm-7.36-1.64h4.77a2.31,2.31,0,0,0-2.38-2A2.29,2.29,0,0,0,72.37,187.6Z"/></g><g class="cls-2"><path class="cls-3" d="M87.67,183.46v2.59c-.23,0-.41,0-.63,0a2.37,2.37,0,0,0-2.57,2.7v4.57H81.66V183.6h2.68v1.28A3.92,3.92,0,0,1,87.67,183.46Z"/></g><g class="cls-2"><path class="cls-3" d="M97.86,187.76v5.53H95.23v-1.21a3.17,3.17,0,0,1-3,1.35c-2.26,0-3.61-1.26-3.61-2.93s1.2-2.9,4.15-2.9h2.24c0-1.21-.72-1.91-2.24-1.91a4.67,4.67,0,0,0-2.79.9l-1-2a7.38,7.38,0,0,1,4.17-1.17C96.15,183.46,97.86,184.83,97.86,187.76Zm-2.81,2.47v-1H93.12c-1.31,0-1.73.48-1.73,1.13s.6,1.17,1.59,1.17A2.08,2.08,0,0,0,95.05,190.23Z"/></g><g class="cls-2"><path class="cls-3" d="M110.5,183.6v8.07c0,3.6-2,5.26-5.44,5.26a7.9,7.9,0,0,1-4.75-1.34l1.12-2a5.79,5.79,0,0,0,3.42,1.1c2,0,2.84-.9,2.84-2.65v-.41a4,4,0,0,1-3.06,1.2,4.68,4.68,0,1,1,0-9.36,3.86,3.86,0,0,1,3.2,1.39V183.6Zm-2.77,4.54a2.56,2.56,0,1,0-2.54,2.38A2.36,2.36,0,0,0,107.73,188.14Z"/><path class="cls-3" d="M122.54,189.24h-7.33a2.58,2.58,0,0,0,2.78,1.94,3.29,3.29,0,0,0,2.43-.93l1.49,1.62a5.09,5.09,0,0,1-4,1.56c-3.35,0-5.52-2.1-5.52-5a4.93,4.93,0,0,1,5.16-5,4.79,4.79,0,0,1,5,5C122.59,188.7,122.56,189,122.54,189.24Zm-7.36-1.64H120a2.42,2.42,0,0,0-4.77,0Z"/><path class="cls-3" d="M123.53,192.39l.93-2a6.63,6.63,0,0,0,3.37.94c1.3,0,1.78-.34,1.78-.88,0-1.59-5.85,0-5.85-3.84,0-1.83,1.66-3.13,4.49-3.13a8,8,0,0,1,3.72.85l-.93,2a5.58,5.58,0,0,0-2.79-.72c-1.26,0-1.81.4-1.81.9,0,1.66,5.86.06,5.86,3.88,0,1.8-1.68,3.07-4.58,3.07A8.36,8.36,0,0,1,123.53,192.39Z"/><path class="cls-3" d="M136.83,191.67a4.11,4.11,0,0,1-.49,1.8l-1,2.59h-1.78l.79-2.86a1.55,1.55,0,0,1-1-1.53,1.74,1.74,0,0,1,3.47,0Z"/></g><g class="cls-2"><path class="cls-3" d="M49.22,213.2l.79-.9a3.2,3.2,0,0,0,2.72,1.55c1.55,0,2.34-.92,2.34-2.78v-7.63H50.46v-1.15h5.93V211c0,2.66-1.26,4-3.68,4A4.14,4.14,0,0,1,49.22,213.2Z"/><path class="cls-3" d="M68.64,205.42v9.47H67.42v-1.73A3.78,3.78,0,0,1,64,215c-2.42,0-4-1.35-4-4.07v-5.49H61.3v5.36c0,2,1,3.05,2.84,3.05,2,0,3.23-1.28,3.23-3.44v-5Z"/><path class="cls-3" d="M71.94,202.43a.94.94,0,0,1,1.87,0,.94.94,0,0,1-1.87,0Zm.28,3H73.5v9.47H72.22Z"/></g><g class="cls-2"><path class="cls-3" d="M76.11,210.15a4.66,4.66,0,0,1,4.88-4.8,4.15,4.15,0,0,1,3.71,1.87l-1,.65A3.2,3.2,0,0,0,81,206.46a3.7,3.7,0,0,0,0,7.39,3.21,3.21,0,0,0,2.75-1.39l1,.65A4.19,4.19,0,0,1,81,215,4.68,4.68,0,0,1,76.11,210.15Z"/></g><g class="cls-2"><path class="cls-3" d="M95.29,210.55H87.37a3.5,3.5,0,0,0,3.72,3.3A3.72,3.72,0,0,0,94,212.6l.72.83a5,5,0,0,1-8.62-3.28,4.56,4.56,0,0,1,4.63-4.8,4.51,4.51,0,0,1,4.59,4.8C95.31,210.26,95.29,210.41,95.29,210.55Zm-7.92-1h6.71a3.36,3.36,0,0,0-6.71,0Z"/><path class="cls-3" d="M96.6,213.81l.58-1a5.65,5.65,0,0,0,3.36,1.06c1.8,0,2.54-.61,2.54-1.55,0-2.46-6.14-.52-6.14-4.26,0-1.55,1.33-2.7,3.75-2.7a6.45,6.45,0,0,1,3.35.88l-.56,1a4.9,4.9,0,0,0-2.79-.8c-1.71,0-2.47.66-2.47,1.56,0,2.56,6.14.63,6.14,4.27,0,1.64-1.44,2.7-3.91,2.7A6.3,6.3,0,0,1,96.6,213.81Z"/><path class="cls-3" d="M120.72,215.09l-1.74-1.8a5.6,5.6,0,0,1-4.22,1.71c-2.46,0-4.23-1.3-4.23-3.21,0-1.49.87-2.59,3.17-3.92-1.22-1.26-1.58-2-1.58-3,0-1.6,1.24-2.68,3.18-2.68s2.94.93,2.94,2.5c0,1.26-.76,2.14-2.81,3.33l3.46,3.56a8,8,0,0,0,.84-2.43l1,.33a9,9,0,0,1-1.12,2.9l1.8,1.85Zm-2.5-2.58-3.8-3.9c-2,1.15-2.63,1.94-2.63,3.06,0,1.37,1.23,2.27,3,2.27A4.37,4.37,0,0,0,118.22,212.51Zm-4.92-7.65c0,.74.27,1.26,1.43,2.43,1.82-1,2.41-1.67,2.41-2.57s-.67-1.57-1.84-1.57S113.3,203.85,113.3,204.86Z"/></g><g class="cls-2"><path class="cls-3" d="M50.38,230.19a6.33,6.33,0,0,1,6.6-6.41,6.07,6.07,0,0,1,4.61,1.84l-.84.84A5,5,0,0,0,57,225a5.22,5.22,0,1,0,0,10.44,5,5,0,0,0,3.73-1.51l.84.84A6.09,6.09,0,0,1,57,236.6,6.32,6.32,0,0,1,50.38,230.19Z"/></g><g class="cls-2"><path class="cls-3" d="M62.8,231.75a4.82,4.82,0,1,1,4.82,4.83A4.65,4.65,0,0,1,62.8,231.75Zm8.33,0a3.52,3.52,0,1,0-3.51,3.7A3.45,3.45,0,0,0,71.13,231.75Z"/></g><g class="cls-2"><path class="cls-3" d="M79.81,227v1.24l-.3,0c-2,0-3.19,1.26-3.19,3.5v4.82H75V227h1.23v1.85A3.56,3.56,0,0,1,79.81,227Z"/></g><g class="cls-2"><path class="cls-3" d="M90.67,223.13v13.36H89.44v-1.87a4.09,4.09,0,0,1-3.65,2,4.82,4.82,0,0,1,0-9.63,4.15,4.15,0,0,1,3.6,1.87v-5.69Zm-1.27,8.62a3.52,3.52,0,1,0-3.51,3.7A3.46,3.46,0,0,0,89.4,231.75Z"/><path class="cls-3" d="M93.94,224a.94.94,0,1,1,.93.92A.92.92,0,0,1,93.94,224Zm.29,3h1.28v9.47H94.23Z"/><path class="cls-3" d="M106.22,230.62v5.87H105V235a3.53,3.53,0,0,1-3.26,1.57c-2.14,0-3.45-1.12-3.45-2.75,0-1.46.93-2.69,3.65-2.69h3v-.57c0-1.62-.92-2.51-2.68-2.51a4.87,4.87,0,0,0-3.16,1.12l-.57-1a6,6,0,0,1,3.85-1.28C104.83,227,106.22,228.17,106.22,230.62Zm-1.28,3V232.1h-3c-1.84,0-2.43.72-2.43,1.69s.88,1.78,2.39,1.78A3,3,0,0,0,104.94,233.65Z"/><path class="cls-3" d="M109.69,223.13H111v13.36h-1.28Z"/><path class="cls-3" d="M113.22,235.41l.57-1a5.7,5.7,0,0,0,3.37,1.06c1.8,0,2.54-.61,2.54-1.54,0-2.47-6.14-.53-6.14-4.27,0-1.55,1.33-2.7,3.74-2.7a6.4,6.4,0,0,1,3.35.88l-.56,1a4.79,4.79,0,0,0-2.79-.81c-1.71,0-2.46.66-2.46,1.56,0,2.56,6.14.63,6.14,4.27,0,1.64-1.44,2.7-3.91,2.7A6.28,6.28,0,0,1,113.22,235.41Z"/></g></g><path class="cls-4" d="M135.3,63.07a5,5,0,0,1-4.62,5.35h-.11l3.92,3.85a1.71,1.71,0,0,1,.49,1.19v57.06a1.65,1.65,0,0,1-.49,1.19l-6.74,6.72a1.6,1.6,0,0,1-1.19.48H92.88a1.6,1.6,0,0,1-1.19-.48L85,131.74a1.65,1.65,0,0,1-.49-1.19V73.49A1.71,1.71,0,0,1,85,72.3l3.92-3.85a5,5,0,0,1,.64-10.07H130A5.07,5.07,0,0,1,135.3,63.07Zm-9.43,72.49,5.74-5.73V74.18l-5.74-5.73h-4.36a1.68,1.68,0,0,1-.26-3.35h8.68a1.68,1.68,0,0,0,0-3.36H89.51a1.68,1.68,0,0,0,0,3.36h25.26a1.68,1.68,0,1,1,.26,3.35H93.57L90.2,71.81h34.67a1.68,1.68,0,0,1,0,3.36h-37v53.7h35.36a1.68,1.68,0,0,1,0,3.36h-33l3.37,3.36Z"/><path class="cls-4" d="M94.56,98.66a15.16,15.16,0,1,1,15.21,15.11h0A15.12,15.12,0,0,1,94.61,98.69v0Zm4.27,4.5a11.75,11.75,0,1,0,2.56-12.8A11.77,11.77,0,0,0,98.83,103.16Z"/><path class="cls-4" d="M135.3,63.07a5,5,0,0,1-4.62,5.35h-.11l3.92,3.85a1.71,1.71,0,0,1,.49,1.19v57.06a1.65,1.65,0,0,1-.49,1.19l-6.74,6.72a1.6,1.6,0,0,1-1.19.48H92.88a1.6,1.6,0,0,1-1.19-.48L85,131.74a1.65,1.65,0,0,1-.49-1.19V73.49A1.71,1.71,0,0,1,85,72.3l3.92-3.85a5,5,0,0,1,.64-10.07H130A5.07,5.07,0,0,1,135.3,63.07Zm-9.43,72.49,5.74-5.73V74.18l-5.74-5.73h-4.36a1.68,1.68,0,0,1-.26-3.35h8.68a1.68,1.68,0,0,0,0-3.36H89.51a1.68,1.68,0,0,0,0,3.36h25.26a1.68,1.68,0,1,1,.26,3.35H93.57L90.2,71.81h34.67a1.68,1.68,0,0,1,0,3.36h-37v53.7h35.36a1.68,1.68,0,0,1,0,3.36h-33l3.37,3.36Z"/><path class="cls-4" d="M94.56,98.66a15.16,15.16,0,1,1,15.21,15.11h0A15.12,15.12,0,0,1,94.61,98.69v0Zm4.27,4.5a11.75,11.75,0,1,0,2.56-12.8A11.77,11.77,0,0,0,98.83,103.16Z"/><path class="cls-3" d="M71.27,138.91H40.75a6.56,6.56,0,0,1-6.56-6.56V110.47a6.56,6.56,0,0,1,6.56-6.56H71.27a6.56,6.56,0,0,1,6.56,6.56v21.88A6.56,6.56,0,0,1,71.27,138.91Zm-30.52-32a3.57,3.57,0,0,0-3.56,3.56v21.88a3.57,3.57,0,0,0,3.56,3.56H71.27a3.57,3.57,0,0,0,3.56-3.56V110.47a3.57,3.57,0,0,0-3.56-3.56Z"/><path class="cls-3" d="M63.8,48.73H48.21a4,4,0,0,1-4-4V38.07a4,4,0,0,1,4-4H63.8a4,4,0,0,1,4,4v6.65A4,4,0,0,1,63.8,48.73ZM48.21,37.06a1,1,0,0,0-1,1v6.65a1,1,0,0,0,1,1H63.8a1,1,0,0,0,1-1V38.07a1,1,0,0,0-1-1Z"/><path class="cls-3" d="M71.25,86.68H40.77a6.59,6.59,0,0,1-6.58-6.55V66.72a6.57,6.57,0,0,1,6.57-6.56H71.25a6.59,6.59,0,0,1,6.58,6.55V80.12A6.59,6.59,0,0,1,71.25,86.68ZM40.76,63.16a3.57,3.57,0,0,0-3.57,3.56v13.4a3.59,3.59,0,0,0,3.58,3.56H71.25a3.59,3.59,0,0,0,3.58-3.57V66.72a3.59,3.59,0,0,0-3.58-3.56H40.76Z"/><path class="cls-3" d="M40.67,106.91a6.5,6.5,0,0,1-6.48-6.42,6.58,6.58,0,0,1,6.48-6.7h30.6a6.56,6.56,0,1,1,0,13.12H40.67Zm.08-11.62,0,1.5a3.59,3.59,0,0,0-2.49,6.13,3.35,3.35,0,0,0,2.49,1H71.27a3.56,3.56,0,1,0,0-7.12H40.75Z"/><path class="cls-3" d="M40.67,96.74a6.5,6.5,0,0,1-6.48-6.42,6.58,6.58,0,0,1,6.56-6.64H71.27a6.53,6.53,0,1,1,0,13.06H40.67Zm.08-10.06a3.57,3.57,0,0,0-3.56,3.56,3.49,3.49,0,0,0,3.54,3.5H71.27a3.53,3.53,0,1,0,0-7.06H40.75Z"/><path class="cls-3" d="M38.74,63.16a1.5,1.5,0,0,1-1.17-2.44l11.26-13.9a1.5,1.5,0,1,1,2.34,1.88L39.91,62.6A1.5,1.5,0,0,1,38.74,63.16Z"/><path class="cls-3" d="M73.27,63.16a1.5,1.5,0,0,1-1.17-.56L60.83,48.7a1.5,1.5,0,0,1,2.33-1.89L74.43,60.72a1.49,1.49,0,0,1-1.16,2.44Z"/><path class="cls-3" d="M71.27,138.91H40.75a6.56,6.56,0,0,1-6.56-6.56V110.47a6.56,6.56,0,0,1,6.56-6.56H71.27a6.56,6.56,0,0,1,6.56,6.56v21.88A6.56,6.56,0,0,1,71.27,138.91Zm-30.52-32a3.57,3.57,0,0,0-3.56,3.56v21.88a3.57,3.57,0,0,0,3.56,3.56H71.27a3.57,3.57,0,0,0,3.56-3.56V110.47a3.57,3.57,0,0,0-3.56-3.56Z"/><path class="cls-3" d="M63.8,48.73H48.21a4,4,0,0,1-4-4V38.07a4,4,0,0,1,4-4H63.8a4,4,0,0,1,4,4v6.65A4,4,0,0,1,63.8,48.73ZM48.21,37.06a1,1,0,0,0-1,1v6.65a1,1,0,0,0,1,1H63.8a1,1,0,0,0,1-1V38.07a1,1,0,0,0-1-1Z"/><path class="cls-3" d="M71.25,86.68H40.77a6.59,6.59,0,0,1-6.58-6.55V66.72a6.57,6.57,0,0,1,6.57-6.56H71.25a6.59,6.59,0,0,1,6.58,6.55V80.12A6.59,6.59,0,0,1,71.25,86.68ZM40.76,63.16a3.57,3.57,0,0,0-3.57,3.56v13.4a3.59,3.59,0,0,0,3.58,3.56H71.25a3.59,3.59,0,0,0,3.58-3.57V66.72a3.59,3.59,0,0,0-3.58-3.56H40.76Z"/><path class="cls-3" d="M40.67,106.91a6.5,6.5,0,0,1-6.48-6.42,6.58,6.58,0,0,1,6.48-6.7h30.6a6.56,6.56,0,1,1,0,13.12H40.67Zm.08-11.62,0,1.5a3.59,3.59,0,0,0-2.49,6.13,3.35,3.35,0,0,0,2.49,1H71.27a3.56,3.56,0,1,0,0-7.12H40.75Z"/><path class="cls-3" d="M40.67,96.74a6.5,6.5,0,0,1-6.48-6.42,6.58,6.58,0,0,1,6.56-6.64H71.27a6.53,6.53,0,1,1,0,13.06H40.67Zm.08-10.06a3.57,3.57,0,0,0-3.56,3.56,3.49,3.49,0,0,0,3.54,3.5H71.27a3.53,3.53,0,1,0,0-7.06H40.75Z"/><path class="cls-3" d="M38.74,63.16a1.5,1.5,0,0,1-1.17-2.44l11.26-13.9a1.5,1.5,0,1,1,2.34,1.88L39.91,62.6A1.5,1.5,0,0,1,38.74,63.16Z"/><path class="cls-3" d="M73.27,63.16a1.5,1.5,0,0,1-1.17-.56L60.83,48.7a1.5,1.5,0,0,1,2.33-1.89L74.43,60.72a1.49,1.49,0,0,1-1.16,2.44Z"/></g></svg>