<svg xmlns="http://www.w3.org/2000/svg" viewBox="0 0 171 242"><defs><style>.cls-1{fill:#d8d8d8;fill-opacity:0.5;}.cls-2{isolation:isolate;}.cls-3{fill:#454f5b;}.cls-4{fill:none;}.cls-5{fill:#535b66;}</style></defs><g id="Layer_16" data-name="Layer 16"><g id="Layer_2" data-name="Layer 2"><g id="Layer_1-2" data-name="Layer 1-2"><path class="cls-1" d="M20,0H151a20.06,20.06,0,0,1,20,20V151a20.06,20.06,0,0,1-20,20H20A20.06,20.06,0,0,1,0,151V20A20.06,20.06,0,0,1,20,0Z"/><g class="cls-2"><g class="cls-2"><path class="cls-3" d="M55.62,187c0-3.8,2.92-6.52,6.84-6.52a6.52,6.52,0,0,1,5.19,2.23l-1.87,1.73A4.06,4.06,0,0,0,62.61,183a4,4,0,1,0,0,8.06,4,4,0,0,0,3.17-1.49l1.87,1.73a6.51,6.51,0,0,1-5.2,2.25A6.48,6.48,0,0,1,55.62,187Z"/></g><g class="cls-2"><path class="cls-3" d="M68.35,188.45a5.33,5.33,0,1,1,5.33,5C70.6,193.43,68.35,191.36,68.35,188.45Zm7.79,0a2.48,2.48,0,1,0-2.46,2.68A2.45,2.45,0,0,0,76.14,188.45Z"/><path class="cls-3" d="M83.94,183.82h2.48V186H84v7.31H81.2V186H79.7v-2.16h1.5v-.43a3.38,3.38,0,0,1,3.74-3.6,4,4,0,0,1,2.15.52l-.74,2a2,2,0,0,0-1.14-.34c-.82,0-1.27.45-1.27,1.41Z"/></g><g class="cls-2"><path class="cls-3" d="M90.91,183.82h2.48V186H91v7.31H88.17V186h-1.5v-2.16h1.5v-.43a3.38,3.38,0,0,1,3.74-3.6,4,4,0,0,1,2.15.52l-.74,2a2,2,0,0,0-1.14-.34c-.83,0-1.27.45-1.27,1.41Z"/></g><g class="cls-2"><path class="cls-3" d="M104.1,189.24H96.77a2.58,2.58,0,0,0,2.78,1.94,3.29,3.29,0,0,0,2.43-.93l1.49,1.62a5.09,5.09,0,0,1-4,1.56c-3.34,0-5.52-2.1-5.52-5a4.93,4.93,0,0,1,5.16-5,4.8,4.8,0,0,1,5,5C104.16,188.7,104.12,189,104.1,189.24Zm-7.36-1.64h4.77a2.31,2.31,0,0,0-2.38-2A2.29,2.29,0,0,0,96.74,187.6Z"/><path class="cls-3" d="M115.46,189.24h-7.33a2.58,2.58,0,0,0,2.77,1.94,3.26,3.26,0,0,0,2.43-.93l1.5,1.62a5.09,5.09,0,0,1-4,1.56c-3.35,0-5.53-2.1-5.53-5a4.94,4.94,0,0,1,5.17-5,4.79,4.79,0,0,1,5,5C115.51,188.7,115.48,189,115.46,189.24Zm-7.37-1.64h4.78a2.42,2.42,0,0,0-4.78,0Z"/></g><g class="cls-2"><path class="cls-3" d="M47.37,203.44H42.94v-1.15H53.13v1.15H48.7v11.45H47.37Z"/></g><g class="cls-2"><path class="cls-3" d="M62.24,210.55H54.32a3.5,3.5,0,0,0,3.72,3.3,3.72,3.72,0,0,0,2.9-1.25l.72.83A5,5,0,0,1,53,210.15a4.56,4.56,0,0,1,4.63-4.8,4.51,4.51,0,0,1,4.59,4.8C62.26,210.26,62.24,210.41,62.24,210.55Zm-7.92-1H61a3.36,3.36,0,0,0-6.71,0Z"/></g><g class="cls-2"><path class="cls-3" d="M71.74,209v5.87H70.52v-1.48A3.56,3.56,0,0,1,67.26,215c-2.15,0-3.46-1.12-3.46-2.76,0-1.45.94-2.68,3.66-2.68h3V209c0-1.62-.92-2.51-2.68-2.51a4.83,4.83,0,0,0-3.15,1.12l-.58-1a6.09,6.09,0,0,1,3.86-1.27C70.35,205.35,71.74,206.57,71.74,209Zm-1.28,3V210.5h-3c-1.84,0-2.43.72-2.43,1.69s.88,1.78,2.4,1.78A3,3,0,0,0,70.46,212Z"/><path class="cls-3" d="M89.22,215.09l-1.75-1.8A5.57,5.57,0,0,1,83.26,215c-2.47,0-4.23-1.3-4.23-3.21,0-1.49.86-2.59,3.17-3.92-1.23-1.26-1.59-2-1.59-3,0-1.6,1.24-2.68,3.19-2.68,1.78,0,2.93.93,2.93,2.5,0,1.26-.75,2.14-2.8,3.33l3.45,3.56a7.7,7.7,0,0,0,.85-2.43l1,.33a8.73,8.73,0,0,1-1.11,2.9l1.8,1.85Zm-2.5-2.58-3.8-3.9c-2,1.15-2.63,1.94-2.63,3.06,0,1.37,1.22,2.27,3,2.27A4.38,4.38,0,0,0,86.72,212.51Zm-4.92-7.65c0,.74.27,1.26,1.42,2.43,1.82-1,2.42-1.67,2.42-2.57s-.67-1.57-1.84-1.57S81.8,203.85,81.8,204.86Z"/><path class="cls-3" d="M107.49,202.29v12.6h-1.31v-5.82H98.29v5.82H97v-12.6h1.33v5.61h7.89v-5.61Z"/><path class="cls-3" d="M110.37,210.15a4.82,4.82,0,1,1,4.82,4.83A4.65,4.65,0,0,1,110.37,210.15Zm8.33,0a3.52,3.52,0,1,0-3.51,3.7A3.45,3.45,0,0,0,118.7,210.15Z"/><path class="cls-3" d="M127.59,214.31a3,3,0,0,1-2,.67,2.51,2.51,0,0,1-2.77-2.76V206.5h-1.69v-1.08h1.69v-2.07h1.28v2.07H127v1.08H124.1v5.65a1.52,1.52,0,0,0,1.64,1.73,2.12,2.12,0,0,0,1.4-.48Z"/></g><g class="cls-2"><path class="cls-3" d="M58.4,223.89h5.13c4,0,6.76,2.59,6.76,6.3s-2.72,6.3-6.76,6.3H58.4Zm5.06,11.45c3.35,0,5.51-2.13,5.51-5.15S66.81,225,63.46,225H59.73v10.3Z"/></g><g class="cls-2"><path class="cls-3" d="M77.77,227v1.24l-.3,0c-2,0-3.19,1.26-3.19,3.5v4.82H73V227h1.23v1.85A3.56,3.56,0,0,1,77.77,227Z"/></g><g class="cls-2"><path class="cls-3" d="M79.78,224a.92.92,0,0,1,.94-.9.91.91,0,1,1,0,1.82A.93.93,0,0,1,79.78,224Zm.29,3h1.28v9.47H80.07Z"/><path class="cls-3" d="M93.63,231v5.49H92.35v-5.37c0-2-1-3-2.84-3a3.11,3.11,0,0,0-3.32,3.42v5H84.91V227h1.23v1.75a4,4,0,0,1,3.6-1.82C92,227,93.63,228.28,93.63,231Z"/></g><g class="cls-2"><path class="cls-3" d="M100.61,231.74l-2.23,2v2.7H97.1V223.13h1.28v9.06L104,227h1.59l-4.05,3.87,4.43,5.6h-1.57Z"/></g><g class="cls-2"><path class="cls-3" d="M106.32,235.41l.57-1a5.7,5.7,0,0,0,3.37,1.06c1.8,0,2.54-.61,2.54-1.54,0-2.47-6.14-.53-6.14-4.27,0-1.55,1.33-2.7,3.75-2.7a6.39,6.39,0,0,1,3.34.88l-.55,1a4.83,4.83,0,0,0-2.79-.81c-1.72,0-2.47.66-2.47,1.56,0,2.56,6.14.63,6.14,4.27,0,1.64-1.44,2.7-3.91,2.7A6.28,6.28,0,0,1,106.32,235.41Z"/></g></g><rect class="cls-4" x="41.7" y="41.08" width="81" height="90"/><rect class="cls-4" x="46.81" y="51.86" width="79.09" height="71.61"/><path class="cls-5" d="M46.19,132.94a12.43,12.43,0,0,1-3.94-.91A11.6,11.6,0,0,1,35,122a9.94,9.94,0,0,1-.06-1.34,2,2,0,0,1,1.8-2.13,1.82,1.82,0,0,1,.33,0H51.67c-1.28-1.07-2.41-2-3.47-3A41.5,41.5,0,0,1,35.36,85.15V72.08c0-1.64.69-2.35,2.32-2.35H48.22a2,2,0,1,1,.29,4H39.84c-.47,0-.63.08-.63.58,0,4-.06,8,0,12a37.54,37.54,0,0,0,19.17,32.06,2.46,2.46,0,0,0,1.21.32h34a2.41,2.41,0,0,0,1.26-.32A37.34,37.34,0,0,0,113.2,93.54a33.65,33.65,0,0,0,.83-7.68V74.39c0-.56-.12-.7-.69-.7H56.42a2,2,0,1,1-.43-4H115.7a2,2,0,0,1,2.3,1.64h0a2.08,2.08,0,0,1,0,.61v3.13c0,.5.08.68.62.67h3.78a14.76,14.76,0,0,1,13.47,12.5,2.8,2.8,0,0,0,.21,1.07v2.16a3.22,3.22,0,0,0-.21,1.23A14.73,14.73,0,0,1,122,105.2c-2.74.08-5.5,0-8.26,0a.87.87,0,0,0-.89.52,41.1,41.1,0,0,1-9.91,11.85l-1.21,1h14.6a2,2,0,0,1,2.13,1.77v.17A11.86,11.86,0,0,1,109,132.64a7,7,0,0,0-1.56.31h-.34a1.31,1.31,0,0,0-.68-.06H46.88Zm30.44-10.4h-37c-.67,0-.67,0-.49.63A7.82,7.82,0,0,0,46.77,129h59.65a7.87,7.87,0,0,0,7.66-5.75c.19-.67.19-.67-.52-.67Zm42.28-21.26a29,29,0,0,0,3.73-.09,10.82,10.82,0,0,0,2.27-20.91,14.43,14.43,0,0,0-5.34-.62c-.5,0-1.15-.21-1.46.09s0,1-.13,1.49.16.59.62.59a18.8,18.8,0,0,1,4.17.21,8.68,8.68,0,0,1,6.61,9.19,8.54,8.54,0,0,1-8.55,7.85h-3.66c-1.44,0-1.44,0-1.94,1.3-.06.18-.12.34-.19.5-.19.35,0,.41.3.4Zm.44-6.15h1.4a4.66,4.66,0,0,0,.92-9.25,21.84,21.84,0,0,0-3.43-.09c-.33,0-.23.23-.24.4,0,1-.09,1.9-.16,2.86a35.68,35.68,0,0,1-.87,5.62c-.08.36,0,.48.4.46C118,95.08,118.68,95.13,119.35,95.13Z"/><path class="cls-5" d="M77,40.21c2.34,1.07,3.21,3,3.62,5.35A9.16,9.16,0,0,1,79,52.49c-.59.87-1.2,1.72-1.73,2.58a5.13,5.13,0,0,0-.48,4.57,2.37,2.37,0,0,0,1,1.38A2,2,0,0,1,78,63.84h0a2,2,0,0,1-2.2.56A5.82,5.82,0,0,1,73,60.71a9.13,9.13,0,0,1,1.19-8.15L75.91,50a5.18,5.18,0,0,0,.66-4.55,2.73,2.73,0,0,0-1.06-1.65,1.81,1.81,0,0,1-.77-1.94A1.86,1.86,0,0,1,76,40.36c.1,0,.24,0,.28-.15Z"/><path class="cls-5" d="M108.14,96a2.11,2.11,0,0,1-.28,1.07,41.47,41.47,0,0,1-17.73,19,2,2,0,0,1-1.94-3.48,37.4,37.4,0,0,0,16.13-17.36,2,2,0,0,1,3.82.77Z"/><path class="cls-5" d="M70.65,49.9A8.75,8.75,0,0,1,69,55.08c-.6.93-1.24,1.83-1.85,2.76a5.22,5.22,0,0,0-.47,4.58,2.37,2.37,0,0,0,1,1.38,2,2,0,0,1,.1,2.83h0a2,2,0,0,1-2.1.53,6,6,0,0,1-2.93-4.08,9.17,9.17,0,0,1,1.33-7.77c.6-.87,1.2-1.76,1.79-2.65A5.2,5.2,0,0,0,66.41,48a2.45,2.45,0,0,0-1-1.4,1.94,1.94,0,0,1,2-3.3A5.7,5.7,0,0,1,70,46.08a8.45,8.45,0,0,1,.54,1.84A11,11,0,0,1,70.65,49.9Z"/><path class="cls-5" d="M82.63,60.9a9,9,0,0,1,1.47-5.34c.62-1,1.29-1.93,1.94-2.9a5.21,5.21,0,0,0,.62-4.58,2.62,2.62,0,0,0-1.06-1.54,2,2,0,0,1,2-3.36,5.68,5.68,0,0,1,2.75,3.6,9.24,9.24,0,0,1-1.12,8.3c-.62.9-1.23,1.79-1.83,2.69a5.19,5.19,0,0,0-.54,4.53,2.53,2.53,0,0,0,1.07,1.49,2,2,0,0,1,0,2.83h0a2,2,0,0,1-2.18.46h0a5.18,5.18,0,0,1-2.14-2.28A9,9,0,0,1,82.63,60.9Z"/></g></g></g></svg>