<svg xmlns="http://www.w3.org/2000/svg" viewBox="0 0 171 242"><defs><style>.cls-1{fill:#d8d8d8;fill-opacity:0.5;}.cls-2{isolation:isolate;}.cls-3{fill:#454f5b;}</style></defs><g id="Layer_10" data-name="Layer 10"><g id="Layer_2" data-name="Layer 2"><g id="Layer_1-2" data-name="Layer 1-2"><path class="cls-1" d="M20,0H151a20.06,20.06,0,0,1,20,20V151a20.06,20.06,0,0,1-20,20H20A20.06,20.06,0,0,1,0,151V20A20.06,20.06,0,0,1,20,0Z"/><g class="cls-2"><g class="cls-2"><path class="cls-3" d="M68.46,191.69h5.73c4.12,0,7,2.48,7,6.3s-2.83,6.3-7,6.3H68.46Zm5.59,10.21c2.5,0,4.14-1.5,4.14-3.91s-1.64-3.91-4.14-3.91H71.38v7.82Z"/><path class="cls-3" d="M92.57,200.24H85.24A2.58,2.58,0,0,0,88,202.18a3.26,3.26,0,0,0,2.43-.93l1.5,1.62a5.09,5.09,0,0,1-4,1.56c-3.35,0-5.53-2.1-5.53-5a4.94,4.94,0,0,1,5.17-5,4.79,4.79,0,0,1,5,5C92.62,199.7,92.59,200,92.57,200.24ZM85.2,198.6H90a2.42,2.42,0,0,0-4.78,0Z"/><path class="cls-3" d="M94.49,190.93H97.3v13.36H94.49Z"/><path class="cls-3" d="M99.57,191.69a1.6,1.6,0,0,1,1.74-1.57,1.58,1.58,0,0,1,1.75,1.51,1.75,1.75,0,0,1-3.49.06Zm.34,2.91h2.81v9.69H99.91Z"/></g><g class="cls-2"><path class="cls-3" d="M32.33,226.09l-1.74-1.8A5.6,5.6,0,0,1,26.37,226c-2.46,0-4.23-1.3-4.23-3.21,0-1.49.87-2.59,3.17-3.92-1.22-1.26-1.58-2-1.58-3,0-1.6,1.24-2.68,3.18-2.68,1.79,0,2.94.93,2.94,2.5,0,1.26-.76,2.14-2.81,3.33l3.46,3.56a8,8,0,0,0,.84-2.43l1.05.33a8.74,8.74,0,0,1-1.12,2.9l1.8,1.85Zm-2.5-2.58-3.8-3.9c-2,1.15-2.63,1.94-2.63,3.06,0,1.37,1.23,2.27,3.05,2.27A4.36,4.36,0,0,0,29.83,223.51Zm-4.91-7.65c0,.74.27,1.26,1.42,2.43,1.82-1,2.41-1.67,2.41-2.57s-.67-1.57-1.84-1.57S24.92,214.85,24.92,215.86Z"/></g><g class="cls-2"><path class="cls-3" d="M49.94,217.61c0,2.68-1.95,4.3-5.15,4.3H41.4v4H40.07v-12.6h4.72C48,213.29,49.94,214.91,49.94,217.61Zm-1.33,0c0-2-1.34-3.17-3.86-3.17H41.4v6.3h3.35C47.27,220.74,48.61,219.59,48.61,217.61Z"/></g><g class="cls-2"><path class="cls-3" d="M59.6,220v5.87H58.38v-1.48A3.56,3.56,0,0,1,55.12,226c-2.15,0-3.46-1.12-3.46-2.76,0-1.45.94-2.68,3.66-2.68h3V220c0-1.62-.92-2.51-2.68-2.51a4.85,4.85,0,0,0-3.15,1.12l-.58-1a6.09,6.09,0,0,1,3.86-1.27C58.21,216.35,59.6,217.57,59.6,220Zm-1.28,3V221.5h-3c-1.84,0-2.43.72-2.43,1.69s.88,1.78,2.4,1.78A3,3,0,0,0,58.32,223Z"/></g><g class="cls-2"><path class="cls-3" d="M67.84,216.35v1.24l-.3,0c-2,0-3.19,1.26-3.19,3.49v4.83H63.07v-9.47H64.3v1.85A3.56,3.56,0,0,1,67.84,216.35Z"/></g><g class="cls-2"><path class="cls-3" d="M75.55,225.31a3,3,0,0,1-2,.67,2.51,2.51,0,0,1-2.77-2.76V217.5H69.09v-1.08h1.69v-2.07h1.28v2.07h2.88v1.08H72.06v5.65a1.51,1.51,0,0,0,1.64,1.73,2.12,2.12,0,0,0,1.4-.48Z"/></g><g class="cls-2"><path class="cls-3" d="M85.65,216.42,80.92,227c-.8,1.86-1.8,2.45-3.16,2.45a3.26,3.26,0,0,1-2.3-.86l.59-1a2.37,2.37,0,0,0,1.73.72c.85,0,1.42-.39,2-1.58l.42-.92-4.23-9.45h1.33l3.57,8.05,3.56-8.05Z"/></g><g class="cls-2"><path class="cls-3" d="M93.76,214.44v4.95h6.52v1.15H93.76v5.35H92.43v-12.6h8.65v1.15Z"/></g><g class="cls-2"><path class="cls-3" d="M102.28,221.15A4.82,4.82,0,1,1,107.1,226,4.65,4.65,0,0,1,102.28,221.15Zm8.33,0a3.52,3.52,0,1,0-3.51,3.7A3.45,3.45,0,0,0,110.61,221.15Z"/><path class="cls-3" d="M113.56,221.15a4.82,4.82,0,1,1,4.83,4.83A4.66,4.66,0,0,1,113.56,221.15Zm8.34,0a3.52,3.52,0,1,0-3.51,3.7A3.45,3.45,0,0,0,121.9,221.15Z"/><path class="cls-3" d="M134.45,212.53v13.36h-1.23V224a4.09,4.09,0,0,1-3.65,2,4.82,4.82,0,0,1,0-9.63,4.14,4.14,0,0,1,3.6,1.87v-5.69Zm-1.26,8.62a3.52,3.52,0,1,0-3.51,3.7A3.47,3.47,0,0,0,133.19,221.15Z"/><path class="cls-3" d="M136.69,224.81l.58-1a5.68,5.68,0,0,0,3.37,1.06c1.8,0,2.54-.61,2.54-1.55,0-2.46-6.14-.52-6.14-4.26,0-1.55,1.33-2.7,3.74-2.7a6.4,6.4,0,0,1,3.35.88l-.56,1a4.9,4.9,0,0,0-2.79-.8c-1.71,0-2.47.66-2.47,1.56,0,2.56,6.14.63,6.14,4.27,0,1.64-1.44,2.7-3.9,2.7A6.33,6.33,0,0,1,136.69,224.81Z"/></g></g><path class="cls-3" d="M50.73,82.11H36.11a1.5,1.5,0,0,1,0-3H50.73a1.5,1.5,0,1,1,0,3Z"/><path class="cls-3" d="M26,99A12,12,0,0,1,14,87a7.91,7.91,0,0,1,7.87-7.88h7a1.5,1.5,0,0,1,0,3h-7A4.91,4.91,0,0,0,17,87a9,9,0,0,0,9,9H56.33a1.5,1.5,0,0,1,0,3H26Z"/><path class="cls-3" d="M21.15,82.11a1.5,1.5,0,0,1-1.5-1.5V67.5a1.5,1.5,0,0,1,3,0V80.61A1.5,1.5,0,0,1,21.15,82.11Z"/><path class="cls-3" d="M113.93,80.26a1.5,1.5,0,0,1-1.5-1.5V67.5a1.5,1.5,0,0,1,3,0V78.76A1.5,1.5,0,0,1,113.93,80.26Z"/><path class="cls-3" d="M80.64,85.36a1.51,1.51,0,0,1-1.06-.44,1.49,1.49,0,0,1,0-2.12L89.86,72.51A1.5,1.5,0,1,1,92,74.63L81.7,84.92A1.51,1.51,0,0,1,80.64,85.36Z"/><path class="cls-3" d="M73.61,87.79a1.51,1.51,0,0,1-1.06-.44l-5.79-5.78a1.5,1.5,0,1,1,2.12-2.12l5.79,5.78a1.49,1.49,0,0,1,0,2.12A1.51,1.51,0,0,1,73.61,87.79Z"/><path class="cls-3" d="M58.92,90.08a1.51,1.51,0,0,1-1.06-.44L39.53,71.31a1.5,1.5,0,0,1,2.12-2.12L58.92,86.46,78.67,66.73a1.5,1.5,0,1,1,2.12,2.12L60,89.64A1.51,1.51,0,0,1,58.92,90.08Z"/><path class="cls-3" d="M96.83,78.45a9.48,9.48,0,0,1-9.44-8.68,9,9,0,0,1,0-1.64,1.5,1.5,0,0,1,3,.26,7,7,0,0,0,0,1.12,6.5,6.5,0,0,0,13-1.12,1.5,1.5,0,0,1,3-.26,9.51,9.51,0,0,1-8.64,10.29Q97.25,78.45,96.83,78.45Z"/><path class="cls-3" d="M33.11,77.85a9.5,9.5,0,0,1-9.43-8.5,9.65,9.65,0,0,1,0-2,1.5,1.5,0,0,1,3,.32,6.37,6.37,0,0,0,0,1.38A6.48,6.48,0,0,0,29,73.4a6.49,6.49,0,0,0,9.14-1,6.47,6.47,0,0,0,1.41-4.77,1.5,1.5,0,0,1,3-.32,9.48,9.48,0,0,1-8.44,10.45A8.72,8.72,0,0,1,33.11,77.85Z"/><path class="cls-3" d="M116.68,69H55.89a1.5,1.5,0,0,1,0-3h60.73a2,2,0,0,0,.5-.06,1.5,1.5,0,0,0,1-1.88c-3.49-12.7-25.23-22.25-50.56-22.25S20.47,51.36,17,64a1.53,1.53,0,0,0-.08.5A1.5,1.5,0,0,0,18.42,66H47.58a1.5,1.5,0,0,1,0,3H18.47a4.48,4.48,0,0,1-4.55-4.43,4.64,4.64,0,0,1,.19-1.38C18,49.08,40.46,38.81,67.55,38.81S117.1,49.08,121,63.23A4.49,4.49,0,0,1,116.68,69Z"/><path class="cls-3" d="M51.17,52.61a1.51,1.51,0,0,1-1.06-.44,1.49,1.49,0,0,1,0-2.12L60.44,39.7a1.5,1.5,0,0,1,2.12,2.12L52.23,52.17A1.51,1.51,0,0,1,51.17,52.61Z"/><path class="cls-3" d="M61.38,56.65a1.51,1.51,0,0,1-1.06-.44,1.49,1.49,0,0,1,0-2.12l14-14a1.5,1.5,0,0,1,2.12,2.12l-14,14A1.51,1.51,0,0,1,61.38,56.65Z"/><path class="cls-3" d="M77.3,54.65a1.51,1.51,0,0,1-1.06-.44,1.49,1.49,0,0,1,0-2.12l10.7-10.7a1.5,1.5,0,0,1,2.12,2.12l-10.7,10.7A1.51,1.51,0,0,1,77.3,54.65Z"/><path class="cls-3" d="M97.64,53.06a1.7,1.7,0,1,0-1.7-1.7h0A1.7,1.7,0,0,0,97.64,53.06Z"/><path class="cls-3" d="M97.64,54.56a3.2,3.2,0,1,1,3.2-3.2A3.21,3.21,0,0,1,97.64,54.56Zm0-3.4a.2.2,0,0,0-.2.2c0,.22.4.22.4,0A.2.2,0,0,0,97.64,51.16Z"/><path class="cls-3" d="M90.93,56.45a1.7,1.7,0,1,0-1.7-1.7h0A1.7,1.7,0,0,0,90.93,56.45Z"/><path class="cls-3" d="M90.93,58a3.2,3.2,0,1,1,3.2-3.2A3.21,3.21,0,0,1,90.93,58Zm0-3.4a.2.2,0,0,0-.2.2c0,.22.4.22.4,0A.2.2,0,0,0,90.93,54.55Z"/><path class="cls-3" d="M103.13,58.15a1.7,1.7,0,1,0-1.7-1.7h0A1.7,1.7,0,0,0,103.13,58.15Z"/><path class="cls-3" d="M103.13,59.65a3.2,3.2,0,1,1,3.2-3.2A3.21,3.21,0,0,1,103.13,59.65Zm0-3.4a.2.2,0,0,0-.2.2c0,.22.4.22.4,0A.2.2,0,0,0,103.13,56.25Z"/><path class="cls-3" d="M36.11,56.25a1.7,1.7,0,1,0-1.7-1.7h0A1.71,1.71,0,0,0,36.11,56.25Z"/><path class="cls-3" d="M36.11,57.75a3.2,3.2,0,1,1,3.2-3.2A3.21,3.21,0,0,1,36.11,57.75Zm0-3.4a.2.2,0,0,0-.2.2c0,.22.4.22.4,0A.2.2,0,0,0,36.11,54.35Z"/><path class="cls-3" d="M28.85,60.49a1.7,1.7,0,1,0-1.69-1.71h0A1.71,1.71,0,0,0,28.85,60.49Z"/><path class="cls-3" d="M28.86,62h0a3.2,3.2,0,1,1,2.3-5.45,3.16,3.16,0,0,1,.92,2.27A3.19,3.19,0,0,1,28.86,62Zm0-3.4a.2.2,0,1,0,0,.4.22.22,0,0,0,.2-.2A.26.26,0,0,0,28.86,58.59Z"/><path class="cls-3" d="M87.36,135.4a1.5,1.5,0,0,1-.25-3l41.39-7a23.52,23.52,0,1,0-5.86-46.68l-41.33,7a1.5,1.5,0,0,1-.5-3l41.39-7a26.52,26.52,0,1,1,6.74,52.62l-41.33,7Z"/><path class="cls-3" d="M84.21,135.59a26.5,26.5,0,1,1,26.5-26.5A26.53,26.53,0,0,1,84.21,135.59Zm0-50a23.5,23.5,0,1,0,23.5,23.5A23.52,23.52,0,0,0,84.21,85.59Z"/><path class="cls-3" d="M69.84,120.12h-.07a5.34,5.34,0,0,1,.07-10.68h.07a5.34,5.34,0,0,1-.07,10.68Zm0-3h0a2.34,2.34,0,0,0,0-4.68h0a2.34,2.34,0,0,0,0,4.68Z"/><path class="cls-3" d="M77.86,107.74h0a8,8,0,1,1,8-8A8,8,0,0,1,77.84,107.74Zm0-13a5,5,0,1,0,0,10l0,1.5v-1.5a5,5,0,1,0,0-10Z"/><path class="cls-3" d="M90.51,126.5a6.35,6.35,0,1,1,6.35-6.35A6.36,6.36,0,0,1,90.51,126.5Zm0-9.7a3.35,3.35,0,1,0,3.35,3.35A3.35,3.35,0,0,0,90.51,116.8Z"/><path class="cls-3" d="M161.71,106.24a1.45,1.45,0,0,1-.92-.32l-8.51-6.61a1.51,1.51,0,0,1-.57-1,1.47,1.47,0,0,1,.31-1.11l6.69-8.61a1.5,1.5,0,1,1,2.36,1.84l-5.77,7.43,7.33,5.69a1.5,1.5,0,0,1,.26,2.1A1.48,1.48,0,0,1,161.71,106.24Z"/></g></g></g></svg>