<svg xmlns="http://www.w3.org/2000/svg" viewBox="0 0 171 242"><defs><style>.cls-1{fill:#d8d8d8;fill-opacity:0.5;}.cls-2{fill:#454f5b;}</style></defs><g id="Layer_14" data-name="Layer 14"><path class="cls-1" d="M20,0H151a20.06,20.06,0,0,1,20,20V151a20.06,20.06,0,0,1-20,20H20A20.06,20.06,0,0,1,0,151V20A20.06,20.06,0,0,1,20,0Z"/><path class="cls-2" d="M66.17,194v3.33H72v2.34H66.17v4.59H63.25v-12.6h9.53V194Z"/><path class="cls-2" d="M73.58,199.45a5.33,5.33,0,1,1,5.33,5C75.83,204.43,73.58,202.36,73.58,199.45Zm7.8,0a2.48,2.48,0,1,0-2.47,2.68A2.45,2.45,0,0,0,81.38,199.45Z"/><path class="cls-2" d="M85.37,199.45a5.33,5.33,0,1,1,5.33,5C87.62,204.43,85.37,202.36,85.37,199.45Zm7.8,0a2.48,2.48,0,1,0-2.47,2.68A2.45,2.45,0,0,0,93.17,199.45Z"/><path class="cls-2" d="M107.75,190.93v13.36h-2.68v-1.12a3.72,3.72,0,0,1-3,1.26,5,5,0,0,1,0-10,3.73,3.73,0,0,1,2.9,1.17v-4.7ZM105,199.45a2.48,2.48,0,1,0-2.46,2.68A2.46,2.46,0,0,0,105,199.45Z"/><path class="cls-2" d="M41.25,219.59a6.32,6.32,0,0,1,6.6-6.41A6.1,6.1,0,0,1,52.46,215l-.84.85a5,5,0,0,0-3.73-1.49,5.22,5.22,0,1,0,0,10.44,5,5,0,0,0,3.73-1.51l.84.84A6.09,6.09,0,0,1,47.84,226,6.32,6.32,0,0,1,41.25,219.59Z"/><path class="cls-2" d="M63.24,216.42v9.47H62v-1.73a3.78,3.78,0,0,1-3.4,1.82c-2.42,0-4-1.35-4-4.07v-5.49H55.9v5.36c0,2,1,3.05,2.84,3.05,2,0,3.23-1.28,3.23-3.44v-5Z"/><path class="cls-2" d="M76.42,221.15A4.59,4.59,0,0,1,71.7,226a4.14,4.14,0,0,1-3.6-1.87v5.27H66.82v-13h1.23v1.87a4.12,4.12,0,0,1,3.65-1.94A4.58,4.58,0,0,1,76.42,221.15Zm-1.28,0a3.53,3.53,0,1,0-3.53,3.7A3.49,3.49,0,0,0,75.14,221.15Z"/><path class="cls-2" d="M88.63,221.15A4.6,4.6,0,0,1,83.91,226a4.11,4.11,0,0,1-3.66-2v1.87H79V212.53h1.28v5.69a4.13,4.13,0,0,1,3.6-1.87A4.58,4.58,0,0,1,88.63,221.15Zm-1.28,0a3.53,3.53,0,1,0-3.53,3.7A3.48,3.48,0,0,0,87.35,221.15Z"/><path class="cls-2" d="M90.28,221.15A4.82,4.82,0,1,1,95.1,226,4.65,4.65,0,0,1,90.28,221.15Zm8.33,0a3.52,3.52,0,1,0-3.51,3.7A3.45,3.45,0,0,0,98.61,221.15Z"/><path class="cls-2" d="M109.61,220v5.87h-1.22v-1.48a3.54,3.54,0,0,1-3.26,1.57c-2.14,0-3.46-1.12-3.46-2.76,0-1.45.94-2.68,3.66-2.68h3V220c0-1.62-.91-2.51-2.68-2.51a4.85,4.85,0,0,0-3.15,1.12l-.58-1a6.09,6.09,0,0,1,3.86-1.27C108.22,216.35,109.61,217.57,109.61,220Zm-1.28,3V221.5h-3c-1.83,0-2.43.72-2.43,1.69s.88,1.78,2.4,1.78A3,3,0,0,0,108.33,223Z"/><path class="cls-2" d="M117.86,216.35v1.24l-.31,0c-2,0-3.19,1.26-3.19,3.49v4.83h-1.28v-9.47h1.23v1.85A3.57,3.57,0,0,1,117.86,216.35Z"/><path class="cls-2" d="M128.71,212.53v13.36h-1.22V224a4.11,4.11,0,0,1-3.66,2,4.82,4.82,0,0,1,0-9.63,4.14,4.14,0,0,1,3.6,1.87v-5.69Zm-1.26,8.62a3.52,3.52,0,1,0-3.51,3.7A3.46,3.46,0,0,0,127.45,221.15Z"/><path class="cls-2" d="M67,67.78H19.87a4.69,4.69,0,0,1-4.68-4.68V56.69A4.69,4.69,0,0,1,19.87,52H67a4.69,4.69,0,0,1,4.68,4.68V63.1A4.69,4.69,0,0,1,67,67.78ZM19.87,55a1.68,1.68,0,0,0-1.68,1.68V63.1a1.68,1.68,0,0,0,1.68,1.68H67a1.68,1.68,0,0,0,1.68-1.68V56.69A1.68,1.68,0,0,0,67,55Z"/><path class="cls-2" d="M64.48,137.56H22.41a9.19,9.19,0,0,1-9.18-9.18V81.66a9.19,9.19,0,0,1,9.18-9.18H64.48a9.19,9.19,0,0,1,9.18,9.18v46.72A9.19,9.19,0,0,1,64.48,137.56ZM22.41,75.48a6.18,6.18,0,0,0-6.18,6.18v46.72a6.18,6.18,0,0,0,6.18,6.18H64.48a6.18,6.18,0,0,0,6.18-6.18V81.66a6.18,6.18,0,0,0-6.18-6.18Z"/><path class="cls-2" d="M22,75.5A1.5,1.5,0,0,1,20.5,74V67.31a1.5,1.5,0,0,1,3,0V74A1.5,1.5,0,0,1,22,75.5Z"/><path class="cls-2" d="M64.91,75.5a1.5,1.5,0,0,1-1.5-1.5V67a1.5,1.5,0,0,1,3,0v7A1.5,1.5,0,0,1,64.91,75.5Z"/><path class="cls-2" d="M70.19,93.61H37.54a1.5,1.5,0,0,1,0-3H70.19a1.5,1.5,0,0,1,0,3Z"/><path class="cls-2" d="M25,93.61H14.73a1.5,1.5,0,0,1,0-3H25a1.5,1.5,0,0,1,0,3Z"/><path class="cls-2" d="M72.16,118.19H14.73a1.5,1.5,0,1,1,0-3H72.16a1.5,1.5,0,0,1,0,3Z"/><path class="cls-2" d="M151.52,48.11H86.4a6.26,6.26,0,0,1,0-12.52h65.12a6.26,6.26,0,0,1,0,12.52ZM86.4,38.59a3.26,3.26,0,0,0,0,6.52h65.12a3.26,3.26,0,0,0,0-6.52Z"/><path class="cls-2" d="M86.9,127.73a1.5,1.5,0,0,1-1.5-1.5V46.6a1.5,1.5,0,1,1,3,0v79.63A1.5,1.5,0,0,1,86.9,127.73Z"/><path class="cls-2" d="M151,127.73a1.5,1.5,0,0,1-1.5-1.5V70.47a1.5,1.5,0,0,1,3,0v55.76A1.5,1.5,0,0,1,151,127.73Z"/><path class="cls-2" d="M151,60.5a1.5,1.5,0,0,1-1.5-1.5V46.6a1.5,1.5,0,1,1,3,0V59A1.5,1.5,0,0,1,151,60.5Z"/><path class="cls-2" d="M151.52,137.57H86.4a6.26,6.26,0,0,1,0-12.52h65.12a6.26,6.26,0,0,1,0,12.52ZM86.4,128.05a3.26,3.26,0,0,0,0,6.52h65.12a3.26,3.26,0,1,0,0-6.52Z"/><path class="cls-2" d="M134,109h-30a9.24,9.24,0,0,1-9.22-9.22V73a9.24,9.24,0,0,1,9.22-9.22h30A9.24,9.24,0,0,1,143.18,73v26.7A9.24,9.24,0,0,1,134,109Zm-30-42.14A6.23,6.23,0,0,0,97.7,73v26.7a6.23,6.23,0,0,0,6.22,6.22h30a6.23,6.23,0,0,0,6.22-6.22V73A6.23,6.23,0,0,0,134,66.81Z"/><path class="cls-2" d="M67,67.78H19.87a4.69,4.69,0,0,1-4.68-4.68V56.69A4.69,4.69,0,0,1,19.87,52H67a4.69,4.69,0,0,1,4.68,4.68V63.1A4.69,4.69,0,0,1,67,67.78ZM19.87,55a1.68,1.68,0,0,0-1.68,1.68V63.1a1.68,1.68,0,0,0,1.68,1.68H67a1.68,1.68,0,0,0,1.68-1.68V56.69A1.68,1.68,0,0,0,67,55Z"/><path class="cls-2" d="M64.48,137.56H22.41a9.19,9.19,0,0,1-9.18-9.18V81.66a9.19,9.19,0,0,1,9.18-9.18H64.48a9.19,9.19,0,0,1,9.18,9.18v46.72A9.19,9.19,0,0,1,64.48,137.56ZM22.41,75.48a6.18,6.18,0,0,0-6.18,6.18v46.72a6.18,6.18,0,0,0,6.18,6.18H64.48a6.18,6.18,0,0,0,6.18-6.18V81.66a6.18,6.18,0,0,0-6.18-6.18Z"/><path class="cls-2" d="M22,75.5A1.5,1.5,0,0,1,20.5,74V67.31a1.5,1.5,0,0,1,3,0V74A1.5,1.5,0,0,1,22,75.5Z"/><path class="cls-2" d="M64.9,75.5A1.5,1.5,0,0,1,63.4,74V67a1.5,1.5,0,0,1,3,0v7A1.5,1.5,0,0,1,64.9,75.5Z"/><path class="cls-2" d="M70.19,93.61H37.54a1.5,1.5,0,0,1,0-3H70.19a1.5,1.5,0,0,1,0,3Z"/><path class="cls-2" d="M25,93.61H14.73a1.5,1.5,0,0,1,0-3H25a1.5,1.5,0,0,1,0,3Z"/><path class="cls-2" d="M72.16,118.19H14.73a1.5,1.5,0,1,1,0-3H72.16a1.5,1.5,0,0,1,0,3Z"/><path class="cls-2" d="M151.52,48.11H86.4a6.26,6.26,0,0,1,0-12.52h65.12a6.26,6.26,0,0,1,0,12.52ZM86.4,38.59a3.26,3.26,0,0,0,0,6.52h65.12a3.26,3.26,0,0,0,0-6.52Z"/><path class="cls-2" d="M86.9,127.73a1.5,1.5,0,0,1-1.5-1.5V46.6a1.5,1.5,0,1,1,3,0v79.63A1.5,1.5,0,0,1,86.9,127.73Z"/><path class="cls-2" d="M151,127.73a1.5,1.5,0,0,1-1.5-1.5V70.47a1.5,1.5,0,0,1,3,0v55.76A1.5,1.5,0,0,1,151,127.73Z"/><path class="cls-2" d="M151,60.5a1.5,1.5,0,0,1-1.5-1.5V46.6a1.5,1.5,0,1,1,3,0V59A1.5,1.5,0,0,1,151,60.5Z"/><path class="cls-2" d="M151.52,137.57H86.4a6.26,6.26,0,0,1,0-12.52h65.12a6.26,6.26,0,0,1,0,12.52ZM86.4,128.05a3.26,3.26,0,0,0,0,6.52h65.12a3.26,3.26,0,1,0,0-6.52Z"/><path class="cls-2" d="M134,109h-30a9.24,9.24,0,0,1-9.22-9.22V73a9.24,9.24,0,0,1,9.22-9.22h30A9.24,9.24,0,0,1,143.18,73v26.7A9.24,9.24,0,0,1,134,109Zm-30-42.14A6.23,6.23,0,0,0,97.7,73v26.7a6.23,6.23,0,0,0,6.22,6.22h30a6.23,6.23,0,0,0,6.22-6.22V73A6.23,6.23,0,0,0,134,66.81Z"/></g></svg>