<svg xmlns="http://www.w3.org/2000/svg" viewBox="0 0 171 242"><defs><style>.cls-1{fill:#d8d8d8;fill-opacity:0.5;}.cls-2{isolation:isolate;}.cls-3{fill:#454f5b;}</style></defs><g id="Layer_7" data-name="Layer 7"><g id="Layer_2" data-name="Layer 2"><g id="Layer_1-2" data-name="Layer 1-2"><path class="cls-1" d="M20,0H151a20.06,20.06,0,0,1,20,20V151a20.06,20.06,0,0,1-20,20H20A20.06,20.06,0,0,1,0,151V20A20.06,20.06,0,0,1,20,0Z"/><g class="cls-2"><g class="cls-2"><path class="cls-3" d="M67.56,204v3.33H73.4v2.34H67.56v4.59H64.64v-12.6h9.53V204Z"/></g><g class="cls-2"><path class="cls-3" d="M81.78,204.46v2.59c-.23,0-.41,0-.63,0a2.37,2.37,0,0,0-2.57,2.7v4.57H75.77V204.6h2.68v1.28A3.92,3.92,0,0,1,81.78,204.46Z"/><path class="cls-3" d="M93.28,204.6v9.69H90.62v-1.15a3.94,3.94,0,0,1-3,1.29c-2.43,0-4.14-1.36-4.14-4.35V204.6h2.81v5.06c0,1.62.72,2.34,2,2.34s2.23-.83,2.23-2.61V204.6Z"/><path class="cls-3" d="M95.55,201.69a1.6,1.6,0,0,1,1.75-1.57A1.57,1.57,0,0,1,99,201.63a1.75,1.75,0,0,1-3.49.06Zm.34,2.91H98.7v9.69H95.89Z"/><path class="cls-3" d="M107.56,213.82a4,4,0,0,1-2.29.61c-2.29,0-3.62-1.17-3.62-3.47v-4h-1.49v-2.16h1.49v-2.36h2.81v2.36h2.41V207h-2.41v3.94a1.13,1.13,0,0,0,1.21,1.28,1.86,1.86,0,0,0,1.13-.36Z"/></g></g><path class="cls-3" d="M104.72,49.46l-1.37-.61-1.41-.51c0-.09.13-.4.27-.86,1.47-4.73,3.56-11.28,4.78-13.42l2.6,1.48c-.79,1.4-2.31,5.72-4.52,12.83A9.28,9.28,0,0,1,104.72,49.46Z"/><path class="cls-3" d="M101.34,58.19V48.81A13.51,13.51,0,0,1,93.4,32.6l.42-1.45,1.45.43a13.42,13.42,0,0,1,9,16.6ZM96,35.05a10.5,10.5,0,0,0,5.79,10.66A10.43,10.43,0,0,0,96,35.05Z"/><path class="cls-3" d="M133.93,111.07l-2.82-1a27.34,27.34,0,0,0-.49-19.8l2.77-1.16A30.37,30.37,0,0,1,133.93,111.07Z"/><path class="cls-3" d="M105.51,133.43c-.87,0-1.75,0-2.62-.09l.22-3a31.81,31.81,0,0,0,3.52.07l.1,3Z"/><path class="cls-3" d="M85.3,81.68l-2.6-1.5a16.28,16.28,0,0,0,2.16-8.76V70c0-13.12,7.9-22.65,18.78-22.65S122.41,56.88,122.41,70h-3c0-11.39-6.63-19.65-15.77-19.65S87.86,58.61,87.86,70v1.36A19.16,19.16,0,0,1,85.3,81.68Z"/><path class="cls-3" d="M55.7,132.5c-13.27,0-24.06-12.59-24.06-28.06S42.46,76.33,55.75,76.33a20.87,20.87,0,0,1,7.91,1.55,2.21,2.21,0,0,0,1.64,0,21.07,21.07,0,0,1,8-1.59,21.39,21.39,0,0,1,11.5,3.38,26,26,0,0,1,7.77,7.89L90,89.16a22.7,22.7,0,0,0-6.86-7,18.33,18.33,0,0,0-9.87-2.9,17.86,17.86,0,0,0-6.88,1.37,5.16,5.16,0,0,1-3.9,0,18,18,0,0,0-6.78-1.33c-11.64,0-21.11,11.26-21.11,25.11S44.09,129.5,55.7,129.5a17.86,17.86,0,0,0,6.88-1.37,5.16,5.16,0,0,1,3.9,0,19.83,19.83,0,0,0,4.09,1.13,16.16,16.16,0,0,0,2.69.2v3a19.78,19.78,0,0,1-3.16-.24,22.05,22.05,0,0,1-4.74-1.31,2.19,2.19,0,0,0-1.65,0A20.92,20.92,0,0,1,55.7,132.5Z"/><path class="cls-3" d="M96.46,111.87l-2.92-.72a27.2,27.2,0,0,0,.52-2.7,29.08,29.08,0,0,0,.26-4.07,25.72,25.72,0,0,0-.14-2.92l3-.3a28.81,28.81,0,0,1,.16,3.22,32.34,32.34,0,0,1-.29,4.49C96.85,110.05,96.67,111,96.46,111.87Z"/><path class="cls-3" d="M83.65,139.64c-7.07,0-12.82-6.64-12.82-14.81S76.58,110,83.64,110a11.42,11.42,0,0,1,4.24.82.33.33,0,0,0,.24,0,11.74,11.74,0,0,1,4.29-.84h0c7.06,0,12.8,6.64,12.8,14.8s-5.74,14.81-12.8,14.81a11.42,11.42,0,0,1-4.24-.82.36.36,0,0,0-.25,0A11.69,11.69,0,0,1,83.65,139.64Zm0-26.61c-5.41,0-9.81,5.29-9.81,11.8s4.4,11.81,9.81,11.81A8.59,8.59,0,0,0,86.8,136a3.31,3.31,0,0,1,2.51,0,8.27,8.27,0,0,0,3.11.6c5.4,0,9.8-5.3,9.8-11.81S97.83,113,92.42,113a8.81,8.81,0,0,0-3.17.62,3.28,3.28,0,0,1-2.5,0A8.47,8.47,0,0,0,83.64,113Z"/><path class="cls-3" d="M117.77,141.5c-7.07,0-12.82-6.64-12.82-14.8s5.75-14.81,12.81-14.81a11.42,11.42,0,0,1,4.24.82.33.33,0,0,0,.24,0,11.74,11.74,0,0,1,4.29-.84,11.57,11.57,0,0,1,7.07,2.45l-1.84,2.36a8.61,8.61,0,0,0-5.23-1.81,8.8,8.8,0,0,0-3.16.62,3.28,3.28,0,0,1-2.5,0,8.27,8.27,0,0,0-3.11-.6c-5.41,0-9.81,5.3-9.81,11.81s4.4,11.8,9.81,11.8a8.39,8.39,0,0,0,3.16-.62,3.28,3.28,0,0,1,2.5,0,8.36,8.36,0,0,0,3.12.6,8.14,8.14,0,0,0,2.45-.38,8.88,8.88,0,0,0,2.42-1.17,10.6,10.6,0,0,0,2.43-2.39,13.14,13.14,0,0,0,2.51-7.85,13.34,13.34,0,0,0-.8-4.65l2.82-1a16.68,16.68,0,0,1-2.1,15.29,13.74,13.74,0,0,1-3.15,3.08,11.7,11.7,0,0,1-3.24,1.57,11,11,0,0,1-3.33.52,11.24,11.24,0,0,1-4.25-.82.34.34,0,0,0-.26,0A11.56,11.56,0,0,1,117.77,141.5Z"/><path class="cls-3" d="M65.9,79.93,63,79.11c.14-.5,3.53-12.3,6-16.9l2.66,1.4C69.35,67.94,65.94,79.81,65.9,79.93Z"/><path class="cls-3" d="M65.3,79.45l-1.44-.4A15.5,15.5,0,0,1,53.37,59.78l.42-1.44,1.44.42A15.5,15.5,0,0,1,65.73,78ZM55.9,62.19a12.53,12.53,0,0,0,1.36,8,12.35,12.35,0,0,0,5.94,5.46,12.52,12.52,0,0,0-7.3-13.43Z"/><path class="cls-3" d="M135.22,91.4a24.8,24.8,0,0,1-24.57-21.92l-.18-1.63,1.49-.16A24.9,24.9,0,0,1,139.4,89.57l.17,1.49-1.49.17A25.07,25.07,0,0,1,135.22,91.4ZM113.84,70.55a21.75,21.75,0,0,0,22.35,17.82A21.89,21.89,0,0,0,113.84,70.55Z"/><path class="cls-3" d="M121.35,114.45,111.26,72A77.07,77.07,0,0,0,92.58,98.76a53.24,53.24,0,0,0-3.79,13.63l-3-.26c.08-1,2.28-23.66,25.33-44L113,66.43l11.26,47.32Z"/><path class="cls-3" d="M96.59,126.07h0a2.94,2.94,0,1,1,2.08-.86A2.95,2.95,0,0,1,96.59,126.07Z"/><path class="cls-3" d="M91.18,133.56l-.91-2.86a7.54,7.54,0,0,0,4.44-3.79l2.68,1.34A10.53,10.53,0,0,1,91.18,133.56Z"/><path class="cls-3" d="M126.67,136.53l-.91-2.86a7.55,7.55,0,0,0,4.43-3.79l2.68,1.34A10.58,10.58,0,0,1,126.67,136.53Z"/></g></g></g></svg>