<svg xmlns="http://www.w3.org/2000/svg" viewBox="0 0 171 242"><defs><style>.cls-1{fill:#d8d8d8;fill-opacity:0.5;}.cls-2{isolation:isolate;}.cls-3{fill:#454f5b;}</style></defs><g id="Layer_18" data-name="Layer 18"><g id="Layer_2" data-name="Layer 2"><g id="Layer_1-2" data-name="Layer 1-2"><path class="cls-1" d="M20,0H151a20.06,20.06,0,0,1,20,20V151a20.06,20.06,0,0,1-20,20H20A20.06,20.06,0,0,1,0,151V20A20.06,20.06,0,0,1,20,0Z"/><g class="cls-2"><g class="cls-2"><path class="cls-3" d="M67,191.69v12.6H64.08v-5.17H58.35v5.17H55.43v-12.6h2.92v5h5.73v-5Z"/></g><g class="cls-2"><path class="cls-3" d="M79.21,200.24H71.88a2.58,2.58,0,0,0,2.78,1.94,3.29,3.29,0,0,0,2.43-.93l1.49,1.62a5.09,5.09,0,0,1-4,1.56c-3.35,0-5.52-2.1-5.52-5a4.93,4.93,0,0,1,5.16-5,4.79,4.79,0,0,1,5,5C79.26,199.7,79.23,200,79.21,200.24Zm-7.36-1.64h4.77a2.31,2.31,0,0,0-2.38-2A2.29,2.29,0,0,0,71.85,198.6Z"/></g><g class="cls-2"><path class="cls-3" d="M89.44,198.76v5.53H86.81v-1.21a3.16,3.16,0,0,1-3,1.35c-2.27,0-3.62-1.26-3.62-2.93s1.2-2.9,4.16-2.9h2.23c0-1.21-.72-1.91-2.23-1.91a4.68,4.68,0,0,0-2.8.9l-1-2a7.41,7.41,0,0,1,4.17-1.17C87.73,194.46,89.44,195.83,89.44,198.76Zm-2.81,2.47v-1H84.7c-1.31,0-1.73.48-1.73,1.13s.6,1.17,1.59,1.17A2.08,2.08,0,0,0,86.63,201.23Z"/></g><g class="cls-2"><path class="cls-3" d="M92,190.93h2.81v13.36H92Z"/></g><g class="cls-2"><path class="cls-3" d="M104.34,203.82a3.94,3.94,0,0,1-2.28.61c-2.29,0-3.62-1.17-3.62-3.47v-4h-1.5v-2.16h1.5v-2.36h2.81v2.36h2.41V197h-2.41v3.94a1.13,1.13,0,0,0,1.2,1.28,1.87,1.87,0,0,0,1.14-.36Z"/><path class="cls-3" d="M115.83,198.74v5.55H113v-5.11c0-1.57-.72-2.29-2-2.29s-2.32.83-2.32,2.61v4.79h-2.81V190.93h2.81v4.68a4.25,4.25,0,0,1,3.07-1.15C114.1,194.46,115.83,195.79,115.83,198.74Z"/></g><g class="cls-2"><path class="cls-3" d="M42,226.09l-1.74-1.8A5.6,5.6,0,0,1,36.08,226c-2.46,0-4.23-1.3-4.23-3.21,0-1.49.87-2.59,3.17-3.92-1.22-1.26-1.58-2-1.58-3,0-1.6,1.24-2.68,3.18-2.68s2.94.93,2.94,2.5c0,1.26-.76,2.14-2.81,3.33l3.46,3.56a8,8,0,0,0,.84-2.43l1.05.33a8.74,8.74,0,0,1-1.12,2.9l1.8,1.85Zm-2.5-2.58-3.8-3.9c-2,1.15-2.63,1.94-2.63,3.06,0,1.37,1.23,2.27,3,2.27A4.36,4.36,0,0,0,39.54,223.51Zm-4.91-7.65c0,.74.27,1.26,1.42,2.43,1.82-1,2.41-1.67,2.41-2.57s-.67-1.57-1.84-1.57S34.63,214.85,34.63,215.86Z"/><path class="cls-3" d="M59.65,217.61c0,2.68-1.95,4.3-5.15,4.3H51.11v4H49.78v-12.6H54.5C57.7,213.29,59.65,214.91,59.65,217.61Zm-1.34,0c0-2-1.33-3.17-3.85-3.17H51.11v6.3h3.35C57,220.74,58.31,219.59,58.31,217.61Z"/><path class="cls-3" d="M71.15,220.4v5.49H69.87v-5.37c0-2-1-3-2.84-3a3.11,3.11,0,0,0-3.32,3.42v5H62.43V212.53h1.28v5.55a4,4,0,0,1,3.55-1.73C69.56,216.35,71.15,217.68,71.15,220.4Z"/><path class="cls-3" d="M81.77,220v5.87H80.54v-1.48A3.53,3.53,0,0,1,77.28,226c-2.14,0-3.45-1.12-3.45-2.76,0-1.45.93-2.68,3.65-2.68h3V220c0-1.62-.92-2.51-2.68-2.51a4.83,4.83,0,0,0-3.15,1.12l-.58-1a6.06,6.06,0,0,1,3.85-1.27C80.38,216.35,81.77,217.57,81.77,220Zm-1.28,3V221.5h-3c-1.84,0-2.43.72-2.43,1.69S76,225,77.48,225A3,3,0,0,0,80.49,223Z"/></g><g class="cls-2"><path class="cls-3" d="M90,216.35v1.24l-.3,0c-2,0-3.19,1.26-3.19,3.49v4.83H85.24v-9.47h1.23v1.85A3.56,3.56,0,0,1,90,216.35Z"/></g><g class="cls-2"><path class="cls-3" d="M107.94,220.4v5.49h-1.28v-5.37c0-2-1-3-2.72-3-1.94,0-3.17,1.26-3.17,3.42v5H99.5v-5.37c0-2-1-3-2.74-3-1.93,0-3.17,1.26-3.17,3.42v5H92.31v-9.47h1.23v1.73a3.81,3.81,0,0,1,3.47-1.8,3.4,3.4,0,0,1,3.37,2,4.1,4.1,0,0,1,3.74-2C106.43,216.35,107.94,217.68,107.94,220.4Z"/></g><g class="cls-2"><path class="cls-3" d="M118.56,220v5.87h-1.22v-1.48a3.56,3.56,0,0,1-3.26,1.57c-2.15,0-3.46-1.12-3.46-2.76,0-1.45.94-2.68,3.66-2.68h3V220c0-1.62-.92-2.51-2.68-2.51a4.85,4.85,0,0,0-3.15,1.12l-.58-1a6.09,6.09,0,0,1,3.86-1.27C117.17,216.35,118.56,217.57,118.56,220Zm-1.28,3V221.5h-3c-1.84,0-2.43.72-2.43,1.69s.88,1.78,2.4,1.78A3,3,0,0,0,117.28,223Z"/></g><g class="cls-2"><path class="cls-3" d="M121.12,221.15a4.66,4.66,0,0,1,4.88-4.8,4.15,4.15,0,0,1,3.71,1.87l-1,.65a3.2,3.2,0,0,0-2.75-1.41,3.7,3.7,0,0,0,0,7.39,3.21,3.21,0,0,0,2.75-1.39l1,.65A4.19,4.19,0,0,1,126,226,4.68,4.68,0,0,1,121.12,221.15Z"/></g><g class="cls-2"><path class="cls-3" d="M140,216.42,135.29,227c-.8,1.86-1.81,2.45-3.16,2.45a3.26,3.26,0,0,1-2.3-.86l.59-1a2.37,2.37,0,0,0,1.73.72c.85,0,1.42-.39,2-1.58l.42-.92-4.23-9.45h1.33l3.57,8.05,3.56-8.05Z"/></g></g><path class="cls-3" d="M110.54,135.55a1.56,1.56,0,0,1-.82-.24,1.51,1.51,0,0,1-.44-2.08l4-6.16a1.5,1.5,0,0,1,2.52,1.64l-4,6.16A1.51,1.51,0,0,1,110.54,135.55Z"/><path class="cls-3" d="M66,57.91H42.17a6.51,6.51,0,0,1-6.5-6.5V39a6.51,6.51,0,0,1,6.5-6.5H66A6.51,6.51,0,0,1,72.5,39V51.45A6.52,6.52,0,0,1,66,57.91ZM42.17,35.5a3.5,3.5,0,0,0-3.5,3.5V51.41a3.5,3.5,0,0,0,3.5,3.5H66a3.52,3.52,0,0,0,3.5-3.47V39A3.5,3.5,0,0,0,66,35.5Z"/><path class="cls-3" d="M66.42,137.36H41.76a14.21,14.21,0,0,1-14.19-14.19V74A14.09,14.09,0,0,1,39.71,59.94V56.41a1.5,1.5,0,0,1,3,0V61.3a1.49,1.49,0,0,1-1.38,1.49l-.63.06A11.1,11.1,0,0,0,30.57,74v49.17a11.2,11.2,0,0,0,11.19,11.19H66.42A11.21,11.21,0,0,0,77.6,123.17V88.58a1.5,1.5,0,0,1,3,0v34.59A14.21,14.21,0,0,1,66.42,137.36Z"/><path class="cls-3" d="M79.1,83.05a1.5,1.5,0,0,1-1.5-1.5V73.94a11.11,11.11,0,0,0-10-11.14H67a1.5,1.5,0,0,1-1.5-1.5V56.41a1.5,1.5,0,0,1,3,0v3.48a14.1,14.1,0,0,1,12.1,14v7.61A1.5,1.5,0,0,1,79.1,83.05Z"/><path class="cls-3" d="M79.07,79.7h-50a1.5,1.5,0,0,1,0-3h50a1.5,1.5,0,0,1,0,3Z"/><path class="cls-3" d="M79.07,119.59h-50a1.5,1.5,0,1,1,0-3h50a1.5,1.5,0,0,1,0,3Z"/><path class="cls-3" d="M40.47,37.73v11.4a1.64,1.64,0,1,0,3.28,0v-.48a1.64,1.64,0,1,0-3.28,0v3.42a1.64,1.64,0,1,0,3.28,0V48.65a1.64,1.64,0,1,0-3.28,0v.48a1.64,1.64,0,1,0,3.28,0V37.73a1.64,1.64,0,0,0-3.28,0Z"/><path class="cls-3" d="M46.38,37.73v11.4a1.65,1.65,0,0,0,3.29,0v-.48a1.65,1.65,0,0,0-3.29,0v3.42a1.65,1.65,0,0,0,3.29,0V48.65a1.65,1.65,0,0,0-3.29,0v.48a1.65,1.65,0,0,0,3.29,0V37.73a1.65,1.65,0,0,0-3.29,0Z"/><path class="cls-3" d="M52.33,37.45V48.86a1.65,1.65,0,0,0,3.29,0v-.48a1.65,1.65,0,0,0-3.29,0v3.41a1.65,1.65,0,0,0,3.29,0V48.38a1.65,1.65,0,0,0-3.29,0v.48a1.65,1.65,0,0,0,3.29,0V37.45a1.65,1.65,0,0,0-3.29,0Z"/><path class="cls-3" d="M58.25,37.45V48.86a1.64,1.64,0,0,0,3.28,0v-.48H58.25v3.41a1.64,1.64,0,1,0,3.28,0V48.38a1.64,1.64,0,0,0-3.28,0v.48a1.64,1.64,0,0,0,3.28,0V37.45a1.64,1.64,0,0,0-3.28,0Z"/><path class="cls-3" d="M64.16,37.73v11.4a1.65,1.65,0,0,0,3.29,0v-.48H64.16v3.42a1.65,1.65,0,0,0,3.29,0V48.65a1.65,1.65,0,0,0-3.29,0v.48a1.65,1.65,0,0,0,3.29,0V37.73a1.65,1.65,0,0,0-3.29,0Z"/><path class="cls-3" d="M58,87.4V86.3H50.18v7.15H43v7.83h7.15v7.15H58v-7.15h7.15V93.45H58Zm-9.86,5.12h1.1V87.4a2,2,0,0,1,2-2h5.64a2,2,0,0,1,2,2v5.12H64a2,2,0,0,1,2,2h0v5.63a2,2,0,0,1-2,2H58.94v5.11a2,2,0,0,1-2,2H51.27a2,2,0,0,1-2-2v-5.11H44.12a2,2,0,0,1-2-2v-5.6a2,2,0,0,1,2-2Z"/><path class="cls-3" d="M56.94,110.26H51.27a3,3,0,0,1-2.07-.83l-.05-.05a3,3,0,0,1-.88-2.12v-4.11H44.12a3,3,0,0,1-2.11-.87h0a3,3,0,0,1-.88-2.12v-5.6a3,3,0,0,1,3-3l4.12,0V87.4a3,3,0,0,1,3-3h5.64a3,3,0,0,1,3,3v4.12H64a3,3,0,0,1,3,3v5.63a3,3,0,0,1-.85,2.09l0,0a3,3,0,0,1-2.11.87H59.94v4.11A3,3,0,0,1,56.94,110.26Zm-5.79-2.83H57v-7.15h7.15V94.45H57V87.3H51.18v7.15H44v5.83h7.15Z"/><path class="cls-3" d="M103.6,105.12a9.5,9.5,0,0,1-2.13-18.76,9.56,9.56,0,0,1,1.85-.24l24-3h.15a9.5,9.5,0,0,1,2.38,18.75l-.15,0-24,3A9.84,9.84,0,0,1,103.6,105.12Zm24-19-24,3h-.15a6.51,6.51,0,0,0-3.29,12,6.52,6.52,0,0,0,4.91.81l.15,0,24-3a6.5,6.5,0,0,0-1.62-12.81Zm1.89,14.29h0Z"/><path class="cls-3" d="M117.49,103.41A1.5,1.5,0,0,1,116,102.1l-1.37-10.84a1.5,1.5,0,1,1,3-.38L119,101.72a1.51,1.51,0,0,1-1.3,1.68Z"/><path class="cls-3" d="M116.51,137.31a12.41,12.41,0,1,1,12.41-12.41A12.43,12.43,0,0,1,116.51,137.31Zm0-21.82a9.41,9.41,0,1,0,9.41,9.41A9.42,9.42,0,0,0,116.51,115.49Z"/><path class="cls-3" d="M119.36,122.17a1.42,1.42,0,0,1-.79-.23,1.49,1.49,0,0,1-.48-2.06l3.07-4.92a1.5,1.5,0,0,1,2.54,1.58l-3.07,4.92A1.48,1.48,0,0,1,119.36,122.17Z"/></g></g></g></svg>