<svg xmlns="http://www.w3.org/2000/svg" viewBox="0 0 171 242"><defs><style>.cls-1{fill:#d8d8d8;fill-opacity:0.5;}.cls-2{isolation:isolate;}.cls-3{fill:#454f5b;}</style></defs><g id="Layer_19" data-name="Layer 19"><g id="Layer_2" data-name="Layer 2"><g id="Layer_1-2" data-name="Layer 1-2"><path class="cls-1" d="M20,0H151a20.06,20.06,0,0,1,20,20V151a20.06,20.06,0,0,1-20,20H20A20.06,20.06,0,0,1,0,151V20A20.06,20.06,0,0,1,20,0Z"/><g class="cls-2"><g class="cls-2"><path class="cls-3" d="M47.64,191.69v12.6H44.73v-5.17H39v5.17H36.08v-12.6H39v5h5.73v-5Z"/><path class="cls-3" d="M49.71,199.45a5,5,0,0,1,5.33-5,5,5,0,1,1,0,10C52,204.43,49.71,202.36,49.71,199.45Zm7.8,0A2.49,2.49,0,1,0,55,202.13,2.45,2.45,0,0,0,57.51,199.45Z"/><path class="cls-3" d="M72,194.6v9.69H69.31v-1.15a3.91,3.91,0,0,1-3,1.29c-2.43,0-4.14-1.36-4.14-4.35V194.6H65v5.06c0,1.62.72,2.34,2,2.34s2.23-.83,2.23-2.61V194.6Z"/><path class="cls-3" d="M73.65,203.39l.94-2a6.57,6.57,0,0,0,3.36.94c1.3,0,1.79-.34,1.79-.88,0-1.59-5.86,0-5.86-3.84,0-1.83,1.66-3.13,4.49-3.13a7.92,7.92,0,0,1,3.72.85l-.93,2a5.58,5.58,0,0,0-2.79-.72c-1.26,0-1.8.4-1.8.9,0,1.66,5.85.06,5.85,3.88,0,1.8-1.68,3.07-4.58,3.07A8.36,8.36,0,0,1,73.65,203.39Z"/><path class="cls-3" d="M93.58,200.24H86.25A2.58,2.58,0,0,0,89,202.18a3.26,3.26,0,0,0,2.43-.93l1.5,1.62a5.09,5.09,0,0,1-4,1.56c-3.35,0-5.53-2.1-5.53-5a4.94,4.94,0,0,1,5.17-5,4.79,4.79,0,0,1,5,5C93.63,199.7,93.6,200,93.58,200.24Zm-7.36-1.64H91a2.31,2.31,0,0,0-2.38-2A2.29,2.29,0,0,0,86.22,198.6Z"/></g><g class="cls-2"><path class="cls-3" d="M105.41,198.74v5.55H102.6v-5.11c0-1.57-.72-2.29-2-2.29s-2.32.83-2.32,2.61v4.79H95.51V190.93h2.81v4.68a4.25,4.25,0,0,1,3.07-1.15C103.68,194.46,105.41,195.79,105.41,198.74Z"/></g><g class="cls-2"><path class="cls-3" d="M107.33,199.45a5.33,5.33,0,1,1,5.33,5C109.58,204.43,107.33,202.36,107.33,199.45Zm7.79,0a2.48,2.48,0,1,0-2.46,2.68A2.45,2.45,0,0,0,115.12,199.45Z"/><path class="cls-3" d="M119.84,190.93h2.81v13.36h-2.81Z"/><path class="cls-3" d="M135.12,190.93v13.36h-2.68v-1.12a3.72,3.72,0,0,1-3,1.26,5,5,0,0,1,0-10,3.73,3.73,0,0,1,2.9,1.17v-4.7Zm-2.75,8.52a2.48,2.48,0,1,0-2.47,2.68A2.46,2.46,0,0,0,132.37,199.45Z"/></g><g class="cls-2"><path class="cls-3" d="M47.89,226.09l-1.74-1.8A5.6,5.6,0,0,1,41.93,226c-2.46,0-4.23-1.3-4.23-3.21,0-1.49.87-2.59,3.17-3.92-1.22-1.26-1.58-2-1.58-3,0-1.6,1.24-2.68,3.18-2.68s2.94.93,2.94,2.5c0,1.26-.76,2.14-2.81,3.33l3.46,3.56a8,8,0,0,0,.84-2.43l1.05.33a8.74,8.74,0,0,1-1.12,2.9l1.8,1.85Zm-2.5-2.58-3.8-3.9c-2,1.15-2.63,1.94-2.63,3.06,0,1.37,1.23,2.27,3,2.27A4.36,4.36,0,0,0,45.39,223.51Zm-4.91-7.65c0,.74.27,1.26,1.42,2.43,1.82-1,2.41-1.67,2.41-2.57s-.67-1.57-1.84-1.57S40.48,214.85,40.48,215.86Z"/><path class="cls-3" d="M54.51,219.59a6.33,6.33,0,0,1,6.61-6.41A6.1,6.1,0,0,1,65.73,215l-.84.85a5,5,0,0,0-3.73-1.49,5.22,5.22,0,1,0,0,10.44,5,5,0,0,0,3.73-1.51l.84.84A6.1,6.1,0,0,1,61.1,226,6.32,6.32,0,0,1,54.51,219.59Z"/><path class="cls-3" d="M68.3,212.53h1.28v13.36H68.3Z"/></g><g class="cls-2"><path class="cls-3" d="M81.39,221.55H73.47a3.5,3.5,0,0,0,3.72,3.3,3.72,3.72,0,0,0,2.9-1.25l.72.83a5,5,0,0,1-8.62-3.28,4.56,4.56,0,0,1,4.63-4.8,4.51,4.51,0,0,1,4.59,4.8C81.41,221.26,81.39,221.41,81.39,221.55Zm-7.92-1h6.71a3.36,3.36,0,0,0-6.71,0Z"/></g><g class="cls-2"><path class="cls-3" d="M90.9,220v5.87H89.68v-1.48A3.56,3.56,0,0,1,86.42,226c-2.15,0-3.46-1.12-3.46-2.76,0-1.45.94-2.68,3.66-2.68h3V220c0-1.62-.92-2.51-2.68-2.51a4.85,4.85,0,0,0-3.15,1.12l-.58-1a6.09,6.09,0,0,1,3.86-1.27C89.51,216.35,90.9,217.57,90.9,220Zm-1.28,3V221.5h-3c-1.84,0-2.43.72-2.43,1.69s.88,1.78,2.4,1.78A3,3,0,0,0,89.62,223Z"/><path class="cls-3" d="M103.09,220.4v5.49h-1.28v-5.37c0-2-1-3-2.85-3a3.1,3.1,0,0,0-3.31,3.42v5H94.37v-9.47H95.6v1.75a4,4,0,0,1,3.6-1.82C101.5,216.35,103.09,217.68,103.09,220.4Z"/><path class="cls-3" d="M106.27,213.43a.92.92,0,0,1,.94-.9.91.91,0,0,1,.93.88.92.92,0,0,1-.93.94A.93.93,0,0,1,106.27,213.43Zm.29,3h1.28v9.47h-1.28Z"/></g><g class="cls-2"><path class="cls-3" d="M120.11,220.4v5.49h-1.28v-5.37c0-2-1-3-2.85-3a3.1,3.1,0,0,0-3.31,3.42v5h-1.28v-9.47h1.23v1.75a4,4,0,0,1,3.6-1.82C118.52,216.35,120.11,217.68,120.11,220.4Z"/></g><g class="cls-2"><path class="cls-3" d="M132.39,216.42v8.32c0,3.26-1.6,4.73-4.73,4.73a6.61,6.61,0,0,1-4.42-1.46l.65-1a5.64,5.64,0,0,0,3.73,1.3c2.39,0,3.49-1.1,3.49-3.44v-1.21a4.25,4.25,0,0,1-3.69,1.84,4.59,4.59,0,1,1,0-9.18,4.29,4.29,0,0,1,3.75,1.89v-1.82Zm-1.24,4.5a3.6,3.6,0,1,0-3.6,3.48A3.39,3.39,0,0,0,131.15,220.92Z"/></g></g><path class="cls-3" d="M40.52,139a5,5,0,0,1-4.6-3.43,65.32,65.32,0,0,1-4.56-24.69C31.36,97,35.3,84,42,75.62c-3.36-2.54-5.19-5.8-5.19-9.3,0-8,9.65-14.33,22-14.33s22,6.32,22,14.39c0,3.45-1.83,6.7-5.2,9.29C82.14,84,86.1,97,86.15,110.85a65.56,65.56,0,0,1-4.58,24.76A5,5,0,0,1,77.08,139Zm18.2-84c-10.45,0-19,5.08-19,11.33,0,2.89,1.84,5.64,5.19,7.73a1.47,1.47,0,0,1,.69,1,1.45,1.45,0,0,1-.36,1.21C38.44,84.06,34.36,97,34.36,110.86a62.31,62.31,0,0,0,4.38,23.65A2.05,2.05,0,0,0,40.59,136H77a2,2,0,0,0,1.75-1.39,62.53,62.53,0,0,0,4.4-23.71C83.1,97,79,84.11,72.18,76.37a1.48,1.48,0,0,1,.31-2.25c3.36-2.15,5.21-4.9,5.21-7.74C77.7,60.1,69.19,55,58.72,55Z"/><path class="cls-3" d="M67,66.5H38.87a1.5,1.5,0,0,1,0-3H67a1.5,1.5,0,0,1,0,3Z"/><path class="cls-3" d="M78.18,66.5H74.27a1.5,1.5,0,1,1,0-3h3.91a1.5,1.5,0,0,1,0,3Z"/><path class="cls-3" d="M66.72,48.71h-16a4,4,0,0,1-3.95-4V43.07a4,4,0,0,1,3.95-4h16a4,4,0,0,1,4,4v1.69A4,4,0,0,1,66.72,48.71Zm-16-6.59a1,1,0,0,0-.95,1v1.69a1,1,0,0,0,.95,1h16a1,1,0,0,0,1-1V43.07a1,1,0,0,0-1-1Z"/><path class="cls-3" d="M53.58,54.94a1.5,1.5,0,0,1-1.44-1.09l-1.78-6.23a1.5,1.5,0,1,1,2.88-.82L55,53a1.49,1.49,0,0,1-1,1.85A1.45,1.45,0,0,1,53.58,54.94Z"/><path class="cls-3" d="M63.87,54.94a1.45,1.45,0,0,1-.41-.06,1.49,1.49,0,0,1-1-1.85l1.78-6.23a1.5,1.5,0,0,1,2.88.82l-1.78,6.23A1.5,1.5,0,0,1,63.87,54.94Z"/><path class="cls-3" d="M54.61,40.73h-.07a1.51,1.51,0,0,1-1.43-1.57,5.63,5.63,0,0,1,11.25,0,1.5,1.5,0,1,1-3,.14,2.63,2.63,0,0,0-5.25,0A1.5,1.5,0,0,1,54.61,40.73Z"/><path class="cls-3" d="M128.8,139.09H100a6.66,6.66,0,0,1-6.65-6.61V78.08a4.18,4.18,0,0,1,1.25-3l9.21-9.16a1.5,1.5,0,0,1,1.06-.44h13.54a1.51,1.51,0,0,1,1.21.61l15,20.43a4.2,4.2,0,0,1,.82,2.49v43.44A6.65,6.65,0,0,1,128.8,139.09ZM105.49,68.5l-8.78,8.73a1.21,1.21,0,0,0-.36.85v54.39a3.66,3.66,0,0,0,3.65,3.62h28.8a3.65,3.65,0,0,0,3.64-3.63V89a1.23,1.23,0,0,0-.23-.71L117.65,68.5Z"/><path class="cls-3" d="M117.64,68.5a1.5,1.5,0,0,1-1.5-1.5V56.39a1.5,1.5,0,0,1,3,0V67A1.5,1.5,0,0,1,117.64,68.5Z"/><path class="cls-3" d="M105.26,68.5a1.5,1.5,0,0,1-1.5-1.5V56.39a1.5,1.5,0,0,1,3,0V67A1.5,1.5,0,0,1,105.26,68.5Z"/><path class="cls-3" d="M136.24,50.72h-6.09a1.5,1.5,0,0,1,0-3h6.09a.4.4,0,0,0,.4-.4V42.84a.4.4,0,0,0-.4-.4h-6.09a1.5,1.5,0,0,1,0-3h6.09a3.41,3.41,0,0,1,3.4,3.4v4.48A3.41,3.41,0,0,1,136.24,50.72Z"/><path class="cls-3" d="M120.81,57H96.67a1.5,1.5,0,0,1-1.5-1.5h0a16.09,16.09,0,0,1,16.07-16h18.81a1.5,1.5,0,0,1,1.5,1.5v8.14a1.5,1.5,0,0,1-.64,1.23l-9.24,6.41A1.49,1.49,0,0,1,120.81,57ZM98.26,54h22.08l8.21-5.7V42.44H111.24A13.08,13.08,0,0,0,98.26,54Z"/><path class="cls-3" d="M132.91,64.2a1.53,1.53,0,0,1-1.06-.44l-9.25-9.2a1.5,1.5,0,0,1,2.12-2.12l9.25,9.2a1.5,1.5,0,0,1-1.06,2.56Z"/><path class="cls-3" d="M58.72,120.82c-7.88,0-14.29-8.33-14.29-18.56s6.41-18.57,14.29-18.57S73,92,73,102.26,66.6,120.82,58.72,120.82Zm0-34.13c-6.23,0-11.29,7-11.29,15.57s5.06,15.56,11.29,15.56,11.3-7,11.3-15.56S65,86.69,58.72,86.69Z"/><path class="cls-3" d="M125.13,100.24H94.85a1.5,1.5,0,0,1,0-3h30.28a1.5,1.5,0,0,1,0,3Z"/><path class="cls-3" d="M133.94,120.82H96.67a1.5,1.5,0,0,1,0-3h37.27a1.5,1.5,0,0,1,0,3Z"/><path class="cls-3" d="M40.52,139a5,5,0,0,1-4.6-3.43,65.32,65.32,0,0,1-4.56-24.69C31.36,97,35.3,84,42,75.62c-3.36-2.54-5.19-5.8-5.19-9.3,0-8,9.65-14.33,22-14.33s22,6.32,22,14.39c0,3.45-1.83,6.7-5.2,9.29C82.14,84,86.1,97,86.15,110.85a65.56,65.56,0,0,1-4.58,24.76A5,5,0,0,1,77.08,139Zm18.2-84c-10.45,0-19,5.08-19,11.33,0,2.89,1.84,5.64,5.19,7.73a1.47,1.47,0,0,1,.69,1,1.45,1.45,0,0,1-.36,1.21C38.44,84.06,34.36,97,34.36,110.86a62.31,62.31,0,0,0,4.38,23.65A2.05,2.05,0,0,0,40.59,136H77a2,2,0,0,0,1.75-1.39,62.53,62.53,0,0,0,4.4-23.71C83.1,97,79,84.11,72.18,76.37a1.48,1.48,0,0,1,.31-2.25c3.36-2.15,5.21-4.9,5.21-7.74C77.7,60.1,69.19,55,58.72,55Z"/><path class="cls-3" d="M67,66.5H38.87a1.5,1.5,0,0,1,0-3H67a1.5,1.5,0,0,1,0,3Z"/><path class="cls-3" d="M78.18,66.5H74.27a1.5,1.5,0,1,1,0-3h3.91a1.5,1.5,0,0,1,0,3Z"/><path class="cls-3" d="M66.72,48.71h-16a4,4,0,0,1-3.95-4V43.07a4,4,0,0,1,3.95-4h16a4,4,0,0,1,4,4v1.69A4,4,0,0,1,66.72,48.71Zm-16-6.59a1,1,0,0,0-.95,1v1.69a1,1,0,0,0,.95,1h16a1,1,0,0,0,1-1V43.07a1,1,0,0,0-1-1Z"/><path class="cls-3" d="M53.58,54.94a1.5,1.5,0,0,1-1.44-1.09l-1.78-6.23a1.5,1.5,0,1,1,2.88-.82L55,53a1.49,1.49,0,0,1-1,1.85A1.45,1.45,0,0,1,53.58,54.94Z"/><path class="cls-3" d="M63.87,54.94a1.45,1.45,0,0,1-.41-.06,1.49,1.49,0,0,1-1-1.85l1.78-6.23a1.5,1.5,0,0,1,2.88.82l-1.78,6.23A1.5,1.5,0,0,1,63.87,54.94Z"/><path class="cls-3" d="M54.61,40.73h-.07a1.51,1.51,0,0,1-1.43-1.57,5.63,5.63,0,0,1,11.25,0,1.5,1.5,0,1,1-3,.14,2.63,2.63,0,0,0-5.25,0A1.5,1.5,0,0,1,54.61,40.73Z"/><path class="cls-3" d="M128.8,139.09H100a6.66,6.66,0,0,1-6.65-6.61V78.08a4.18,4.18,0,0,1,1.25-3l9.21-9.16a1.5,1.5,0,0,1,1.06-.44h13.54a1.51,1.51,0,0,1,1.21.61l15,20.43a4.2,4.2,0,0,1,.82,2.49v43.44A6.65,6.65,0,0,1,128.8,139.09ZM105.49,68.5l-8.78,8.73a1.21,1.21,0,0,0-.36.85v54.39a3.66,3.66,0,0,0,3.65,3.62h28.8a3.65,3.65,0,0,0,3.64-3.63V89a1.23,1.23,0,0,0-.23-.71L117.65,68.5Z"/><path class="cls-3" d="M117.64,68.5a1.5,1.5,0,0,1-1.5-1.5V56.39a1.5,1.5,0,0,1,3,0V67A1.5,1.5,0,0,1,117.64,68.5Z"/><path class="cls-3" d="M105.26,68.5a1.5,1.5,0,0,1-1.5-1.5V56.39a1.5,1.5,0,0,1,3,0V67A1.5,1.5,0,0,1,105.26,68.5Z"/><path class="cls-3" d="M136.24,50.72h-6.09a1.5,1.5,0,0,1,0-3h6.09a.4.4,0,0,0,.4-.4V42.84a.4.4,0,0,0-.4-.4h-6.09a1.5,1.5,0,0,1,0-3h6.09a3.41,3.41,0,0,1,3.4,3.4v4.48A3.41,3.41,0,0,1,136.24,50.72Z"/><path class="cls-3" d="M120.81,57H96.67a1.5,1.5,0,0,1-1.5-1.5h0a16.09,16.09,0,0,1,16.07-16h18.81a1.5,1.5,0,0,1,1.5,1.5v8.14a1.5,1.5,0,0,1-.64,1.23l-9.24,6.41A1.49,1.49,0,0,1,120.81,57ZM98.26,54h22.08l8.21-5.7V42.44H111.24A13.08,13.08,0,0,0,98.26,54Z"/><path class="cls-3" d="M132.91,64.2a1.53,1.53,0,0,1-1.06-.44l-9.25-9.2a1.5,1.5,0,0,1,2.12-2.12l9.25,9.2a1.5,1.5,0,0,1-1.06,2.56Z"/><path class="cls-3" d="M58.72,120.82c-7.88,0-14.29-8.33-14.29-18.56s6.41-18.57,14.29-18.57S73,92,73,102.26,66.6,120.82,58.72,120.82Zm0-34.13c-6.23,0-11.29,7-11.29,15.57s5.06,15.56,11.29,15.56,11.3-7,11.3-15.56S65,86.69,58.72,86.69Z"/><path class="cls-3" d="M125.13,100.24H94.85a1.5,1.5,0,0,1,0-3h30.28a1.5,1.5,0,0,1,0,3Z"/><path class="cls-3" d="M133.94,120.82H96.67a1.5,1.5,0,0,1,0-3h37.27a1.5,1.5,0,0,1,0,3Z"/></g></g></g></svg>