<svg xmlns="http://www.w3.org/2000/svg" viewBox="0 0 171 242"><defs><style>.cls-1{fill:#d8d8d8;fill-opacity:0.5;}.cls-2{isolation:isolate;}.cls-3{fill:#454f5b;}</style></defs><g id="Layer_9" data-name="Layer 9"><g id="Layer_2" data-name="Layer 2"><g id="Layer_1-2" data-name="Layer 1-2"><path class="cls-1" d="M20,0H151a20.06,20.06,0,0,1,20,20V151a20.06,20.06,0,0,1-20,20H20A20.06,20.06,0,0,1,0,151V20A20.06,20.06,0,0,1,20,0Z"/><g class="cls-2"><g class="cls-2"><path class="cls-3" d="M72.41,193.29v-7.56L68.69,192H67.37l-3.69-6.07v7.4H60.94v-12.6h2.42l4.71,7.83,4.65-7.83h2.39l0,12.6Z"/></g><g class="cls-2"><path class="cls-3" d="M87.37,189.24H80a2.58,2.58,0,0,0,2.78,1.94,3.29,3.29,0,0,0,2.43-.93l1.49,1.62a5.09,5.09,0,0,1-4,1.56c-3.35,0-5.52-2.1-5.52-5a4.93,4.93,0,0,1,5.16-5,4.8,4.8,0,0,1,5.05,5C87.43,188.7,87.39,189,87.37,189.24ZM80,187.6h4.77a2.31,2.31,0,0,0-2.38-2A2.29,2.29,0,0,0,80,187.6Z"/></g><g class="cls-2"><path class="cls-3" d="M97.6,187.76v5.53H95v-1.21a3.17,3.17,0,0,1-3,1.35c-2.26,0-3.61-1.26-3.61-2.93s1.2-2.9,4.15-2.9h2.24c0-1.21-.72-1.91-2.24-1.91a4.67,4.67,0,0,0-2.79.9l-1-2a7.41,7.41,0,0,1,4.17-1.17C95.89,183.46,97.6,184.83,97.6,187.76Zm-2.81,2.47v-1H92.86c-1.31,0-1.73.48-1.73,1.13s.6,1.17,1.59,1.17A2.08,2.08,0,0,0,94.79,190.23Z"/></g><g class="cls-2"><path class="cls-3" d="M106.37,192.82a3.94,3.94,0,0,1-2.28.61c-2.29,0-3.62-1.17-3.62-3.47v-4H99v-2.16h1.5v-2.36h2.81v2.36h2.41V186h-2.41v3.94a1.13,1.13,0,0,0,1.2,1.28,1.87,1.87,0,0,0,1.14-.36Z"/></g><g class="cls-2"><path class="cls-3" d="M111,191.67a4.26,4.26,0,0,1-.49,1.8l-1,2.59h-1.78l.79-2.86a1.56,1.56,0,0,1-1-1.53,1.74,1.74,0,0,1,3.48,0Z"/></g><g class="cls-2"><path class="cls-3" d="M53.93,206.61c0,2.68-1.94,4.3-5.15,4.3H45.39v4H44.06v-12.6h4.72C52,202.29,53.93,203.91,53.93,206.61Zm-1.33,0c0-2-1.34-3.17-3.86-3.17H45.39v6.3h3.35C51.26,209.74,52.6,208.59,52.6,206.61Z"/></g><g class="cls-2"><path class="cls-3" d="M55.53,210.15A4.82,4.82,0,1,1,60.35,215,4.65,4.65,0,0,1,55.53,210.15Zm8.33,0a3.52,3.52,0,1,0-3.51,3.7A3.45,3.45,0,0,0,63.86,210.15Z"/><path class="cls-3" d="M76.3,205.42v9.47H75.08v-1.73a3.78,3.78,0,0,1-3.4,1.82c-2.42,0-4-1.35-4-4.07v-5.49H69v5.36c0,2,1,3.05,2.84,3.05,2,0,3.22-1.28,3.22-3.44v-5Z"/></g><g class="cls-2"><path class="cls-3" d="M79.88,201.53h1.28v13.36H79.88Z"/></g><g class="cls-2"><path class="cls-3" d="M89.75,214.31a3,3,0,0,1-2,.67A2.51,2.51,0,0,1,85,212.22V206.5H83.29v-1.08H85v-2.07h1.28v2.07h2.88v1.08H86.26v5.65a1.51,1.51,0,0,0,1.64,1.73,2.12,2.12,0,0,0,1.4-.48Z"/></g><g class="cls-2"><path class="cls-3" d="M96.83,205.35v1.24l-.3,0c-2,0-3.19,1.26-3.19,3.49v4.83H92.06v-9.47h1.23v1.85A3.56,3.56,0,0,1,96.83,205.35Z"/></g><g class="cls-2"><path class="cls-3" d="M107.51,205.42,102.78,216c-.8,1.86-1.81,2.45-3.16,2.45a3.26,3.26,0,0,1-2.3-.86l.59-1a2.37,2.37,0,0,0,1.73.72c.85,0,1.42-.39,2-1.58l.42-.92-4.23-9.45h1.33l3.57,8.05,3.56-8.05Z"/><path class="cls-3" d="M123.31,215.09l-1.74-1.8a5.57,5.57,0,0,1-4.22,1.71c-2.46,0-4.23-1.3-4.23-3.21,0-1.49.87-2.59,3.17-3.92-1.22-1.26-1.58-2-1.58-3,0-1.6,1.24-2.68,3.19-2.68,1.78,0,2.93.93,2.93,2.5,0,1.26-.76,2.14-2.81,3.33l3.46,3.56a7.7,7.7,0,0,0,.84-2.43l1.05.33a8.53,8.53,0,0,1-1.12,2.9l1.8,1.85Zm-2.5-2.58-3.8-3.9c-2,1.15-2.63,1.94-2.63,3.06,0,1.37,1.23,2.27,3.05,2.27A4.35,4.35,0,0,0,120.81,212.51Zm-4.91-7.65c0,.74.27,1.26,1.42,2.43,1.82-1,2.41-1.67,2.41-2.57s-.66-1.57-1.83-1.57S115.9,203.85,115.9,204.86Z"/></g><g class="cls-2"><path class="cls-3" d="M49.85,235l.52-1a6.15,6.15,0,0,0,4.16,1.53c2.36,0,3.38-1,3.38-2.23,0-3.46-7.76-1.33-7.76-6,0-1.86,1.44-3.46,4.65-3.46a7.09,7.09,0,0,1,3.9,1.11L58.25,226a6.42,6.42,0,0,0-3.45-1.05c-2.31,0-3.33,1-3.33,2.29,0,3.46,7.76,1.37,7.76,6,0,1.85-1.48,3.44-4.7,3.44A6.83,6.83,0,0,1,49.85,235Z"/></g><g class="cls-2"><path class="cls-3" d="M70.1,232.15H62.18a3.5,3.5,0,0,0,3.72,3.3,3.72,3.72,0,0,0,2.9-1.25l.72.83a5,5,0,0,1-8.62-3.28,4.56,4.56,0,0,1,4.63-4.8,4.51,4.51,0,0,1,4.59,4.8C70.12,231.86,70.1,232,70.1,232.15Zm-7.92-1h6.71a3.36,3.36,0,0,0-6.71,0Z"/></g><g class="cls-2"><path class="cls-3" d="M79.6,230.62v5.87H78.38V235a3.56,3.56,0,0,1-3.26,1.57c-2.15,0-3.46-1.12-3.46-2.75,0-1.46.94-2.69,3.66-2.69h3v-.57c0-1.62-.92-2.51-2.68-2.51a4.85,4.85,0,0,0-3.15,1.12l-.58-1A6,6,0,0,1,75.77,227C78.21,227,79.6,228.17,79.6,230.62Zm-1.28,3V232.1h-3c-1.84,0-2.43.72-2.43,1.69s.88,1.78,2.4,1.78A3,3,0,0,0,78.32,233.65Z"/></g><g class="cls-2"><path class="cls-3" d="M84.53,225.9V227h2.92v1.08H84.57v8.39H83.29V228.1H81.6V227h1.69v-1.17A2.61,2.61,0,0,1,86.15,223a3,3,0,0,1,1.89.59l-.43,1a2.13,2.13,0,0,0-1.4-.47C85.11,224.12,84.53,224.73,84.53,225.9Z"/></g><g class="cls-2"><path class="cls-3" d="M88.06,231.75a4.82,4.82,0,1,1,4.82,4.83A4.65,4.65,0,0,1,88.06,231.75Zm8.33,0a3.52,3.52,0,1,0-3.51,3.7A3.45,3.45,0,0,0,96.39,231.75Z"/><path class="cls-3" d="M99.34,231.75a4.82,4.82,0,1,1,4.83,4.83A4.66,4.66,0,0,1,99.34,231.75Zm8.34,0a3.52,3.52,0,1,0-3.51,3.7A3.45,3.45,0,0,0,107.68,231.75Z"/><path class="cls-3" d="M120.23,223.13v13.36H119v-1.87a4.09,4.09,0,0,1-3.65,2,4.82,4.82,0,0,1,0-9.63,4.14,4.14,0,0,1,3.6,1.87v-5.69ZM119,231.75a3.52,3.52,0,1,0-3.51,3.7A3.47,3.47,0,0,0,119,231.75Z"/></g></g><path class="cls-3" d="M126.83,130a46.52,46.52,0,0,1-5.93-.39,67.52,67.52,0,0,1-10.12-2.21c-6-1.66-12.85-3.54-30.92-3.78-13-.13-27.61-9.2-27.61-21.13,0-10.33,9.67-18.47,24.62-20.75,2.13-.33,5.41-.92,9.22-1.62C97.3,78.09,114.25,75,123.5,75c18.2,0,33,12.33,33,27.49a27.07,27.07,0,0,1-9,20.38C143.63,126.3,137.06,130,126.83,130ZM123.5,78c-9,0-25.77,3-36.88,5.08-3.82.69-7.12,1.29-9.3,1.62-10.18,1.55-22.07,7.14-22.07,17.79,0,9.19,12,18,24.65,18.13,18.46.24,25.48,2.18,31.68,3.89a64.82,64.82,0,0,0,9.71,2.12c9.94,1.27,18.33-.81,24.24-6a24.08,24.08,0,0,0,8-18.13C153.5,89,140,78,123.5,78Z"/><path class="cls-3" d="M125,123.06a36.83,36.83,0,0,1-4.48-.29,45.22,45.22,0,0,1-9.07-2.34c-6-2-12.76-4.24-26.4-3.8a28.55,28.55,0,0,1-19.33-7.34c-2.45-2.37-3.75-4.93-3.75-7.4,0-8,13.7-13.7,23-15,1.78-.25,4.57-.73,7.81-1.29,8.89-1.53,21.06-3.62,28-3.62,14.14,0,25.64,9.16,25.64,20.42a22.47,22.47,0,0,1-2.73,11,1.5,1.5,0,1,1-2.64-1.44,19.33,19.33,0,0,0,2.37-9.5c0-9.63-10.16-17.44-22.64-17.44-6.67,0-18.7,2.07-27.48,3.58-3.26.56-6.09,1-7.9,1.3C75.74,91.22,65,96.68,65,101.89c0,1.61,1,3.48,2.84,5.25,4.08,4,11.29,6.66,17.14,6.49,14.18-.46,21.53,2,27.44,4a43.62,43.62,0,0,0,8.5,2.2c5.64.7,10.41,0,14.16-2a1.5,1.5,0,1,1,1.44,2.64A23.73,23.73,0,0,1,125,123.06Z"/><path class="cls-3" d="M119.56,105.73c-5.57,0-9.94-2.94-9.94-6.7s4.37-6.69,9.94-6.69,9.93,2.94,9.93,6.69S125.13,105.73,119.56,105.73Zm0-10.39c-4.09,0-6.94,1.94-6.94,3.69s2.85,3.7,6.94,3.7,6.93-2,6.93-3.7S123.64,95.34,119.56,95.34Z"/><path class="cls-3" d="M126.18,140.39a48,48,0,0,1-5.25-.3,62.18,62.18,0,0,1-11.17-2.37c-6-1.7-12.81-3.64-29.95-4.42-19-.87-27.56-15.22-27.56-29.06a1.5,1.5,0,0,1,3,0c0,12.41,7.64,25.28,24.7,26.06,17.49.8,24.77,2.87,30.63,4.53a59.24,59.24,0,0,0,10.67,2.28c9.62,1,17.25-.88,22.65-5.73,8.34-7.47,9.59-20.22,9.59-27.15a1.5,1.5,0,0,1,3,0c0,7.43-1.38,21.13-10.58,29.39C140.89,138.12,134.27,140.39,126.18,140.39Z"/><path class="cls-3" d="M30.68,116.77a3,3,0,0,1-2.5-1.32l-13.12-19a3.09,3.09,0,0,1,0-3.5,3.05,3.05,0,0,1,3.19-1.3c4.59,1.15,10.14,2.53,14.34,3.52.06-.51.12-1,.17-1.38A71.14,71.14,0,0,1,61.19,46.23c17.08-12.52,38-16.75,55.83-11.29a1.5,1.5,0,0,1,1.06,1.5c-.66,14.79-8.2,31.93-19.21,43.67a1.5,1.5,0,1,1-2.18-2.06C106.94,67.12,114.05,51.32,115,37.48,98.29,32.81,78.93,37,63,48.65A68.07,68.07,0,0,0,35.73,94.2c-.07.48-.14,1-.21,1.65.58.13,1.1.25,1.56.34a62.48,62.48,0,0,0,16.66,1.1,1.5,1.5,0,1,1,.2,3,65.27,65.27,0,0,1-17.47-1.16l-1.28-.28c-.51,4.73-1.1,11-1.46,15.12a3.11,3.11,0,0,1-2.23,2.69A2.94,2.94,0,0,1,30.68,116.77ZM17.56,94.58c0,.1,0,.15,0,.19l13.12,19a.09.09,0,0,0,.1-.08c.37-4.21,1-10.7,1.49-15.5C28,97.18,22.24,95.76,17.56,94.58Z"/><path class="cls-3" d="M97.7,69.55A18.78,18.78,0,0,1,83,62.32a22.7,22.7,0,0,1-4.55-17.23A14.2,14.2,0,0,1,84.78,35a1.5,1.5,0,0,1,1.6,2.54,11.42,11.42,0,0,0-5,8A19.54,19.54,0,0,0,85.3,60.44c5.39,6.71,14,8.07,21.53,3.39a1.5,1.5,0,0,1,1.59,2.54A20.2,20.2,0,0,1,97.7,69.55Z"/><path class="cls-3" d="M51.2,58.15a1.49,1.49,0,0,1-1.08-.46l-6.07-6.28a3.47,3.47,0,0,1-.73-3.83,3.93,3.93,0,0,1,3.1-2.33l19.15-2.51a1.5,1.5,0,1,1,.39,3L46.8,48.23a.9.9,0,0,0-.72.54.48.48,0,0,0,.11.54l6.09,6.3a1.5,1.5,0,0,1,0,2.12A1.48,1.48,0,0,1,51.2,58.15Z"/><path class="cls-3" d="M99.63,52.34A3.69,3.69,0,1,0,96,48.59h0a3.64,3.64,0,0,0,3.59,3.69h0Z"/><path class="cls-3" d="M99.69,53.84h-.91l-.08-.13A5,5,0,0,1,96,52.23a5.08,5.08,0,0,1-1.46-3.65,5.21,5.21,0,0,1,5.27-5.12,5.19,5.19,0,0,1-.08,10.38Zm0-7.38a2.2,2.2,0,0,0-2.19,2.16,2.15,2.15,0,0,0,2.11,2.17h.52a2.12,2.12,0,0,0,1.08-.58,2.19,2.19,0,0,0-1.49-3.76Z"/><path class="cls-3" d="M126.83,130a46.52,46.52,0,0,1-5.93-.39,67.52,67.52,0,0,1-10.12-2.21c-6-1.66-12.85-3.54-30.92-3.78-13-.13-27.61-9.2-27.61-21.13,0-10.33,9.67-18.47,24.62-20.75,2.13-.33,5.41-.92,9.22-1.62C97.3,78.09,114.25,75,123.5,75c18.2,0,33,12.33,33,27.49a27.07,27.07,0,0,1-9,20.38C143.63,126.3,137.06,130,126.83,130ZM123.5,78c-9,0-25.77,3-36.88,5.08-3.82.69-7.12,1.29-9.3,1.62-10.18,1.55-22.07,7.14-22.07,17.79,0,9.19,12,18,24.65,18.13,18.46.24,25.48,2.18,31.68,3.89a64.82,64.82,0,0,0,9.71,2.12c9.94,1.27,18.33-.81,24.24-6a24.08,24.08,0,0,0,8-18.13C153.5,89,140,78,123.5,78Z"/><path class="cls-3" d="M125,123.06a36.83,36.83,0,0,1-4.48-.29,45.22,45.22,0,0,1-9.07-2.34c-6-2-12.76-4.24-26.4-3.8a28.55,28.55,0,0,1-19.33-7.34c-2.45-2.37-3.75-4.93-3.75-7.4,0-8,13.7-13.7,23-15,1.78-.25,4.57-.73,7.81-1.29,8.89-1.53,21.06-3.62,28-3.62,14.14,0,25.64,9.16,25.64,20.42a22.47,22.47,0,0,1-2.73,11,1.5,1.5,0,1,1-2.64-1.44,19.33,19.33,0,0,0,2.37-9.5c0-9.63-10.16-17.44-22.64-17.44-6.67,0-18.7,2.07-27.48,3.58-3.26.56-6.09,1-7.9,1.3C75.74,91.22,65,96.68,65,101.89c0,1.61,1,3.48,2.84,5.25,4.08,4,11.29,6.66,17.14,6.49,14.18-.46,21.53,2,27.44,4a43.62,43.62,0,0,0,8.5,2.2c5.64.7,10.41,0,14.16-2a1.5,1.5,0,1,1,1.44,2.64A23.73,23.73,0,0,1,125,123.06Z"/><path class="cls-3" d="M119.56,105.73c-5.57,0-9.94-2.94-9.94-6.7s4.37-6.69,9.94-6.69,9.93,2.94,9.93,6.69S125.13,105.73,119.56,105.73Zm0-10.39c-4.09,0-6.94,1.94-6.94,3.69s2.85,3.7,6.94,3.7,6.93-2,6.93-3.7S123.64,95.34,119.56,95.34Z"/><path class="cls-3" d="M126.18,140.39a48,48,0,0,1-5.25-.3,62.18,62.18,0,0,1-11.17-2.37c-6-1.7-12.81-3.64-29.95-4.42-19-.87-27.56-15.22-27.56-29.06a1.5,1.5,0,0,1,3,0c0,12.41,7.64,25.28,24.7,26.06,17.49.8,24.77,2.87,30.63,4.53a59.24,59.24,0,0,0,10.67,2.28c9.62,1,17.25-.88,22.65-5.73,8.34-7.47,9.59-20.22,9.59-27.15a1.5,1.5,0,0,1,3,0c0,7.43-1.38,21.13-10.58,29.39C140.89,138.12,134.27,140.39,126.18,140.39Z"/><path class="cls-3" d="M30.68,116.77a3,3,0,0,1-2.5-1.32l-13.12-19a3.09,3.09,0,0,1,0-3.5,3.05,3.05,0,0,1,3.19-1.3c4.59,1.15,10.14,2.53,14.34,3.52.06-.51.12-1,.17-1.38A71.14,71.14,0,0,1,61.19,46.23c17.08-12.52,38-16.75,55.83-11.29a1.5,1.5,0,0,1,1.06,1.5c-.66,14.79-8.2,31.93-19.21,43.67a1.5,1.5,0,1,1-2.18-2.06C106.94,67.12,114.05,51.32,115,37.48,98.29,32.81,78.93,37,63,48.65A68.07,68.07,0,0,0,35.73,94.2c-.07.48-.14,1-.21,1.65.58.13,1.1.25,1.56.34a62.48,62.48,0,0,0,16.66,1.1,1.5,1.5,0,1,1,.2,3,65.27,65.27,0,0,1-17.47-1.16l-1.28-.28c-.51,4.73-1.1,11-1.46,15.12a3.11,3.11,0,0,1-2.23,2.69A2.94,2.94,0,0,1,30.68,116.77ZM17.56,94.58c0,.1,0,.15,0,.19l13.12,19a.09.09,0,0,0,.1-.08c.37-4.21,1-10.7,1.49-15.5C28,97.18,22.24,95.76,17.56,94.58Z"/><path class="cls-3" d="M97.7,69.55A18.78,18.78,0,0,1,83,62.32a22.7,22.7,0,0,1-4.55-17.23A14.2,14.2,0,0,1,84.78,35a1.5,1.5,0,0,1,1.6,2.54,11.42,11.42,0,0,0-5,8A19.54,19.54,0,0,0,85.3,60.44c5.39,6.71,14,8.07,21.53,3.39a1.5,1.5,0,0,1,1.59,2.54A20.2,20.2,0,0,1,97.7,69.55Z"/><path class="cls-3" d="M51.2,58.15a1.49,1.49,0,0,1-1.08-.46l-6.07-6.28a3.47,3.47,0,0,1-.73-3.83,3.93,3.93,0,0,1,3.1-2.33l19.15-2.51a1.5,1.5,0,1,1,.39,3L46.8,48.23a.9.9,0,0,0-.72.54.48.48,0,0,0,.11.54l6.09,6.3a1.5,1.5,0,0,1,0,2.12A1.48,1.48,0,0,1,51.2,58.15Z"/><path class="cls-3" d="M99.63,52.34A3.69,3.69,0,1,0,96,48.59h0a3.64,3.64,0,0,0,3.59,3.69h0Z"/><path class="cls-3" d="M99.69,53.84h-.91l-.08-.13A5,5,0,0,1,96,52.23a5.08,5.08,0,0,1-1.46-3.65,5.21,5.21,0,0,1,5.27-5.12,5.19,5.19,0,0,1-.08,10.38Zm0-7.38a2.2,2.2,0,0,0-2.19,2.16,2.15,2.15,0,0,0,2.11,2.17h.52a2.12,2.12,0,0,0,1.08-.58,2.19,2.19,0,0,0-1.49-3.76Z"/></g></g></g></svg>