<svg xmlns="http://www.w3.org/2000/svg" viewBox="0 0 171 242"><defs><style>.cls-1{fill:#d8d8d8;fill-opacity:0.5;}.cls-2{isolation:isolate;}.cls-3{fill:#454f5b;}.cls-4{fill:none;stroke:#454f5b;stroke-linecap:round;stroke-linejoin:round;stroke-width:3px;}</style></defs><g id="Layer_8" data-name="Layer 8"><path class="cls-1" d="M20,0H151a20.06,20.06,0,0,1,20,20V151a20.06,20.06,0,0,1-20,20H20A20.06,20.06,0,0,1,0,151V20A20.06,20.06,0,0,1,20,0Z"/><g class="cls-2"><path class="cls-3" d="M76.06,204.29v-7.56L72.34,203H71l-3.69-6.07v7.4H64.59v-12.6H67l4.71,7.83,4.65-7.83h2.39l0,12.6Z"/><path class="cls-3" d="M81.24,191.69A1.61,1.61,0,0,1,83,190.12a1.58,1.58,0,0,1,1.75,1.51,1.76,1.76,0,0,1-3.5.06Zm.35,2.91h2.8v9.69h-2.8Z"/><path class="cls-3" d="M87,190.93h2.81v13.36H87Z"/></g><g class="cls-2"><path class="cls-3" d="M96.59,200.49l-1.35,1.33v2.47H92.43V190.93h2.81v7.56l4.1-3.89h3.35l-4,4.11,4.39,5.58h-3.4Z"/></g><g class="cls-2"><path class="cls-3" d="M107.29,202.67a4.26,4.26,0,0,1-.49,1.8l-1,2.59H104l.79-2.86a1.56,1.56,0,0,1-1-1.53,1.74,1.74,0,0,1,3.48,0Z"/></g><g class="cls-2"><path class="cls-3" d="M30.33,213.29h5.13c4,0,6.76,2.59,6.76,6.3s-2.72,6.3-6.76,6.3H30.33Zm5.06,11.45c3.35,0,5.51-2.13,5.51-5.15s-2.16-5.15-5.51-5.15H31.66v10.3Z"/><path class="cls-3" d="M52.08,220v5.87H50.85v-1.48A3.53,3.53,0,0,1,47.59,226c-2.14,0-3.45-1.12-3.45-2.76,0-1.45.93-2.68,3.65-2.68h3V220c0-1.62-.92-2.51-2.68-2.51A4.83,4.83,0,0,0,45,218.58l-.58-1a6.06,6.06,0,0,1,3.85-1.27C50.69,216.35,52.08,217.57,52.08,220Zm-1.28,3V221.5h-3c-1.84,0-2.43.72-2.43,1.69s.88,1.78,2.39,1.78A3,3,0,0,0,50.8,223Z"/><path class="cls-3" d="M55.26,213.43a.92.92,0,0,1,.94-.9.91.91,0,0,1,.94.88.94.94,0,0,1-1.88,0Zm.29,3h1.28v9.47H55.55Z"/></g><g class="cls-2"><path class="cls-3" d="M65.16,216.35v1.24l-.3,0c-2,0-3.19,1.26-3.19,3.49v4.83H60.39v-9.47h1.23v1.85A3.56,3.56,0,0,1,65.16,216.35Z"/></g><g class="cls-2"><path class="cls-3" d="M75.84,216.42,71.11,227c-.8,1.86-1.81,2.45-3.16,2.45a3.26,3.26,0,0,1-2.3-.86l.59-1a2.37,2.37,0,0,0,1.73.72c.85,0,1.42-.39,2-1.58l.42-.92-4.23-9.45h1.33L71,224.47l3.56-8.05Z"/><path class="cls-3" d="M91.64,226.09l-1.74-1.8A5.57,5.57,0,0,1,85.68,226c-2.46,0-4.23-1.3-4.23-3.21,0-1.49.87-2.59,3.17-3.92-1.22-1.26-1.58-2-1.58-3,0-1.6,1.24-2.68,3.19-2.68,1.78,0,2.93.93,2.93,2.5,0,1.26-.76,2.14-2.81,3.33l3.46,3.56a7.7,7.7,0,0,0,.84-2.43l1,.33a8.53,8.53,0,0,1-1.12,2.9l1.8,1.85Zm-2.5-2.58-3.8-3.9c-2,1.15-2.63,1.94-2.63,3.06,0,1.37,1.23,2.27,3.05,2.27A4.35,4.35,0,0,0,89.14,223.51Zm-4.91-7.65c0,.74.27,1.26,1.42,2.43,1.82-1,2.41-1.67,2.41-2.57s-.66-1.57-1.83-1.57S84.23,214.85,84.23,215.86Z"/></g><g class="cls-2"><path class="cls-3" d="M108.3,224.74v1.15H99.38v-12.6H108v1.15h-7.31v4.48h6.51v1.14h-6.51v4.68Z"/></g><g class="cls-2"><path class="cls-3" d="M119.77,216.42v8.32c0,3.26-1.6,4.73-4.73,4.73a6.61,6.61,0,0,1-4.42-1.46l.65-1a5.64,5.64,0,0,0,3.73,1.3c2.39,0,3.49-1.1,3.49-3.44v-1.21a4.25,4.25,0,0,1-3.69,1.84,4.59,4.59,0,1,1,0-9.18,4.28,4.28,0,0,1,3.75,1.89v-1.82Zm-1.24,4.5a3.6,3.6,0,1,0-3.6,3.48A3.39,3.39,0,0,0,118.53,220.92Z"/><path class="cls-3" d="M132.12,216.42v8.32c0,3.26-1.6,4.73-4.74,4.73A6.6,6.6,0,0,1,123,228l.65-1a5.64,5.64,0,0,0,3.73,1.3c2.39,0,3.49-1.1,3.49-3.44v-1.21a4.25,4.25,0,0,1-3.69,1.84,4.59,4.59,0,1,1,0-9.18,4.27,4.27,0,0,1,3.74,1.89v-1.82Zm-1.24,4.5a3.6,3.6,0,1,0-3.6,3.48A3.39,3.39,0,0,0,130.88,220.92Z"/><path class="cls-3" d="M134.38,224.81l.58-1a5.68,5.68,0,0,0,3.37,1.06c1.8,0,2.54-.61,2.54-1.55,0-2.46-6.14-.52-6.14-4.26,0-1.55,1.33-2.7,3.74-2.7a6.4,6.4,0,0,1,3.35.88l-.56,1a4.9,4.9,0,0,0-2.79-.8c-1.71,0-2.47.66-2.47,1.56,0,2.56,6.14.63,6.14,4.27,0,1.64-1.44,2.7-3.9,2.7A6.33,6.33,0,0,1,134.38,224.81Z"/></g><rect class="cls-4" x="85.92" y="38.8" width="26.43" height="8.01" rx="3.95"/><path class="cls-4" d="M107.91,47.24c.86,15.11,13.69,26.1,13.66,38v19.81"/><path class="cls-4" d="M107.91,137.08h8.62a4.55,4.55,0,0,0,3.58-2"/><path class="cls-4" d="M90.31,47.24c-.86,15.11-13.69,26.1-13.66,38v12.2"/><path class="cls-4" d="M128.18,137.88c6.78,0,12.27-7.94,12.27-17.73s-5.49-17.73-12.27-17.73-12.27,7.94-12.27,17.73S121.4,137.88,128.18,137.88Z"/><path class="cls-4" d="M37.44,137.13v-23.6a8,8,0,0,1,8-8H85.09a8,8,0,0,1,8,8v23.61"/><path class="cls-4" d="M30.55,137.13H100"/><path class="cls-4" d="M59.26,105.51a6,6,0,0,1,3-5.19,6.11,6.11,0,0,1,6,0,6,6,0,0,1,3,5.19"/><path class="cls-4" d="M98.09,77.78l-3.91,8.85A5.48,5.48,0,0,0,97,93.86l0,0a5.15,5.15,0,0,0,1.85.47h.68a5.49,5.49,0,0,0,5.08-5.88,5.55,5.55,0,0,0-.47-1.84l-3.91-8.85a1.14,1.14,0,0,0-1.5-.59A1.19,1.19,0,0,0,98.09,77.78Z"/><rect class="cls-4" x="85.92" y="38.8" width="26.43" height="8.01" rx="3.95"/><path class="cls-4" d="M107.91,47.24c.85,15.11,13.69,26.1,13.66,38v19.81"/><path class="cls-4" d="M107.91,137.08h8.62a4.55,4.55,0,0,0,3.58-2"/><path class="cls-4" d="M90.31,47.24c-.86,15.11-13.69,26.1-13.66,38v12.2"/><path class="cls-4" d="M128.18,137.88c6.78,0,12.27-7.94,12.27-17.73s-5.49-17.73-12.27-17.73-12.27,7.94-12.27,17.73S121.4,137.88,128.18,137.88Z"/><path class="cls-4" d="M37.44,137.13v-23.6a8,8,0,0,1,8-8H85.09a8,8,0,0,1,8,8v23.61"/><path class="cls-4" d="M30.55,137.13H100"/><path class="cls-4" d="M59.26,105.51a6,6,0,0,1,3-5.19,6.11,6.11,0,0,1,6,0,6,6,0,0,1,3,5.19"/><path class="cls-4" d="M98.09,77.78l-3.91,8.85A5.48,5.48,0,0,0,97,93.86l0,0a5.15,5.15,0,0,0,1.85.47h.68a5.49,5.49,0,0,0,5.08-5.88,5.55,5.55,0,0,0-.47-1.84l-3.91-8.85a1.14,1.14,0,0,0-1.5-.59A1.19,1.19,0,0,0,98.09,77.78Z"/></g></svg>