<svg xmlns="http://www.w3.org/2000/svg" viewBox="0 0 171 242"><defs><style>.cls-1{fill:#d8d8d8;fill-opacity:0.5;}.cls-2{isolation:isolate;}.cls-3{fill:#454f5b;}</style></defs><g id="Layer_17" data-name="Layer 17"><g id="Layer_2" data-name="Layer 2"><g id="Layer_1-2" data-name="Layer 1-2"><path class="cls-1" d="M20,0H151a20.06,20.06,0,0,1,20,20V151a20.06,20.06,0,0,1-20,20H20A20.06,20.06,0,0,1,0,151V20A20.06,20.06,0,0,1,20,0Z"/><g class="cls-2"><g class="cls-2"><path class="cls-3" d="M56.74,185.26c0,2.81-2.1,4.56-5.47,4.56H48.73v3.47H45.81v-12.6h5.46C54.64,180.69,56.74,182.43,56.74,185.26Zm-3,0c0-1.39-.9-2.2-2.68-2.2H48.73v4.38h2.38C52.89,187.44,53.79,186.63,53.79,185.26Z"/></g><g class="cls-2"><path class="cls-3" d="M68,189.24H60.7a2.58,2.58,0,0,0,2.78,1.94,3.29,3.29,0,0,0,2.43-.93l1.49,1.62a5.09,5.09,0,0,1-4,1.56c-3.35,0-5.52-2.1-5.52-5a4.93,4.93,0,0,1,5.16-5,4.8,4.8,0,0,1,5.05,5C68.09,188.7,68.05,189,68,189.24Zm-7.36-1.64h4.77a2.42,2.42,0,0,0-4.77,0Z"/></g><g class="cls-2"><path class="cls-3" d="M76,183.46v2.59c-.23,0-.41,0-.63,0a2.37,2.37,0,0,0-2.57,2.7v4.57H70V183.6h2.68v1.28A3.92,3.92,0,0,1,76,183.46Z"/></g><g class="cls-2"><path class="cls-3" d="M76.74,192.39l.94-2a6.6,6.6,0,0,0,3.36.94c1.3,0,1.79-.34,1.79-.88,0-1.59-5.86,0-5.86-3.84,0-1.83,1.66-3.13,4.49-3.13a7.92,7.92,0,0,1,3.72.85l-.93,2a5.58,5.58,0,0,0-2.79-.72c-1.26,0-1.8.4-1.8.9,0,1.66,5.85.06,5.85,3.88,0,1.8-1.68,3.07-4.57,3.07A8.37,8.37,0,0,1,76.74,192.39Z"/><path class="cls-3" d="M86.51,188.45a5.33,5.33,0,1,1,5.33,5C88.76,193.43,86.51,191.36,86.51,188.45Zm7.8,0a2.48,2.48,0,1,0-2.47,2.68A2.45,2.45,0,0,0,94.31,188.45Z"/><path class="cls-3" d="M108.93,187.74v5.55h-2.81v-5.11c0-1.57-.72-2.29-2-2.29s-2.33.83-2.33,2.61v4.79H99V183.6h2.69v1.14a4.22,4.22,0,0,1,3.2-1.28C107.2,183.46,108.93,184.79,108.93,187.74Z"/><path class="cls-3" d="M120,187.76v5.53H117.4v-1.21a3.16,3.16,0,0,1-3,1.35c-2.27,0-3.62-1.26-3.62-2.93s1.21-2.9,4.16-2.9h2.23c0-1.21-.72-1.91-2.23-1.91a4.65,4.65,0,0,0-2.79.9l-1-2a7.42,7.42,0,0,1,4.18-1.17C118.32,183.46,120,184.83,120,187.76Zm-2.81,2.47v-1H115.3c-1.32,0-1.73.48-1.73,1.13s.59,1.17,1.58,1.17A2.06,2.06,0,0,0,117.22,190.23Z"/><path class="cls-3" d="M122.57,179.93h2.81v13.36h-2.81Z"/></g><g class="cls-2"><path class="cls-3" d="M57.43,208.59a6.33,6.33,0,0,1,6.6-6.41A6.1,6.1,0,0,1,68.64,204l-.84.85a5,5,0,0,0-3.73-1.49,5.22,5.22,0,1,0,0,10.44,5,5,0,0,0,3.73-1.51l.84.84A6.09,6.09,0,0,1,64,215,6.32,6.32,0,0,1,57.43,208.59Z"/></g><g class="cls-2"><path class="cls-3" d="M78.22,209v5.87H77v-1.48A3.56,3.56,0,0,1,73.74,215c-2.15,0-3.46-1.12-3.46-2.76,0-1.45.94-2.68,3.66-2.68h3V209c0-1.62-.92-2.51-2.68-2.51a4.83,4.83,0,0,0-3.15,1.12l-.58-1a6.09,6.09,0,0,1,3.86-1.27C76.83,205.35,78.22,206.57,78.22,209Zm-1.28,3V210.5H74c-1.84,0-2.43.72-2.43,1.69s.88,1.78,2.4,1.78A3,3,0,0,0,76.94,212Z"/></g><g class="cls-2"><path class="cls-3" d="M86.46,205.35v1.24l-.3,0c-2,0-3.19,1.26-3.19,3.49v4.83H81.69v-9.47h1.23v1.85A3.56,3.56,0,0,1,86.46,205.35Z"/></g><g class="cls-2"><path class="cls-3" d="M96.92,210.55H89a3.5,3.5,0,0,0,3.72,3.3,3.72,3.72,0,0,0,2.9-1.25l.72.83a5,5,0,0,1-8.62-3.28,4.56,4.56,0,0,1,4.63-4.8,4.51,4.51,0,0,1,4.59,4.8C96.94,210.26,96.92,210.41,96.92,210.55Zm-7.92-1h6.71a3.36,3.36,0,0,0-6.71,0Z"/><path class="cls-3" d="M113.55,215.09l-1.75-1.8a5.57,5.57,0,0,1-4.21,1.71c-2.46,0-4.23-1.3-4.23-3.21,0-1.49.86-2.59,3.17-3.92-1.23-1.26-1.59-2-1.59-3,0-1.6,1.25-2.68,3.19-2.68,1.78,0,2.94.93,2.94,2.5,0,1.26-.76,2.14-2.81,3.33l3.46,3.56a8,8,0,0,0,.84-2.43l1,.33a9,9,0,0,1-1.12,2.9l1.8,1.85Zm-2.5-2.58-3.8-3.9c-2,1.15-2.63,1.94-2.63,3.06,0,1.37,1.22,2.27,3,2.27A4.38,4.38,0,0,0,111.05,212.51Zm-4.92-7.65c0,.74.27,1.26,1.43,2.43,1.81-1,2.41-1.67,2.41-2.57s-.67-1.57-1.84-1.57S106.13,203.85,106.13,204.86Z"/></g><g class="cls-2"><path class="cls-3" d="M66.2,233.12c0,2.15-1.59,3.37-4.74,3.37h-5.8v-12.6H61.1c2.81,0,4.43,1.19,4.43,3.24A2.92,2.92,0,0,1,63.6,230,3,3,0,0,1,66.2,233.12ZM57,225v4.58h4c2,0,3.19-.78,3.19-2.29S63,225,61,225Zm7.87,8c0-1.64-1.2-2.36-3.42-2.36H57v4.73h4.45C63.66,235.39,64.86,234.67,64.86,233Z"/></g><g class="cls-2"><path class="cls-3" d="M77.21,232.15H69.29a3.5,3.5,0,0,0,3.72,3.3,3.72,3.72,0,0,0,2.9-1.25l.72.83A5,5,0,0,1,68,231.75a4.56,4.56,0,0,1,4.63-4.8,4.51,4.51,0,0,1,4.59,4.8C77.23,231.86,77.21,232,77.21,232.15Zm-7.92-1H76a3.36,3.36,0,0,0-6.71,0Z"/></g><g class="cls-2"><path class="cls-3" d="M86.71,230.62v5.87H85.49V235a3.56,3.56,0,0,1-3.26,1.57c-2.15,0-3.46-1.12-3.46-2.75,0-1.46.94-2.69,3.66-2.69h3v-.57c0-1.62-.92-2.51-2.68-2.51a4.85,4.85,0,0,0-3.15,1.12l-.58-1A6,6,0,0,1,82.88,227C85.32,227,86.71,228.17,86.71,230.62Zm-1.28,3V232.1h-3c-1.84,0-2.43.72-2.43,1.69s.88,1.78,2.4,1.78A3,3,0,0,0,85.43,233.65Z"/><path class="cls-3" d="M98.72,227v9.47H97.49v-1.73a3.76,3.76,0,0,1-3.4,1.82c-2.41,0-4-1.35-4-4.07V227h1.28v5.36c0,2,1,3.05,2.85,3.05,2,0,3.22-1.28,3.22-3.44v-5Z"/></g><g class="cls-2"><path class="cls-3" d="M107.29,235.91a3,3,0,0,1-2,.67,2.51,2.51,0,0,1-2.77-2.75V228.1h-1.69V227h1.69V225h1.28V227h2.88v1.08H103.8v5.65a1.51,1.51,0,0,0,1.64,1.73,2.12,2.12,0,0,0,1.4-.48Z"/></g><g class="cls-2"><path class="cls-3" d="M117.38,227l-4.73,10.6c-.8,1.86-1.81,2.45-3.16,2.45a3.22,3.22,0,0,1-2.3-.86l.59-1a2.37,2.37,0,0,0,1.73.72c.85,0,1.42-.39,2-1.58l.42-.92L107.66,227H109l3.57,8,3.56-8Z"/></g></g><path class="cls-3" d="M87.86,53.1a1.5,1.5,0,0,1-1.5-1.5V41.13a1.5,1.5,0,0,1,3,0V51.6A1.5,1.5,0,0,1,87.86,53.1Z"/><path class="cls-3" d="M80.39,53.1a1.5,1.5,0,0,1-1.5-1.5V41.13a1.5,1.5,0,0,1,3,0V51.6A1.5,1.5,0,0,1,80.39,53.1Z"/><path class="cls-3" d="M95.86,63.16H72.4a6.53,6.53,0,0,1,0-13.06H95.86a6.53,6.53,0,0,1,0,13.06ZM72.4,53.1a3.53,3.53,0,0,0,0,7.06H95.86a3.53,3.53,0,0,0,0-7.06Z"/><path class="cls-3" d="M66.43,75.26A1.52,1.52,0,0,1,65.6,75a1.5,1.5,0,0,1-.42-2.08l.41-.62c2.5-3.78,3.64-5.51,3.64-9.88a1.5,1.5,0,1,1,3,0c0,5.28-1.56,7.63-4.14,11.53l-.41.62A1.49,1.49,0,0,1,66.43,75.26Z"/><path class="cls-3" d="M113.81,139H77.41a1.5,1.5,0,0,1,0-3h36.4a1.5,1.5,0,0,1,0,3Z"/><path class="cls-3" d="M108.14,93.1a1.5,1.5,0,0,1-1.5-1.5V88.06a18.94,18.94,0,0,0-3.16-9.1l-3.09-4.66C97.68,70.23,96,67.77,96,62.43a1.5,1.5,0,1,1,3,0c0,4.43,1.21,6.24,3.85,10.21L106,77.3a22.05,22.05,0,0,1,3.66,10.59V91.6A1.5,1.5,0,0,1,108.14,93.1Z"/><path class="cls-3" d="M62.3,89.66a1.5,1.5,0,0,1-1.5-1.5V78.34a2.18,2.18,0,0,0-2.18-2.14H51.67a2.17,2.17,0,0,0-2.17,2.15v9.79a1.5,1.5,0,0,1-3,0v-9.8a5.18,5.18,0,0,1,5.17-5.14h6.95a5.19,5.19,0,0,1,5.18,5.12v9.84A1.5,1.5,0,0,1,62.3,89.66Z"/><path class="cls-3" d="M45.05,139a8.79,8.79,0,0,1-8.79-8.74V103.68A17.63,17.63,0,0,1,54,86.11h2.4a17.68,17.68,0,0,1,17.65,17.55v26.6A8.85,8.85,0,0,1,65.23,139H45.05Zm9-49.9a14.82,14.82,0,0,0-10.44,4.27,14.59,14.59,0,0,0-4.3,10.3v26.56A5.8,5.8,0,0,0,45.1,136H65.22a5.83,5.83,0,0,0,5.83-5.76V103.67A14.68,14.68,0,0,0,56.39,89.11H54Z"/><path class="cls-3" d="M89.28,42.18H66.43a1.5,1.5,0,0,1,0-3H89.27a1.59,1.59,0,1,0,0-3.17H63.67a1.59,1.59,0,0,0-1.6,1.57,1.47,1.47,0,0,1-1.52,1.48,1.5,1.5,0,0,1-1.48-1.52A4.6,4.6,0,0,1,63.66,33H89.3a4.59,4.59,0,1,1,0,9.17Z"/><path class="cls-3" d="M131.93,63.36h-12.3a1.5,1.5,0,0,1,0-3h12.11V40.94H119.63a1.5,1.5,0,0,1,0-3h12.3a2.82,2.82,0,0,1,2.81,2.77V60.56A2.82,2.82,0,0,1,131.93,63.36Z"/><path class="cls-3" d="M119.57,93.08a1.5,1.5,0,0,1-1.5-1.5V39.44a1.74,1.74,0,0,0-1.74-1.7h0a1.73,1.73,0,0,0-1.72,1.71V91.58a1.5,1.5,0,1,1-3,0V39.44a4.73,4.73,0,0,1,4.72-4.7h0a4.76,4.76,0,0,1,4.73,4.68V91.58A1.5,1.5,0,0,1,119.57,93.08Z"/><path class="cls-3" d="M127,46.55h-7.37a1.5,1.5,0,0,1,0-3H127a1.5,1.5,0,0,1,0,3Z"/><path class="cls-3" d="M127,52.15h-7.37a1.5,1.5,0,0,1,0-3H127a1.5,1.5,0,0,1,0,3Z"/><path class="cls-3" d="M127,57.76h-7.37a1.5,1.5,0,0,1,0-3H127a1.5,1.5,0,0,1,0,3Z"/><path class="cls-3" d="M125.13,139H107.25a5.08,5.08,0,0,1-4.89-4.43L98,91.7a1.47,1.47,0,0,1,.38-1.16,1.51,1.51,0,0,1,1.11-.49h33.39a1.51,1.51,0,0,1,1.11.49,1.47,1.47,0,0,1,.38,1.16L130,134.54A5.07,5.07,0,0,1,125.13,139Zm-17.8-3h17.75a2.06,2.06,0,0,0,2-1.82l4.19-41.15H101.15l4.19,41.18A2.09,2.09,0,0,0,107.33,136Z"/><path class="cls-3" d="M87.86,53.09a1.5,1.5,0,0,1-1.5-1.5V41.13a1.5,1.5,0,0,1,3,0V51.59A1.5,1.5,0,0,1,87.86,53.09Z"/><path class="cls-3" d="M80.39,53.09a1.5,1.5,0,0,1-1.5-1.5V41.13a1.5,1.5,0,0,1,3,0V51.59A1.5,1.5,0,0,1,80.39,53.09Z"/><path class="cls-3" d="M95.86,63.15H72.4a6.53,6.53,0,0,1,0-13.06H95.86a6.53,6.53,0,0,1,0,13.06ZM72.4,53.09a3.53,3.53,0,0,0,0,7.06H95.86a3.53,3.53,0,0,0,0-7.06Z"/><path class="cls-3" d="M66.43,75.26A1.52,1.52,0,0,1,65.6,75a1.5,1.5,0,0,1-.42-2.08l.41-.62c2.5-3.78,3.64-5.51,3.64-9.88a1.5,1.5,0,1,1,3,0c0,5.28-1.56,7.63-4.14,11.53l-.41.62A1.49,1.49,0,0,1,66.43,75.26Z"/><path class="cls-3" d="M113.81,139H77.41a1.5,1.5,0,0,1,0-3h36.4a1.5,1.5,0,0,1,0,3Z"/><path class="cls-3" d="M108.14,93.1a1.5,1.5,0,0,1-1.5-1.5V88.06a18.94,18.94,0,0,0-3.16-9.1l-3.09-4.66C97.68,70.23,96,67.77,96,62.43a1.5,1.5,0,1,1,3,0c0,4.43,1.21,6.24,3.85,10.21L106,77.3a22.05,22.05,0,0,1,3.66,10.59V91.6A1.5,1.5,0,0,1,108.14,93.1Z"/><path class="cls-3" d="M62.3,89.66a1.5,1.5,0,0,1-1.5-1.5V78.34a2.18,2.18,0,0,0-2.18-2.14H51.67a2.17,2.17,0,0,0-2.17,2.15v9.79a1.5,1.5,0,0,1-3,0v-9.8a5.18,5.18,0,0,1,5.17-5.14h6.95a5.19,5.19,0,0,1,5.18,5.12v9.84A1.5,1.5,0,0,1,62.3,89.66Z"/><path class="cls-3" d="M45.05,139a8.79,8.79,0,0,1-8.79-8.74V103.68A17.63,17.63,0,0,1,54,86.11h2.4a17.68,17.68,0,0,1,17.65,17.55v26.6A8.85,8.85,0,0,1,65.23,139H45.05Zm9-49.9a14.82,14.82,0,0,0-10.44,4.27,14.59,14.59,0,0,0-4.3,10.3v26.56A5.8,5.8,0,0,0,45.1,136H65.22a5.83,5.83,0,0,0,5.83-5.76V103.67A14.68,14.68,0,0,0,56.39,89.11H54Z"/><path class="cls-3" d="M89.27,42.18H66.43a1.5,1.5,0,0,1,0-3H89.26a1.62,1.62,0,0,0,1.62-1.6A1.6,1.6,0,0,0,89.29,36H63.67a1.59,1.59,0,0,0-1.6,1.57,1.47,1.47,0,0,1-1.52,1.48,1.5,1.5,0,0,1-1.48-1.52A4.6,4.6,0,0,1,63.66,33H89.3a4.59,4.59,0,1,1,0,9.17Z"/><path class="cls-3" d="M131.93,63.36h-12.3a1.5,1.5,0,0,1,0-3h12.11V40.94H119.63a1.5,1.5,0,0,1,0-3h12.3a2.82,2.82,0,0,1,2.81,2.77V60.56A2.82,2.82,0,0,1,131.93,63.36Z"/><path class="cls-3" d="M119.62,93.08a1.5,1.5,0,0,1-1.5-1.5V39.38a1.71,1.71,0,0,0-1.72-1.64h-.05a1.71,1.71,0,0,0-1.24.49,1.67,1.67,0,0,0-.51,1.21V91.58a1.5,1.5,0,1,1-3,0V39.43A4.66,4.66,0,0,1,113,36.1a4.8,4.8,0,0,1,3.34-1.36,4.72,4.72,0,0,1,4.78,4.6V91.58A1.5,1.5,0,0,1,119.62,93.08Z"/><path class="cls-3" d="M127,46.55h-7.37a1.5,1.5,0,0,1,0-3H127a1.5,1.5,0,0,1,0,3Z"/><path class="cls-3" d="M127,52.15h-7.37a1.5,1.5,0,0,1,0-3H127a1.5,1.5,0,0,1,0,3Z"/><path class="cls-3" d="M127,57.75h-7.37a1.5,1.5,0,0,1,0-3H127a1.5,1.5,0,0,1,0,3Z"/><path class="cls-3" d="M125.13,139H107.25a5.08,5.08,0,0,1-4.89-4.43L98,91.7a1.47,1.47,0,0,1,.38-1.16,1.51,1.51,0,0,1,1.11-.49h33.39a1.51,1.51,0,0,1,1.11.49,1.47,1.47,0,0,1,.38,1.16L130,134.54A5.07,5.07,0,0,1,125.13,139Zm-17.8-3h17.75a2.06,2.06,0,0,0,2-1.82l4.19-41.15H101.15l4.19,41.18A2.09,2.09,0,0,0,107.33,136Z"/></g></g></g></svg>