<svg id="Layer_5" data-name="Layer 5" xmlns="http://www.w3.org/2000/svg" viewBox="0 0 171 242"><defs><style>.cls-1{fill:#d8d8d8;fill-opacity:0.5;}.cls-2{isolation:isolate;}.cls-3{fill:#454f5b;}</style></defs><g id="Layer_2" data-name="Layer 2"><g id="Layer_1-2" data-name="Layer 1-2"><path class="cls-1" d="M20,0H151a20.06,20.06,0,0,1,20,20V151a20.06,20.06,0,0,1-20,20H20A20.06,20.06,0,0,1,0,151V20A20.06,20.06,0,0,1,20,0Z"/><g class="cls-2"><g class="cls-2"><path class="cls-3" d="M77.06,206.65c0,2.81-2.1,4.56-5.47,4.56H69.05v3.47H66.13v-12.6h5.46C75,202.08,77.06,203.82,77.06,206.65Zm-3,0c0-1.39-.9-2.2-2.68-2.2H69.05v4.38h2.38C73.21,208.83,74.11,208,74.11,206.65Z"/></g><g class="cls-2"><path class="cls-3" d="M88.35,210.63H81a2.59,2.59,0,0,0,2.78,1.94,3.29,3.29,0,0,0,2.43-.93l1.49,1.62a5.09,5.09,0,0,1-4,1.56c-3.35,0-5.52-2.1-5.52-5a4.93,4.93,0,0,1,5.16-5,4.8,4.8,0,0,1,5,5C88.41,210.09,88.37,210.39,88.35,210.63ZM81,209h4.77a2.31,2.31,0,0,0-2.38-2A2.29,2.29,0,0,0,81,209Z"/><path class="cls-3" d="M96.52,214.21a3.94,3.94,0,0,1-2.28.61c-2.29,0-3.62-1.17-3.62-3.47v-4h-1.5v-2.16h1.5v-2.36h2.81v2.36h2.41v2.16H93.43v3.94a1.13,1.13,0,0,0,1.2,1.28,1.93,1.93,0,0,0,1.14-.36Z"/><path class="cls-3" d="M97.17,213.78l.93-2a6.63,6.63,0,0,0,3.37.94c1.3,0,1.78-.34,1.78-.88,0-1.59-5.85,0-5.85-3.84,0-1.83,1.66-3.13,4.49-3.13a8,8,0,0,1,3.72.85l-.93,2a5.58,5.58,0,0,0-2.79-.72c-1.26,0-1.8.4-1.8.9,0,1.66,5.85.06,5.85,3.88,0,1.79-1.68,3.07-4.58,3.07A8.33,8.33,0,0,1,97.17,213.78Z"/></g></g><path class="cls-3" d="M56.51,126.28a1.58,1.58,0,0,1-.47-.07,1.5,1.5,0,0,1-.95-1.9l6.12-18.62a3.36,3.36,0,0,1,3.11-2.45H79.23a1.5,1.5,0,0,1,0,3H64.39a.42.42,0,0,0-.31.3l-6.15,18.71A1.49,1.49,0,0,1,56.51,126.28Z"/><path class="cls-3" d="M143,126.28a1.49,1.49,0,0,1-1.42-1l-6.21-18.9v-.11H86a1.5,1.5,0,0,1,0-3h49.39a3.06,3.06,0,0,1,2.85,2.25l6.19,18.82a1.51,1.51,0,0,1-1,1.9A1.53,1.53,0,0,1,143,126.28Z"/><path class="cls-3" d="M69.41,105.93h0a1.5,1.5,0,0,1-1.49-1.51,7.92,7.92,0,0,1,7.91-7.84h.05a1.5,1.5,0,0,1,0,3h0a4.92,4.92,0,0,0-4.91,4.86A1.5,1.5,0,0,1,69.41,105.93Z"/><path class="cls-3" d="M97.86,99.39h0a1.5,1.5,0,0,1-1.5-1.5,7.84,7.84,0,0,1,2.34-5.56A8,8,0,0,1,104.31,90h0a1.5,1.5,0,0,1,0,3h0a5,5,0,0,0-3.51,1.43,4.84,4.84,0,0,0-1.44,3.42A1.5,1.5,0,0,1,97.86,99.39Z"/><path class="cls-3" d="M123.64,99.39a1.5,1.5,0,0,1-1.5-1.5,4.84,4.84,0,0,0-1.44-3.42A5,5,0,0,0,117.2,93a1.5,1.5,0,0,1,0-3h0a7.92,7.92,0,0,1,5.6,2.29,7.84,7.84,0,0,1,2.34,5.56,1.5,1.5,0,0,1-1.5,1.5Z"/><path class="cls-3" d="M75.86,99.39H75.8a1.5,1.5,0,0,1-1.44-1.56,8,8,0,0,1,8.26-7.63,8,8,0,0,1,7.63,7.63,1.5,1.5,0,0,1-3,.12A5,5,0,0,0,82.5,93.2,5,5,0,0,0,77.36,98,1.5,1.5,0,0,1,75.86,99.39Z"/><path class="cls-3" d="M117.19,92.92h0a1.5,1.5,0,0,1-1.47-1.53,4.83,4.83,0,0,0-2.43-4.27,5.05,5.05,0,0,0-5,0,4.83,4.83,0,0,0-2.43,4.27,1.5,1.5,0,0,1-1.47,1.53,1.49,1.49,0,0,1-1.53-1.47,7.83,7.83,0,0,1,3.93-6.93,8.08,8.08,0,0,1,8,0,7.83,7.83,0,0,1,3.93,6.93A1.5,1.5,0,0,1,117.19,92.92Z"/><path class="cls-3" d="M97.86,99.39a1.48,1.48,0,0,1-1-.43,5,5,0,0,0-7,0,1.5,1.5,0,0,1-2.1-2.14,8,8,0,0,1,11.21,0,1.5,1.5,0,0,1,0,2.12A1.48,1.48,0,0,1,97.86,99.39Z"/><path class="cls-3" d="M115.49,101.06H114a4.41,4.41,0,0,0-1.33-3.13,4.27,4.27,0,0,0-3.15-1.26h0a1.5,1.5,0,0,1,0-3A7.43,7.43,0,0,1,117,101Z"/><path class="cls-3" d="M130.08,105.74a1.5,1.5,0,0,1-1.5-1.5,4.83,4.83,0,0,0-1.43-3.42,5,5,0,0,0-3.51-1.43h0a1.5,1.5,0,0,1,0-3h0a8,8,0,0,1,5.61,2.29,7.87,7.87,0,0,1,2.33,5.56A1.5,1.5,0,0,1,130.08,105.74Z"/><path class="cls-3" d="M144.07,137.84H55.45a3.75,3.75,0,0,1-3.73-3.68V128a3.73,3.73,0,0,1,3.72-3.7h71.48a1.5,1.5,0,0,1,0,3H55.45a.72.72,0,0,0-.73.71v6.13a.73.73,0,0,0,.73.7h88.62a.73.73,0,0,0,.73-.72V128a.72.72,0,0,0-.72-.7h-11a1.5,1.5,0,0,1,0-3h11a3.72,3.72,0,0,1,3.71,3.69v6.2A3.75,3.75,0,0,1,144.07,137.84Z"/><path class="cls-3" d="M59.32,137.66H24.72a1.5,1.5,0,0,1-1.5-1.5V65.47c0-3.52,2.59-10.11,7.93-20.14V33.5a1.5,1.5,0,0,1,1.5-1.5H88a1.5,1.5,0,0,1,1.5,1.5V45.33c5.44,10,8.09,16.54,8.09,20.14V85.84a1.5,1.5,0,0,1-3,0V65.47c0-2.12-1.37-7.14-7.9-19a1.41,1.41,0,0,1-.19-.72V35H34.15V45.71a1.47,1.47,0,0,1-.18.71c-6.4,12-7.75,17-7.75,19v69.19h33.1a1.5,1.5,0,0,1,0,3Z"/><rect class="cls-3" x="58.83" y="17.97" width="3" height="55.35" transform="translate(14.54 105.88) rotate(-89.88)"/><path class="cls-3" d="M92.72,67h-4a1.5,1.5,0,0,1,0-3h4a1.5,1.5,0,0,1,0,3Zm-8,0h-4a1.5,1.5,0,0,1,0-3h4a1.5,1.5,0,0,1,0,3Zm-8,0h-4a1.5,1.5,0,0,1,0-3h4a1.5,1.5,0,0,1,0,3Zm-8,0h-4a1.5,1.5,0,0,1,0-3h4a1.5,1.5,0,0,1,0,3Zm-8,0h-4a1.5,1.5,0,0,1,0-3h4a1.5,1.5,0,0,1,0,3Zm-8,0h-4a1.5,1.5,0,0,1,0-3h4a1.5,1.5,0,0,1,0,3Zm-8,0h-4a1.5,1.5,0,0,1,0-3h4a1.5,1.5,0,0,1,0,3Zm-8,0h-4a1.5,1.5,0,0,1,0-3h4a1.5,1.5,0,0,1,0,3Zm-8,0h-4a1.5,1.5,0,0,1,0-3h4a1.5,1.5,0,0,1,0,3Z"/><path class="cls-3" d="M53.43,118a1.52,1.52,0,0,1-1-.36A13.8,13.8,0,0,1,68.06,95.06a1.5,1.5,0,0,1-1.44,2.64,10.8,10.8,0,0,0-12.21,17.67,1.5,1.5,0,0,1-1,2.64Z"/><path class="cls-3" d="M38.49,101h0a6.33,6.33,0,0,1,0-12.66h0a6.33,6.33,0,1,1,0,12.66Zm0-9.66h0a3.33,3.33,0,0,0,0,6.66v0a3.33,3.33,0,0,0,3.32-3.34A3.33,3.33,0,0,0,38.48,91.32Z"/><path class="cls-3" d="M51.68,88.68h0a6.36,6.36,0,0,1-6.33-6.33A6.35,6.35,0,0,1,51.68,76h0A6.35,6.35,0,0,1,58,82.35,6.35,6.35,0,0,1,51.68,88.68Zm0-3a3.25,3.25,0,0,0,2.37-1A3.34,3.34,0,0,0,51.69,79h0a3.34,3.34,0,0,0,0,6.68Z"/><path class="cls-3" d="M70.58,88.68h0a6.34,6.34,0,0,1,0-12.68h0a6.34,6.34,0,0,1,0,12.68Zm0-9.68a3.34,3.34,0,0,0,0,6.68h0a3.34,3.34,0,0,0,0-6.68Z"/><path class="cls-3" d="M56.51,126.28a1.58,1.58,0,0,1-.47-.07,1.5,1.5,0,0,1-.95-1.9l6.12-18.62a3.36,3.36,0,0,1,3.11-2.45H79.23a1.5,1.5,0,0,1,0,3H64.39a.42.42,0,0,0-.31.3l-6.15,18.71A1.49,1.49,0,0,1,56.51,126.28Z"/><path class="cls-3" d="M143,126.28a1.49,1.49,0,0,1-1.42-1l-6.23-18.9v-.11H86a1.5,1.5,0,0,1,0-3h49.38a3,3,0,0,1,2.85,2.26l6.2,18.81a1.51,1.51,0,0,1-1,1.9A1.53,1.53,0,0,1,143,126.28Z"/><path class="cls-3" d="M69.41,105.93h0a1.5,1.5,0,0,1-1.49-1.51,7.92,7.92,0,0,1,7.91-7.84h.05a1.5,1.5,0,0,1,0,3h0a4.92,4.92,0,0,0-4.91,4.86A1.5,1.5,0,0,1,69.41,105.93Z"/><path class="cls-3" d="M97.86,99.39h0a1.5,1.5,0,0,1-1.5-1.5,7.84,7.84,0,0,1,2.34-5.56A8,8,0,0,1,104.31,90h0a1.5,1.5,0,0,1,0,3h0a5,5,0,0,0-3.51,1.43,4.84,4.84,0,0,0-1.44,3.42A1.5,1.5,0,0,1,97.86,99.39Z"/><path class="cls-3" d="M123.64,99.39a1.5,1.5,0,0,1-1.5-1.5,4.84,4.84,0,0,0-1.44-3.42A5,5,0,0,0,117.2,93a1.5,1.5,0,0,1,0-3h0a7.92,7.92,0,0,1,5.6,2.29,7.84,7.84,0,0,1,2.34,5.56,1.5,1.5,0,0,1-1.5,1.5Z"/><path class="cls-3" d="M75.86,99.39H75.8a1.5,1.5,0,0,1-1.44-1.56,8,8,0,0,1,8.26-7.63,8,8,0,0,1,7.63,7.63,1.5,1.5,0,0,1-3,.12A5,5,0,0,0,82.5,93.2,5,5,0,0,0,77.36,98,1.5,1.5,0,0,1,75.86,99.39Z"/><path class="cls-3" d="M117.19,92.92h0a1.5,1.5,0,0,1-1.47-1.53,4.83,4.83,0,0,0-2.43-4.27,5.05,5.05,0,0,0-5,0,4.83,4.83,0,0,0-2.43,4.27,1.5,1.5,0,0,1-1.47,1.53,1.49,1.49,0,0,1-1.53-1.47,7.83,7.83,0,0,1,3.93-6.93,8.08,8.08,0,0,1,8,0,7.83,7.83,0,0,1,3.93,6.93A1.5,1.5,0,0,1,117.19,92.92Z"/><path class="cls-3" d="M97.86,99.39a1.48,1.48,0,0,1-1-.43,5,5,0,0,0-7,0,1.5,1.5,0,0,1-2.1-2.14,8,8,0,0,1,11.21,0,1.5,1.5,0,0,1,0,2.12A1.48,1.48,0,0,1,97.86,99.39Z"/><path class="cls-3" d="M115.49,101.06H114a4.41,4.41,0,0,0-1.33-3.13,4.27,4.27,0,0,0-3.15-1.26h0a1.5,1.5,0,0,1,0-3A7.43,7.43,0,0,1,117,101Z"/><path class="cls-3" d="M130.08,105.74h0a1.51,1.51,0,0,1-1.5-1.51,4.78,4.78,0,0,0-1.43-3.41,5,5,0,0,0-3.51-1.43h0a1.5,1.5,0,0,1,0-3h0a8,8,0,0,1,5.61,2.29,7.76,7.76,0,0,1,2.33,5.57A1.5,1.5,0,0,1,130.08,105.74Z"/><path class="cls-3" d="M144.07,137.84H55.45a3.75,3.75,0,0,1-3.73-3.68V128a3.73,3.73,0,0,1,3.72-3.7h71.48a1.5,1.5,0,0,1,0,3H55.45a.72.72,0,0,0-.73.71v6.13a.73.73,0,0,0,.73.7h88.62a.73.73,0,0,0,.73-.72V128a.72.72,0,0,0-.72-.7h-11a1.5,1.5,0,0,1,0-3h11a3.72,3.72,0,0,1,3.71,3.69v6.2A3.75,3.75,0,0,1,144.07,137.84Z"/><path class="cls-3" d="M59.32,137.66H24.72a1.5,1.5,0,0,1-1.5-1.5V65.47c0-3.52,2.59-10.11,7.93-20.14V33.5a1.5,1.5,0,0,1,1.5-1.5H88a1.5,1.5,0,0,1,1.5,1.5V45.33c5.44,10,8.09,16.54,8.09,20.14V85.84a1.5,1.5,0,0,1-3,0V65.47c0-2.12-1.37-7.14-7.9-19a1.41,1.41,0,0,1-.19-.72V35H34.15V45.71a1.47,1.47,0,0,1-.18.71c-6.4,12-7.75,17-7.75,19v69.19h33.1a1.5,1.5,0,0,1,0,3Z"/><rect class="cls-3" x="58.83" y="17.97" width="3" height="55.35" transform="translate(14.54 105.88) rotate(-89.88)"/><path class="cls-3" d="M92.72,67h-4a1.5,1.5,0,0,1,0-3h4a1.5,1.5,0,0,1,0,3Zm-8,0h-4a1.5,1.5,0,0,1,0-3h4a1.5,1.5,0,0,1,0,3Zm-8,0h-4a1.5,1.5,0,0,1,0-3h4a1.5,1.5,0,0,1,0,3Zm-8,0h-4a1.5,1.5,0,0,1,0-3h4a1.5,1.5,0,0,1,0,3Zm-8,0h-4a1.5,1.5,0,0,1,0-3h4a1.5,1.5,0,0,1,0,3Zm-8,0h-4a1.5,1.5,0,0,1,0-3h4a1.5,1.5,0,0,1,0,3Zm-8,0h-4a1.5,1.5,0,0,1,0-3h4a1.5,1.5,0,0,1,0,3Zm-8,0h-4a1.5,1.5,0,0,1,0-3h4a1.5,1.5,0,0,1,0,3Zm-8,0h-4a1.5,1.5,0,0,1,0-3h4a1.5,1.5,0,0,1,0,3Z"/><path class="cls-3" d="M53.43,118a1.52,1.52,0,0,1-1-.36A13.8,13.8,0,0,1,68.06,95.06a1.5,1.5,0,0,1-1.44,2.64,10.8,10.8,0,0,0-12.21,17.67,1.5,1.5,0,0,1-1,2.64Z"/><path class="cls-3" d="M38.49,101h0a6.33,6.33,0,0,1,0-12.66h0a6.33,6.33,0,1,1,0,12.66Zm0-9.66h0a3.33,3.33,0,0,0,0,6.66v0a3.33,3.33,0,0,0,3.32-3.34A3.33,3.33,0,0,0,38.48,91.32Z"/><path class="cls-3" d="M51.68,88.68h0a6.36,6.36,0,0,1-6.33-6.33A6.35,6.35,0,0,1,51.68,76h0A6.35,6.35,0,0,1,58,82.35,6.35,6.35,0,0,1,51.68,88.68Zm0-3a3.25,3.25,0,0,0,2.37-1A3.34,3.34,0,0,0,51.69,79h0a3.34,3.34,0,0,0,0,6.68Z"/><path class="cls-3" d="M70.58,88.68h0a6.34,6.34,0,0,1,0-12.68h0a6.34,6.34,0,0,1,0,12.68Zm0-9.68a3.34,3.34,0,0,0,0,6.68h0a3.34,3.34,0,0,0,0-6.68Z"/></g></g></svg>