<svg xmlns="http://www.w3.org/2000/svg" viewBox="0 0 171 242"><defs><style>.cls-1{fill:#d8d8d8;fill-opacity:0.5;}.cls-2{isolation:isolate;}.cls-3,.cls-4{fill:#454f5b;}.cls-4{fill-rule:evenodd;}</style></defs><g id="Layer_13" data-name="Layer 13"><g id="Layer_2" data-name="Layer 2"><g id="Layer_1-2" data-name="Layer 1-2"><path class="cls-1" d="M20,0H151a20.06,20.06,0,0,1,20,20V151a20.06,20.06,0,0,1-20,20H20A20.06,20.06,0,0,1,0,151V20A20.06,20.06,0,0,1,20,0Z"/><g class="cls-2"><g class="cls-2"><path class="cls-3" d="M65.64,193.29l-2.43-3.51H60.53v3.51H57.61v-12.6h5.46c3.37,0,5.47,1.74,5.47,4.57a4.09,4.09,0,0,1-2.59,4l2.83,4Zm-2.73-10.23H60.53v4.4h2.38c1.78,0,2.68-.83,2.68-2.2S64.69,183.06,62.91,183.06Z"/></g><g class="cls-2"><path class="cls-3" d="M80.08,189.24H72.75a2.58,2.58,0,0,0,2.78,1.94,3.29,3.29,0,0,0,2.43-.93l1.49,1.62a5.09,5.09,0,0,1-4,1.56c-3.35,0-5.52-2.1-5.52-5a4.93,4.93,0,0,1,5.16-5,4.8,4.8,0,0,1,5,5C80.14,188.7,80.1,189,80.08,189.24Zm-7.36-1.64h4.77a2.31,2.31,0,0,0-2.38-2A2.29,2.29,0,0,0,72.72,187.6Z"/></g><g class="cls-2"><path class="cls-3" d="M90.31,187.76v5.53H87.68v-1.21a3.16,3.16,0,0,1-3,1.35c-2.27,0-3.62-1.26-3.62-2.93s1.2-2.9,4.16-2.9H87.5c0-1.21-.72-1.91-2.23-1.91a4.68,4.68,0,0,0-2.8.9l-1-2a7.41,7.41,0,0,1,4.17-1.17C88.6,183.46,90.31,184.83,90.31,187.76Zm-2.81,2.47v-1H85.57c-1.31,0-1.73.48-1.73,1.13s.6,1.17,1.59,1.17A2.08,2.08,0,0,0,87.5,190.23Z"/></g><g class="cls-2"><path class="cls-3" d="M102.81,179.93v13.36h-2.68v-1.12a3.71,3.71,0,0,1-3,1.26,5,5,0,0,1,0-10,3.72,3.72,0,0,1,2.89,1.17v-4.7Zm-2.75,8.52a2.48,2.48,0,1,0-2.47,2.68A2.46,2.46,0,0,0,100.06,188.45Z"/><path class="cls-3" d="M115,183.6l-4.38,10.28c-.93,2.34-2.27,3.05-4,3.05a4.29,4.29,0,0,1-2.7-.89l1-2a2.54,2.54,0,0,0,1.59.61c.77,0,1.2-.34,1.58-1.21l0-.09L104,183.6h2.9l2.72,6.57,2.74-6.57Z"/></g><g class="cls-2"><path class="cls-3" d="M66.23,202.29v12.6H65V204.81l-5,8.48h-.63l-4.95-8.43v10H53.14v-12.6h1.1l5.47,9.34,5.42-9.34Z"/></g><g class="cls-2"><path class="cls-3" d="M78.31,210.55H70.39a3.5,3.5,0,0,0,3.72,3.3A3.72,3.72,0,0,0,77,212.6l.72.83a5,5,0,0,1-8.62-3.28,4.56,4.56,0,0,1,4.63-4.8,4.51,4.51,0,0,1,4.59,4.8C78.33,210.26,78.31,210.41,78.31,210.55Zm-7.92-1H77.1a3.36,3.36,0,0,0-6.71,0Z"/></g><g class="cls-2"><path class="cls-3" d="M87.81,209v5.87H86.59v-1.48A3.56,3.56,0,0,1,83.33,215c-2.15,0-3.46-1.12-3.46-2.76,0-1.45.94-2.68,3.66-2.68h3V209c0-1.62-.92-2.51-2.68-2.51a4.85,4.85,0,0,0-3.15,1.12l-.58-1A6.09,6.09,0,0,1,84,205.35C86.42,205.35,87.81,206.57,87.81,209Zm-1.28,3V210.5h-3c-1.84,0-2.43.72-2.43,1.69S82,214,83.53,214A3,3,0,0,0,86.53,212Z"/><path class="cls-3" d="M91.28,201.53h1.28v13.36H91.28Z"/><path class="cls-3" d="M94.81,213.81l.58-1a5.65,5.65,0,0,0,3.36,1.06c1.8,0,2.54-.61,2.54-1.55,0-2.46-6.14-.52-6.14-4.26,0-1.55,1.33-2.7,3.75-2.7a6.45,6.45,0,0,1,3.35.88l-.56,1a4.9,4.9,0,0,0-2.79-.8c-1.71,0-2.47.66-2.47,1.56,0,2.56,6.14.63,6.14,4.27,0,1.64-1.44,2.7-3.91,2.7A6.3,6.3,0,0,1,94.81,213.81Z"/><path class="cls-3" d="M118.93,215.09l-1.74-1.8A5.6,5.6,0,0,1,113,215c-2.46,0-4.23-1.3-4.23-3.21,0-1.49.87-2.59,3.17-3.92-1.22-1.26-1.58-2-1.58-3,0-1.6,1.24-2.68,3.18-2.68,1.79,0,2.94.93,2.94,2.5,0,1.26-.76,2.14-2.81,3.33l3.46,3.56a8,8,0,0,0,.84-2.43l1,.33a9,9,0,0,1-1.12,2.9l1.8,1.85Zm-2.5-2.58-3.8-3.9c-2,1.15-2.63,1.94-2.63,3.06,0,1.37,1.23,2.27,3,2.27A4.36,4.36,0,0,0,116.43,212.51Zm-4.92-7.65c0,.74.27,1.26,1.43,2.43,1.82-1,2.41-1.67,2.41-2.57s-.67-1.57-1.84-1.57S111.51,203.85,111.51,204.86Z"/></g><g class="cls-2"><path class="cls-3" d="M48.64,223.89h5.13c4,0,6.76,2.59,6.76,6.3s-2.72,6.3-6.76,6.3H48.64Zm5.06,11.45c3.35,0,5.51-2.13,5.51-5.15S57.05,225,53.7,225H50v10.3Z"/><path class="cls-3" d="M71.49,232.15H63.56a3.52,3.52,0,0,0,3.73,3.3,3.74,3.74,0,0,0,2.9-1.25l.72.83a5,5,0,0,1-8.62-3.28,4.56,4.56,0,0,1,4.62-4.8,4.51,4.51,0,0,1,4.59,4.8C71.5,231.86,71.49,232,71.49,232.15Zm-7.93-1h6.72a3.37,3.37,0,0,0-6.72,0Z"/><path class="cls-3" d="M72.8,235.41l.57-1a5.7,5.7,0,0,0,3.37,1.06c1.8,0,2.54-.61,2.54-1.54,0-2.47-6.14-.53-6.14-4.27,0-1.55,1.33-2.7,3.75-2.7a6.39,6.39,0,0,1,3.34.88l-.55,1a4.83,4.83,0,0,0-2.79-.81c-1.72,0-2.47.66-2.47,1.56,0,2.56,6.14.63,6.14,4.27,0,1.64-1.44,2.7-3.91,2.7A6.28,6.28,0,0,1,72.8,235.41Z"/><path class="cls-3" d="M81.6,235.41l.58-1a5.65,5.65,0,0,0,3.36,1.06c1.8,0,2.54-.61,2.54-1.54,0-2.47-6.14-.53-6.14-4.27,0-1.55,1.33-2.7,3.75-2.7a6.45,6.45,0,0,1,3.35.88l-.56,1a4.83,4.83,0,0,0-2.79-.81c-1.71,0-2.47.66-2.47,1.56,0,2.56,6.14.63,6.14,4.27,0,1.64-1.44,2.7-3.91,2.7A6.3,6.3,0,0,1,81.6,235.41Z"/><path class="cls-3" d="M100,232.15H92a3.51,3.51,0,0,0,3.73,3.3,3.74,3.74,0,0,0,2.9-1.25l.72.83a5,5,0,0,1-8.63-3.28,4.56,4.56,0,0,1,4.63-4.8,4.51,4.51,0,0,1,4.59,4.8C100,231.86,100,232,100,232.15Zm-7.92-1h6.72a3.37,3.37,0,0,0-6.72,0Z"/></g><g class="cls-2"><path class="cls-3" d="M107.35,227v1.24l-.3,0c-2,0-3.19,1.26-3.19,3.5v4.82h-1.28V227h1.23v1.85A3.56,3.56,0,0,1,107.35,227Z"/></g><g class="cls-2"><path class="cls-3" d="M115.06,235.91a3,3,0,0,1-2,.67,2.51,2.51,0,0,1-2.77-2.75V228.1H108.6V227h1.69V225h1.28V227h2.88v1.08h-2.88v5.65a1.51,1.51,0,0,0,1.64,1.73,2.12,2.12,0,0,0,1.4-.48Z"/><path class="cls-3" d="M116.07,235.41l.57-1a5.7,5.7,0,0,0,3.37,1.06c1.8,0,2.54-.61,2.54-1.54,0-2.47-6.14-.53-6.14-4.27,0-1.55,1.33-2.7,3.74-2.7a6.4,6.4,0,0,1,3.35.88l-.56,1a4.79,4.79,0,0,0-2.79-.81c-1.71,0-2.46.66-2.46,1.56,0,2.56,6.14.63,6.14,4.27,0,1.64-1.44,2.7-3.91,2.7A6.28,6.28,0,0,1,116.07,235.41Z"/></g></g><path class="cls-4" d="M35.13,89.3V86.52a2,2,0,0,1,2-2h3.26a19,19,0,0,1-.11-2A17.68,17.68,0,0,1,52.34,65.8,15.71,15.71,0,0,1,67.78,53.09a16.35,16.35,0,0,1,3.94.49V38.14a2,2,0,0,1,2-2,25.59,25.59,0,0,1,25.53,25.5,26,26,0,0,1,5.9-.68,25.62,25.62,0,0,1,25.5,23.6h3.22a2,2,0,0,1,2,2V89.3c0,17.19-11,33.7-27.54,39.2v6.36a2,2,0,0,1-2,2H64.63a2,2,0,0,1-2-2v-6.35A37.44,37.44,0,0,1,42.12,112.7,2,2,0,1,1,45.05,110a1.87,1.87,0,0,1,.39.61,33.69,33.69,0,0,0,19.28,14.48h41.52c14.88-4.52,25.65-19.49,25.65-35.73v-.85H39.07v.81a38.48,38.48,0,0,0,.83,7.34,2,2,0,0,1-3.7,1.52,2,2,0,0,1-.14-.72A41.28,41.28,0,0,1,35.13,89.3ZM66.6,129v3.94h37.77V129Zm38.55-52.31a9.85,9.85,0,0,0-9.64,7.87h-4a13.77,13.77,0,0,1,27.25,0h-4A9.83,9.83,0,0,0,105.15,76.69Zm0,3.93a5.93,5.93,0,0,0-5.57,3.94h11.13A5.9,5.9,0,0,0,105.15,80.62Zm21.54,3.94h-4a17.7,17.7,0,0,0-35.18,0h-4a21.64,21.64,0,0,1,43.09,0ZM95.31,62.93V61.74A21.64,21.64,0,0,0,75.65,40.2V84.56h4A25.61,25.61,0,0,1,95.31,62.93ZM44.18,82.59A13.75,13.75,0,0,1,54.57,69.24a2,2,0,0,0,1.48-1.7A11.8,11.8,0,0,1,71.72,57.7V84.56H67.78V66.86a2,2,0,0,0-1.59-2.34h0a2,2,0,0,0-2.34,1.59h0a2.36,2.36,0,0,0,0,.75v16L55.1,77a2,2,0,0,0-2.18,3.27l6.4,4.27h-15A16,16,0,0,1,44.18,82.59Zm-5.9,22a2,2,0,1,1,2,2A2,2,0,0,1,38.28,104.59Z"/></g></g></g></svg>