<svg xmlns="http://www.w3.org/2000/svg" viewBox="0 0 171 242"><defs><style>.cls-1{fill:#d8d8d8;fill-opacity:0.5;}.cls-2{isolation:isolate;}.cls-3{fill:#454f5b;}</style></defs><g id="Layer_3" data-name="Layer 3"><g id="Layer_2" data-name="Layer 2"><g id="Layer_1-2" data-name="Layer 1-2"><path class="cls-1" d="M20,0H151a20.06,20.06,0,0,1,20,20V151a20.06,20.06,0,0,1-20,20H20A20.06,20.06,0,0,1,0,151V20A20.06,20.06,0,0,1,20,0Z"/><g class="cls-2"><g class="cls-2"><path class="cls-3" d="M56.78,203.05l1-2.2a7.48,7.48,0,0,0,4.16,1.32c1.73,0,2.43-.58,2.43-1.35,0-2.36-7.32-.74-7.32-5.42,0-2.15,1.72-3.93,5.31-3.93a8.43,8.43,0,0,1,4.37,1.12l-.9,2.21a7.06,7.06,0,0,0-3.49-1c-1.73,0-2.39.65-2.39,1.44,0,2.32,7.32.72,7.32,5.35,0,2.11-1.74,3.91-5.34,3.91A9.05,9.05,0,0,1,56.78,203.05Z"/></g><g class="cls-2"><path class="cls-3" d="M84.43,194.6l-3.51,9.69h-2.7l-2.18-6-2.25,6h-2.7L67.6,194.6h2.64l2.29,6.56,2.38-6.56h2.37l2.31,6.56L82,194.6Z"/></g><g class="cls-2"><path class="cls-3" d="M94.91,200.24H87.58a2.58,2.58,0,0,0,2.78,1.94,3.29,3.29,0,0,0,2.43-.93l1.49,1.62a5.09,5.09,0,0,1-4,1.56c-3.35,0-5.52-2.1-5.52-5a4.93,4.93,0,0,1,5.16-5,4.8,4.8,0,0,1,5,5C95,199.7,94.93,200,94.91,200.24Zm-7.36-1.64h4.77a2.42,2.42,0,0,0-4.77,0Z"/><path class="cls-3" d="M106.27,200.24H98.94a2.58,2.58,0,0,0,2.77,1.94,3.26,3.26,0,0,0,2.43-.93l1.5,1.62a5.09,5.09,0,0,1-4,1.56c-3.35,0-5.53-2.1-5.53-5a4.94,4.94,0,0,1,5.17-5,4.79,4.79,0,0,1,5,5C106.32,199.7,106.29,200,106.27,200.24Zm-7.36-1.64h4.77a2.31,2.31,0,0,0-2.38-2A2.29,2.29,0,0,0,98.91,198.6Z"/><path class="cls-3" d="M114.44,203.82a4,4,0,0,1-2.29.61c-2.28,0-3.62-1.17-3.62-3.47v-4H107v-2.16h1.49v-2.36h2.81v2.36h2.42V197h-2.42v3.94a1.13,1.13,0,0,0,1.21,1.28,1.84,1.84,0,0,0,1.13-.36Z"/></g><g class="cls-2"><path class="cls-3" d="M41.35,219.59a6.33,6.33,0,0,1,6.6-6.41A6.1,6.1,0,0,1,52.56,215l-.84.85A5,5,0,0,0,48,214.37a5.22,5.22,0,1,0,0,10.44,5,5,0,0,0,3.73-1.51l.84.84A6.09,6.09,0,0,1,47.94,226,6.32,6.32,0,0,1,41.35,219.59Z"/></g><g class="cls-2"><path class="cls-3" d="M63.35,216.42v9.47H62.12v-1.73a3.76,3.76,0,0,1-3.4,1.82c-2.41,0-4-1.35-4-4.07v-5.49H56v5.36c0,2,1,3.05,2.85,3.05,2,0,3.22-1.28,3.22-3.44v-5Z"/><path class="cls-3" d="M76.52,221.15A4.58,4.58,0,0,1,71.81,226a4.16,4.16,0,0,1-3.61-1.87v5.27H66.93v-13h1.22v1.87a4.13,4.13,0,0,1,3.66-1.94A4.57,4.57,0,0,1,76.52,221.15Zm-1.28,0a3.53,3.53,0,1,0-3.52,3.7A3.49,3.49,0,0,0,75.24,221.15Z"/><path class="cls-3" d="M88.73,221.15A4.6,4.6,0,0,1,84,226a4.11,4.11,0,0,1-3.66-2v1.87H79.13V212.53h1.28v5.69a4.14,4.14,0,0,1,3.6-1.87A4.58,4.58,0,0,1,88.73,221.15Zm-1.28,0a3.53,3.53,0,1,0-3.53,3.7A3.48,3.48,0,0,0,87.45,221.15Z"/></g><g class="cls-2"><path class="cls-3" d="M90.38,221.15A4.82,4.82,0,1,1,95.2,226,4.65,4.65,0,0,1,90.38,221.15Zm8.33,0a3.52,3.52,0,1,0-3.51,3.7A3.45,3.45,0,0,0,98.71,221.15Z"/></g><g class="cls-2"><path class="cls-3" d="M109.71,220v5.87h-1.22v-1.48a3.56,3.56,0,0,1-3.26,1.57c-2.15,0-3.46-1.12-3.46-2.76,0-1.45.94-2.68,3.66-2.68h3V220c0-1.62-.92-2.51-2.68-2.51a4.83,4.83,0,0,0-3.15,1.12l-.58-1a6.09,6.09,0,0,1,3.86-1.27C108.32,216.35,109.71,217.57,109.71,220Zm-1.28,3V221.5h-3c-1.84,0-2.43.72-2.43,1.69s.88,1.78,2.4,1.78A3,3,0,0,0,108.43,223Z"/></g><g class="cls-2"><path class="cls-3" d="M118,216.35v1.24l-.3,0c-2,0-3.19,1.26-3.19,3.49v4.83h-1.28v-9.47h1.23v1.85A3.56,3.56,0,0,1,118,216.35Z"/></g><g class="cls-2"><path class="cls-3" d="M128.82,212.53v13.36h-1.23V224a4.09,4.09,0,0,1-3.65,2,4.82,4.82,0,0,1,0-9.63,4.15,4.15,0,0,1,3.6,1.87v-5.69Zm-1.27,8.62a3.52,3.52,0,1,0-3.51,3.7A3.46,3.46,0,0,0,127.55,221.15Z"/></g></g><path class="cls-3" d="M124.39,116.8a5.38,5.38,0,1,1,5.38-5.38A5.38,5.38,0,0,1,124.39,116.8Zm0-7.76a2.38,2.38,0,1,0,2.38,2.38A2.39,2.39,0,0,0,124.39,109Z"/><path class="cls-3" d="M120.83,133.42h0a5.37,5.37,0,0,1,0-10.74h0a5.37,5.37,0,0,1,0,10.74Zm0-7.74h0a2.37,2.37,0,0,0,0,4.74l0,1.5v-1.5a2.31,2.31,0,0,0,1.67-.7,2.36,2.36,0,0,0,.69-1.68,2.31,2.31,0,0,0-.7-1.67A2.34,2.34,0,0,0,120.81,125.68Z"/><path class="cls-3" d="M142.52,136.44h0a4.11,4.11,0,0,1,0-8.22h0a4.11,4.11,0,0,1,0,8.22Zm0-5.22h0a1.11,1.11,0,1,0,0,2.22v0a1.11,1.11,0,1,0,0-2.22Z"/><path class="cls-3" d="M136.57,127.65h0a6.8,6.8,0,0,1,0-13.6h0a6.8,6.8,0,0,1,0,13.6Zm0-10.6h0a3.8,3.8,0,0,0,0,7.6l0,1.5v-1.5a3.8,3.8,0,1,0,0-7.6Z"/><path class="cls-3" d="M133.76,139.67a22.13,22.13,0,0,1-.09-44.26l.09,1.5v1.5a19.13,19.13,0,0,0,0,38.26h.07a19.16,19.16,0,0,0,19.06-19.2,1.5,1.5,0,0,1,1.49-1.51h0a1.5,1.5,0,0,1,1.5,1.49,22.12,22.12,0,0,1-22,22.22Z"/><path class="cls-3" d="M135.93,102.5a1.52,1.52,0,0,1-.84-.25,6.41,6.41,0,0,1-2.83-5.33,1.5,1.5,0,0,1,1.5-1.5h0a1.5,1.5,0,0,1,1.5,1.5,3.38,3.38,0,0,0,1.51,2.83,1.5,1.5,0,0,1-.84,2.75Z"/><path class="cls-3" d="M154.17,119.13H154a6.48,6.48,0,0,1-5-3.3,1.5,1.5,0,0,1,2.62-1.46,3.5,3.5,0,0,0,2.72,1.78,1.5,1.5,0,0,1-.15,3Z"/><path class="cls-3" d="M140.52,110.11a6.79,6.79,0,0,1-4.8-2,6.69,6.69,0,0,1-1.28-7.79,1.5,1.5,0,0,1,2.68,1.34,3.71,3.71,0,0,0,.71,4.32,3.78,3.78,0,0,0,4.36.73,1.5,1.5,0,0,1,1.34,2.68A6.72,6.72,0,0,1,140.52,110.11Z"/><path class="cls-3" d="M147.79,117.05a6.75,6.75,0,0,1-6.07-9.71,1.5,1.5,0,0,1,2.7,1.32,3.75,3.75,0,0,0,5,5,1.5,1.5,0,0,1,1.34,2.68A6.76,6.76,0,0,1,147.79,117.05Z"/><path class="cls-3" d="M138.12,92.6a1.46,1.46,0,0,1-.84-.26,1.49,1.49,0,0,1-.4-2.08,7.82,7.82,0,0,0-12.95-8.78,1.5,1.5,0,0,1-2.48-1.68,10.82,10.82,0,1,1,17.91,12.14A1.49,1.49,0,0,1,138.12,92.6Z"/><path class="cls-3" d="M114.57,89.86a1.57,1.57,0,0,1-.7-.17,10.82,10.82,0,1,1,10.06-19.17,1.5,1.5,0,0,1-1.4,2.66A7.82,7.82,0,1,0,115.27,87a1.5,1.5,0,0,1-.7,2.83Z"/><path class="cls-3" d="M97.85,87.77a10.81,10.81,0,0,1-8.58-17.41,7.58,7.58,0,0,1,.58-.63A1.5,1.5,0,1,1,92,71.85c-.13.14-.26.27-.38.41a7.82,7.82,0,0,0,11.81,10.2,1.5,1.5,0,1,1,2.12,2.12A10.8,10.8,0,0,1,97.85,87.77Z"/><path class="cls-3" d="M79.83,80.5a1.53,1.53,0,0,1-.91-.3A10.85,10.85,0,1,1,92,62.91a1.51,1.51,0,1,1-1.82,2.4A7.84,7.84,0,1,0,80.74,77.8a1.5,1.5,0,0,1-.91,2.7Z"/><path class="cls-3" d="M76.05,88A10.81,10.81,0,0,1,68.71,69.2c.25-.22.46-.41.7-.59A1.5,1.5,0,1,1,71.23,71c-.18.14-.33.28-.49.42A7.82,7.82,0,0,0,81.35,82.9a1.5,1.5,0,1,1,2,2.2A10.77,10.77,0,0,1,76.05,88Z"/><path class="cls-3" d="M128.87,70.73a1.73,1.73,0,0,1-.38,0,1.5,1.5,0,0,1-1.07-1.83l.08-.29,0-.18a7.83,7.83,0,1,0-15.38-3,1.5,1.5,0,0,1-2.94-.58,10.83,10.83,0,0,1,21.28,4,2.86,2.86,0,0,1-.14.67l0,.1A1.5,1.5,0,0,1,128.87,70.73Zm-1.37-2.07Z"/><path class="cls-3" d="M55.1,92a1.51,1.51,0,0,1-1.47-1.18,10.85,10.85,0,0,1,7.59-13.26,1.5,1.5,0,1,1,.8,2.9,7.84,7.84,0,0,0-5.47,9.64,1.83,1.83,0,0,1,.05.4A1.5,1.5,0,0,1,55.1,92Z"/><path class="cls-3" d="M97.56,77.06a1.5,1.5,0,0,1-.36-3,7.82,7.82,0,1,0-3.7-15.19A1.5,1.5,0,0,1,92.78,56a10.82,10.82,0,0,1,5.14,21A1.47,1.47,0,0,1,97.56,77.06Z"/><path class="cls-3" d="M114.12,139.11H83.69a1.5,1.5,0,0,1,0-3h30.43a1.5,1.5,0,0,1,0,3Z"/><path class="cls-3" d="M98.91,137.55c-6.58,0-13.15-.45-15.71-1.34a47.83,47.83,0,0,1-32-45.1,1.5,1.5,0,0,1,1.5-1.5h92.49a1.5,1.5,0,0,1,1.5,1.46,40.65,40.65,0,0,1-1.35,11.52,1.5,1.5,0,1,1-2.9-.76,37.87,37.87,0,0,0,1.26-9.22H54.22a44.79,44.79,0,0,0,30,40.76c4.39,1.54,25,1.54,29.45,0a1.5,1.5,0,0,1,1,2.84C112.05,137.1,105.48,137.55,98.91,137.55Z"/><path class="cls-3" d="M75.71,139.11H16.61a1.51,1.51,0,0,1-1.1-.48,1.46,1.46,0,0,1-.39-1.14c0-.39,3.15-38.49,3.16-51,0-12.79-3.13-51-3.16-51.36A1.47,1.47,0,0,1,15.51,34a1.51,1.51,0,0,1,1.1-.48H92a1.48,1.48,0,0,1,1.09.47,1.53,1.53,0,0,1,.41,1.13s-.26,4-1.08,15.82a1.5,1.5,0,0,1-3-.2c.54-7.73.84-12.11,1-14.22H18.24c.6,7.47,3,38.6,3,50,0,11.15-2.45,42.18-3,49.63H75.71a1.5,1.5,0,0,1,0,3Z"/><path class="cls-3" d="M26,46.39a1.5,1.5,0,0,1-1.5-1.5v-3a1.5,1.5,0,0,1,3,0v3A1.5,1.5,0,0,1,26,46.39Z"/><path class="cls-3" d="M35.44,46.39a1.5,1.5,0,0,1-1.5-1.5v-3a1.5,1.5,0,0,1,3,0v3A1.5,1.5,0,0,1,35.44,46.39Z"/><path class="cls-3" d="M44.86,46.39a1.5,1.5,0,0,1-1.5-1.5v-3a1.5,1.5,0,0,1,3,0v3A1.5,1.5,0,0,1,44.86,46.39Z"/><path class="cls-3" d="M54.28,46.39a1.5,1.5,0,0,1-1.5-1.5v-3a1.5,1.5,0,0,1,3,0v3A1.5,1.5,0,0,1,54.28,46.39Z"/><path class="cls-3" d="M63.71,46.39a1.5,1.5,0,0,1-1.5-1.5v-3a1.5,1.5,0,1,1,3,0v3A1.5,1.5,0,0,1,63.71,46.39Z"/><path class="cls-3" d="M73.13,46.39a1.5,1.5,0,0,1-1.5-1.5v-3a1.5,1.5,0,0,1,3,0v3A1.5,1.5,0,0,1,73.13,46.39Z"/><path class="cls-3" d="M82.55,46.39a1.5,1.5,0,0,1-1.5-1.5v-3a1.5,1.5,0,0,1,3,0v3A1.5,1.5,0,0,1,82.55,46.39Z"/><path class="cls-3" d="M26,133.5a1.5,1.5,0,0,1-1.5-1.5v-3a1.5,1.5,0,0,1,3,0v3A1.5,1.5,0,0,1,26,133.5Z"/><path class="cls-3" d="M35.44,133.5a1.5,1.5,0,0,1-1.5-1.5v-3a1.5,1.5,0,0,1,3,0v3A1.5,1.5,0,0,1,35.44,133.5Z"/><path class="cls-3" d="M44.86,133.5a1.5,1.5,0,0,1-1.5-1.5v-3a1.5,1.5,0,0,1,3,0v3A1.5,1.5,0,0,1,44.86,133.5Z"/><path class="cls-3" d="M54.28,133.5a1.5,1.5,0,0,1-1.5-1.5v-3a1.5,1.5,0,0,1,3,0v3A1.5,1.5,0,0,1,54.28,133.5Z"/><path class="cls-3" d="M63.71,133.5a1.5,1.5,0,0,1-1.5-1.5v-3a1.5,1.5,0,1,1,3,0v3A1.5,1.5,0,0,1,63.71,133.5Z"/><path class="cls-3" d="M124.39,116.8a5.38,5.38,0,1,1,5.38-5.38A5.38,5.38,0,0,1,124.39,116.8Zm0-7.76a2.38,2.38,0,1,0,2.38,2.38A2.39,2.39,0,0,0,124.39,109Z"/><path class="cls-3" d="M120.83,133.42h0a5.37,5.37,0,0,1,0-10.74h0a5.37,5.37,0,0,1,0,10.74Zm0-7.74h0a2.37,2.37,0,0,0,0,4.74l0,1.5v-1.5a2.31,2.31,0,0,0,1.67-.7,2.36,2.36,0,0,0,.69-1.68,2.31,2.31,0,0,0-.7-1.67A2.34,2.34,0,0,0,120.81,125.68Z"/><path class="cls-3" d="M142.52,136.44h0a4.11,4.11,0,0,1,0-8.22h0a4.11,4.11,0,0,1,0,8.22Zm0-5.22h0a1.11,1.11,0,1,0,0,2.22v0a1.11,1.11,0,1,0,0-2.22Z"/><path class="cls-3" d="M136.57,127.65h0a6.8,6.8,0,0,1,0-13.6h0a6.8,6.8,0,0,1,0,13.6Zm0-10.6h0a3.8,3.8,0,0,0,0,7.6l0,1.5v-1.5a3.8,3.8,0,1,0,0-7.6Z"/><path class="cls-3" d="M133.76,139.67a22.13,22.13,0,0,1-.09-44.26l.09,1.5v1.5a19.13,19.13,0,0,0,0,38.26h.07a19.16,19.16,0,0,0,19.06-19.2,1.5,1.5,0,0,1,1.49-1.51h0a1.5,1.5,0,0,1,1.5,1.49,22.12,22.12,0,0,1-22,22.22Z"/><path class="cls-3" d="M135.93,102.5a1.52,1.52,0,0,1-.84-.25,6.41,6.41,0,0,1-2.83-5.33,1.5,1.5,0,0,1,1.5-1.5h0a1.5,1.5,0,0,1,1.5,1.5,3.38,3.38,0,0,0,1.51,2.83,1.5,1.5,0,0,1-.84,2.75Z"/><path class="cls-3" d="M154.17,119.13H154a6.48,6.48,0,0,1-5-3.3,1.5,1.5,0,0,1,2.62-1.46,3.5,3.5,0,0,0,2.72,1.78,1.5,1.5,0,0,1-.15,3Z"/><path class="cls-3" d="M140.52,110.11a6.79,6.79,0,0,1-4.8-2,6.69,6.69,0,0,1-1.28-7.79,1.5,1.5,0,0,1,2.68,1.34,3.71,3.71,0,0,0,.71,4.32,3.78,3.78,0,0,0,4.36.73,1.5,1.5,0,0,1,1.34,2.68A6.72,6.72,0,0,1,140.52,110.11Z"/><path class="cls-3" d="M147.79,117.05a6.75,6.75,0,0,1-6.07-9.71,1.5,1.5,0,0,1,2.7,1.32,3.75,3.75,0,0,0,5,5,1.5,1.5,0,0,1,1.34,2.68A6.76,6.76,0,0,1,147.79,117.05Z"/><path class="cls-3" d="M138.12,92.6a1.46,1.46,0,0,1-.84-.26,1.49,1.49,0,0,1-.4-2.08,7.82,7.82,0,0,0-12.95-8.78,1.5,1.5,0,0,1-2.48-1.68,10.82,10.82,0,1,1,17.91,12.14A1.49,1.49,0,0,1,138.12,92.6Z"/><path class="cls-3" d="M114.57,89.86a1.57,1.57,0,0,1-.7-.17,10.82,10.82,0,1,1,10.06-19.17,1.5,1.5,0,0,1-1.4,2.66A7.82,7.82,0,1,0,115.27,87a1.5,1.5,0,0,1-.7,2.83Z"/><path class="cls-3" d="M97.85,87.77a10.81,10.81,0,0,1-8.58-17.41,7.58,7.58,0,0,1,.58-.63A1.5,1.5,0,1,1,92,71.85c-.13.14-.26.27-.38.41a7.82,7.82,0,0,0,11.81,10.2,1.5,1.5,0,1,1,2.12,2.12A10.8,10.8,0,0,1,97.85,87.77Z"/><path class="cls-3" d="M79.83,80.5a1.53,1.53,0,0,1-.91-.3A10.85,10.85,0,1,1,92,62.91a1.51,1.51,0,1,1-1.82,2.4A7.84,7.84,0,1,0,80.74,77.8a1.5,1.5,0,0,1-.91,2.7Z"/><path class="cls-3" d="M76.05,88A10.81,10.81,0,0,1,68.71,69.2c.25-.22.46-.41.7-.59A1.5,1.5,0,1,1,71.23,71c-.18.14-.33.28-.49.42A7.82,7.82,0,0,0,81.35,82.9a1.5,1.5,0,1,1,2,2.2A10.77,10.77,0,0,1,76.05,88Z"/><path class="cls-3" d="M128.87,70.73a1.73,1.73,0,0,1-.38,0,1.5,1.5,0,0,1-1.07-1.83l.08-.29,0-.18a7.83,7.83,0,1,0-15.38-3,1.5,1.5,0,0,1-2.94-.58,10.83,10.83,0,0,1,21.28,4,2.86,2.86,0,0,1-.14.67l0,.1A1.5,1.5,0,0,1,128.87,70.73Zm-1.37-2.07Z"/><path class="cls-3" d="M55.1,92a1.51,1.51,0,0,1-1.47-1.18,10.85,10.85,0,0,1,7.59-13.26,1.5,1.5,0,1,1,.8,2.9,7.84,7.84,0,0,0-5.47,9.64,1.83,1.83,0,0,1,.05.4A1.5,1.5,0,0,1,55.1,92Z"/><path class="cls-3" d="M97.56,77.06a1.5,1.5,0,0,1-.36-3,7.82,7.82,0,1,0-3.7-15.19A1.5,1.5,0,0,1,92.78,56a10.82,10.82,0,0,1,5.14,21A1.47,1.47,0,0,1,97.56,77.06Z"/><path class="cls-3" d="M114.12,139.11H83.69a1.5,1.5,0,0,1,0-3h30.43a1.5,1.5,0,0,1,0,3Z"/><path class="cls-3" d="M98.91,137.55c-6.58,0-13.15-.45-15.71-1.34a47.83,47.83,0,0,1-32-45.1,1.5,1.5,0,0,1,1.5-1.5h92.49a1.5,1.5,0,0,1,1.5,1.46,40.65,40.65,0,0,1-1.35,11.52,1.5,1.5,0,1,1-2.9-.76,37.87,37.87,0,0,0,1.26-9.22H54.22a44.79,44.79,0,0,0,30,40.76c4.39,1.54,25,1.54,29.45,0a1.5,1.5,0,0,1,1,2.84C112.05,137.1,105.48,137.55,98.91,137.55Z"/><path class="cls-3" d="M75.71,139.11H16.61a1.51,1.51,0,0,1-1.1-.48,1.46,1.46,0,0,1-.39-1.14c0-.39,3.15-38.49,3.16-51,0-12.79-3.13-51-3.16-51.36A1.47,1.47,0,0,1,15.51,34a1.51,1.51,0,0,1,1.1-.48H92a1.48,1.48,0,0,1,1.09.47,1.53,1.53,0,0,1,.41,1.13s-.26,4-1.08,15.82a1.5,1.5,0,0,1-3-.2c.54-7.73.84-12.11,1-14.22H18.24c.6,7.47,3,38.6,3,50,0,11.15-2.45,42.18-3,49.63H75.71a1.5,1.5,0,0,1,0,3Z"/><path class="cls-3" d="M26,46.39a1.5,1.5,0,0,1-1.5-1.5v-3a1.5,1.5,0,0,1,3,0v3A1.5,1.5,0,0,1,26,46.39Z"/><path class="cls-3" d="M35.44,46.39a1.5,1.5,0,0,1-1.5-1.5v-3a1.5,1.5,0,0,1,3,0v3A1.5,1.5,0,0,1,35.44,46.39Z"/><path class="cls-3" d="M44.86,46.39a1.5,1.5,0,0,1-1.5-1.5v-3a1.5,1.5,0,0,1,3,0v3A1.5,1.5,0,0,1,44.86,46.39Z"/><path class="cls-3" d="M54.28,46.39a1.5,1.5,0,0,1-1.5-1.5v-3a1.5,1.5,0,0,1,3,0v3A1.5,1.5,0,0,1,54.28,46.39Z"/><path class="cls-3" d="M63.71,46.39a1.5,1.5,0,0,1-1.5-1.5v-3a1.5,1.5,0,1,1,3,0v3A1.5,1.5,0,0,1,63.71,46.39Z"/><path class="cls-3" d="M73.13,46.39a1.5,1.5,0,0,1-1.5-1.5v-3a1.5,1.5,0,0,1,3,0v3A1.5,1.5,0,0,1,73.13,46.39Z"/><path class="cls-3" d="M82.55,46.39a1.5,1.5,0,0,1-1.5-1.5v-3a1.5,1.5,0,0,1,3,0v3A1.5,1.5,0,0,1,82.55,46.39Z"/><path class="cls-3" d="M26,133.5a1.5,1.5,0,0,1-1.5-1.5v-3a1.5,1.5,0,0,1,3,0v3A1.5,1.5,0,0,1,26,133.5Z"/><path class="cls-3" d="M35.44,133.5a1.5,1.5,0,0,1-1.5-1.5v-3a1.5,1.5,0,0,1,3,0v3A1.5,1.5,0,0,1,35.44,133.5Z"/><path class="cls-3" d="M44.86,133.5a1.5,1.5,0,0,1-1.5-1.5v-3a1.5,1.5,0,0,1,3,0v3A1.5,1.5,0,0,1,44.86,133.5Z"/><path class="cls-3" d="M54.28,133.5a1.5,1.5,0,0,1-1.5-1.5v-3a1.5,1.5,0,0,1,3,0v3A1.5,1.5,0,0,1,54.28,133.5Z"/><path class="cls-3" d="M63.71,133.5a1.5,1.5,0,0,1-1.5-1.5v-3a1.5,1.5,0,1,1,3,0v3A1.5,1.5,0,0,1,63.71,133.5Z"/></g></g></g></svg>