<svg id="Layer_6" data-name="Layer 6" xmlns="http://www.w3.org/2000/svg" viewBox="0 0 171 242"><defs><style>.cls-1{fill:#d8d8d8;fill-opacity:0.5;}.cls-2{isolation:isolate;}.cls-3{fill:#454f5b;}.cls-4{fill:#444b55;}</style></defs><g id="Layer_2" data-name="Layer 2"><g id="Layer_1-2" data-name="Layer 1-2"><path class="cls-1" d="M20,0H151a20.06,20.06,0,0,1,20,20V151a20.06,20.06,0,0,1-20,20H20A20.06,20.06,0,0,1,0,151V20A20.06,20.06,0,0,1,20,0Z"/><g class="cls-2"><g class="cls-2"><path class="cls-3" d="M48.25,202.08l-5.45,12.6H39.92l-5.44-12.6h3.15l3.83,9,3.89-9Z"/></g><g class="cls-2"><path class="cls-3" d="M57.81,210.63H50.48a2.59,2.59,0,0,0,2.78,1.94,3.29,3.29,0,0,0,2.43-.93l1.49,1.62a5.09,5.09,0,0,1-4,1.56c-3.35,0-5.52-2.1-5.52-5a4.93,4.93,0,0,1,5.16-5,4.8,4.8,0,0,1,5,5C57.87,210.09,57.83,210.39,57.81,210.63ZM50.45,209h4.77a2.31,2.31,0,0,0-2.38-2A2.29,2.29,0,0,0,50.45,209Z"/><path class="cls-3" d="M69.73,205v8.07c0,3.6-2,5.26-5.44,5.26A7.9,7.9,0,0,1,59.54,217l1.11-2a5.84,5.84,0,0,0,3.42,1.1c2,0,2.85-.9,2.85-2.65V213a4,4,0,0,1-3.06,1.21,4.68,4.68,0,1,1,0-9.36,3.87,3.87,0,0,1,3.2,1.39V205ZM67,209.53a2.55,2.55,0,1,0-2.53,2.38A2.35,2.35,0,0,0,67,209.53Z"/><path class="cls-3" d="M81.77,210.63H74.44a2.59,2.59,0,0,0,2.77,1.94,3.26,3.26,0,0,0,2.43-.93l1.5,1.62a5.09,5.09,0,0,1-4,1.56c-3.35,0-5.53-2.1-5.53-5a4.94,4.94,0,0,1,5.17-5,4.79,4.79,0,0,1,5,5C81.82,210.09,81.79,210.39,81.77,210.63ZM74.41,209h4.77a2.31,2.31,0,0,0-2.38-2A2.29,2.29,0,0,0,74.41,209Z"/><path class="cls-3" d="M89.94,214.21a4,4,0,0,1-2.29.61c-2.28,0-3.62-1.17-3.62-3.47v-4H82.54v-2.16H84v-2.36h2.81v2.36h2.42v2.16H86.84v3.94a1.13,1.13,0,0,0,1.21,1.28,1.9,1.9,0,0,0,1.13-.36Z"/><path class="cls-3" d="M100.09,209.15v5.53H97.46v-1.21a3.16,3.16,0,0,1-2.95,1.35c-2.27,0-3.62-1.26-3.62-2.93s1.21-2.9,4.16-2.9h2.23c0-1.21-.72-1.91-2.23-1.91a4.65,4.65,0,0,0-2.79.9l-1-2a7.42,7.42,0,0,1,4.18-1.17C98.38,204.85,100.09,206.22,100.09,209.15Zm-2.81,2.47v-1H95.36c-1.32,0-1.73.48-1.73,1.13s.59,1.17,1.58,1.17A2.06,2.06,0,0,0,97.28,211.62Z"/><path class="cls-3" d="M113.18,209.84a4.7,4.7,0,0,1-4.83,5,3.75,3.75,0,0,1-3-1.26v1.12h-2.68V201.32h2.81V206a3.76,3.76,0,0,1,2.91-1.17A4.71,4.71,0,0,1,113.18,209.84Zm-2.85,0a2.47,2.47,0,1,0-2.46,2.68A2.45,2.45,0,0,0,110.33,209.84Z"/><path class="cls-3" d="M115.05,201.32h2.81v13.36h-2.81Z"/><path class="cls-3" d="M129.9,210.63h-7.33a2.59,2.59,0,0,0,2.77,1.94,3.3,3.3,0,0,0,2.44-.93l1.49,1.62a5.09,5.09,0,0,1-4,1.56c-3.35,0-5.52-2.1-5.52-5a4.93,4.93,0,0,1,5.16-5,4.79,4.79,0,0,1,5,5C130,210.09,129.92,210.39,129.9,210.63ZM122.54,209h4.77a2.31,2.31,0,0,0-2.38-2A2.29,2.29,0,0,0,122.54,209Z"/><path class="cls-3" d="M130.89,213.78l.93-2a6.63,6.63,0,0,0,3.37.94c1.3,0,1.78-.34,1.78-.88,0-1.59-5.85,0-5.85-3.84,0-1.83,1.66-3.13,4.48-3.13a8,8,0,0,1,3.73.85l-.93,2a5.59,5.59,0,0,0-2.8-.72c-1.26,0-1.8.4-1.8.9,0,1.66,5.86.06,5.86,3.88,0,1.79-1.68,3.07-4.58,3.07A8.33,8.33,0,0,1,130.89,213.78Z"/></g></g><path class="cls-4" d="M96.4,78.39a1.74,1.74,0,0,1,0,2.46,1.61,1.61,0,0,1-.28.24c-2.25,2.3-4.47,4.63-6.77,6.87a2.38,2.38,0,0,0-.69,2.3c.71-.63,1.35-1.26,2-1.82a22.93,22.93,0,0,1,15.8-5.26,29.64,29.64,0,0,1,6,.94,40.59,40.59,0,0,0,10,1.19,2.24,2.24,0,0,1,1.4.35,1.63,1.63,0,0,1,.35,2.28,1.65,1.65,0,0,1-1.44.66,45.55,45.55,0,0,1-11.27-1.35c-4.43-1.11-8.84-1.27-13.13.51-7.66,3.18-12,8.91-12.71,17.21a19.39,19.39,0,0,0,.62,6.39,1.2,1.2,0,0,0,.69.88q8.09,4.08,16.12,8.21a11.83,11.83,0,0,1,5.45,4.92,1.23,1.23,0,0,0,1.56.77h0a61.72,61.72,0,0,1,10.7-.39c6.47.21,12.6-1,18-4.89,7-5.06,8.34-12.84,5-19.93-2.86-6.12-7.9-9.69-14.31-11.49-.25-.07-.52-.11-.77-.19a1.63,1.63,0,0,1-1.13-1.93,1.51,1.51,0,0,1,1.63-1.23,12.66,12.66,0,0,1,3.52,1c6.59,2.49,11.68,6.7,14.35,13.31,3.1,7.69,2.07,14.82-3.79,20.92a25.13,25.13,0,0,1-11.65,6.53,39.91,39.91,0,0,1-12.6,1.18,51.27,51.27,0,0,0-9.1.45c-.47.06-.45.36-.51.7-.64,3.43-2.21,6.18-5.67,7.45a10.32,10.32,0,0,1-6.22,0,66.84,66.84,0,0,1-7-2.61q-23-8.82-45.88-17.71a11.88,11.88,0,0,1-7.73-13v-.26l-5.42,1c-1.18.22-2.35.44-3.54.63a1.47,1.47,0,0,1-1.57-.76,1.63,1.63,0,0,1,.56-2.25,1.58,1.58,0,0,1,.63-.22l6-1.12c-.08-.26-.31-.27-.47-.35L23.36,96.6a1.65,1.65,0,1,1,1-3.14,1.83,1.83,0,0,1,.32.14c2.09.92,4.17,1.86,6.25,2.79l3.91,1.7a1.26,1.26,0,0,0-.3-.71L31,91.8a1.64,1.64,0,0,1,0-1.93,1.56,1.56,0,0,1,1.63-.67,1.77,1.77,0,0,1,1.27,1q2.48,3.93,5,7.88l.36.56c.41-.37.82-.71,1.21-1.09a12,12,0,0,1,13.75-2c4.32,2.24,8.68,4.44,13,6.65.18.09.33.23.56.21V89.16a1,1,0,0,0-.31-.69c-2.18-2.43-4.34-4.88-6.54-7.29a2,2,0,0,1-.51-2.42c-.71.1-1.35.23-2,.29A17.55,17.55,0,0,1,41.9,71.88a1.91,1.91,0,0,1-.48-1,1.63,1.63,0,0,1,3-1.15,15,15,0,0,0,4.45,4.14,14.47,14.47,0,0,0,19.86-5h0c.16-.25.3-.52.44-.78.66-1.31,1.26-1.53,2.63-1a15.69,15.69,0,0,0,13.18-1c1.41-.75,2.22-.48,2.86,1a14.49,14.49,0,1,0,12-20.33A13.74,13.74,0,0,0,95.18,48c-1.53.68-2.23.36-2.85-1.22-2.33-6-6.66-9.55-12.93-10.47a15.84,15.84,0,0,0-16.85,9.87c-.53,1.32-1.12,1.63-2.47,1.27A14.48,14.48,0,0,0,42.29,57.59a13.8,13.8,0,0,0-.41,2.11A14.07,14.07,0,0,0,42,64.14a1.63,1.63,0,0,1-1,2.07l-.23.06a1.65,1.65,0,0,1-2-1.24v-.26A17.71,17.71,0,0,1,59.4,44c.39.07.56,0,.75-.4A18.91,18.91,0,0,1,78.9,33c7.22.63,12.47,4.37,15.74,10.83.25.49.43.61,1,.43a17.76,17.76,0,1,1,11.92,33.46c-.31.11-.61.21-.92.3a17.4,17.4,0,0,1-3.27.74,18.55,18.55,0,0,1-7-.43c-.1-.06-.2-.09-.29,0Zm8.43,47.31c-.33.74-.64,1.39-.93,2.06a1.67,1.67,0,0,1-3.25-.76,1.71,1.71,0,0,1,.25-.57c.35-.76.67-1.54,1-2.3.19-.37.17-.58-.24-.76-.61-.27-1.2-.57-1.79-.88q-9.3-4.74-18.58-9.51c-.45-.23-.59-.12-.76.29-.69,1.58-1.41,3.15-2.11,4.73a1.41,1.41,0,0,1-.91.9,1.67,1.67,0,0,1-1.79-.38,1.62,1.62,0,0,1-.27-1.91c.72-1.61,1.43-3.24,2.17-4.85.16-.35.2-.54-.23-.76q-10.67-5.41-21.29-10.86c-.4-.21-.58-.19-.77.26-.62,1.46-1.29,2.91-1.94,4.37a1.5,1.5,0,0,1-.89.92,1.68,1.68,0,0,1-1.8-.35,1.55,1.55,0,0,1-.3-1.84c.66-1.52,1.31-3,2-4.55.26-.54.09-.68-.38-.88A8.66,8.66,0,1,0,45.23,114c3.5,1.39,7,2.72,10.53,4.1.42.17.57,0,.73-.32.57-1.33,1.17-2.64,1.76-4A1.66,1.66,0,1,1,61.32,115c-.55,1.33-1.14,2.64-1.75,4-.2.42-.15.59.3.76q9.67,3.72,19.34,7.47c.42.17.56.08.72-.3.43-1,1-2,1.34-3a1.69,1.69,0,0,1,2.14-1.07h0l.15.06a1.67,1.67,0,0,1,.77,2.23,1.09,1.09,0,0,1-.08.15c-.41,1-.83,1.91-1.27,2.85-.17.35-.22.52.25.7,4.48,1.72,9,3.48,13.44,5.22a12.74,12.74,0,0,0,3.28.83c3,.32,5.18-.89,6.13-4.56a4.54,4.54,0,0,0-1.32-4.63ZM62.5,78.09c.29.28.55.49.77.74,2.3,2.56,4.58,5.13,6.88,7.68A3.16,3.16,0,0,1,71,88.75v12.46c0,1-.12,1.82-1.21,2.26L82.58,110a.81.81,0,0,0,0-.22,22.89,22.89,0,0,1,2.53-14.61,1.93,1.93,0,0,0,.22-1V89a3.46,3.46,0,0,1,1.1-2.67c2-2,4-4.08,6-6.07.83-.82,1.45-1.93,2.85-2.27a21.48,21.48,0,0,1-4.48-2.28,1.76,1.76,0,0,1-.4,1.16c-1.3,1.46-2.58,2.94-3.88,4.39a2.61,2.61,0,0,1-4.68-1.8v-7a2.86,2.86,0,0,1,.35-1.74,20.46,20.46,0,0,1-6.19.55c-.25,0-.26.13-.25.34.13,2.64,0,5.28,0,7.92a2.63,2.63,0,0,1-1.7,2.67,2.66,2.66,0,0,1-3-1l-3.56-4a2.27,2.27,0,0,1-.7-1.39A19.51,19.51,0,0,1,62.5,78.09ZM88.81,74a18.34,18.34,0,0,1-2.65-3.18c-.26-.41-.45-1-.81-1.16s-.88.28-1.33.45c0,0-.14,0-.11.1a1.85,1.85,0,0,1,1.16,2.1v5.54C86.4,76.58,87.32,75,88.81,74Zm-16.3,3.94V72.38a2.25,2.25,0,0,1,.39-1.57l-.81-.25c-.23-.06-.46-.18-.64.12a19.29,19.29,0,0,1-2.7,3.41c1.55,1,2.39,2.6,3.76,3.83Z"/><path class="cls-4" d="M135.86,102.37a3.82,3.82,0,0,1-3.81,3.85h0a3.88,3.88,0,0,1-.39-7.75,2.54,2.54,0,0,1,.39,0,3.82,3.82,0,0,1,3.85,3.79v0Zm-3.86-.63c-.36.07-.59.25-.58.62a.56.56,0,0,0,.53.57H132a.56.56,0,0,0,.57-.55h0v-.06A.61.61,0,0,0,132,101.74Z"/><path class="cls-4" d="M94.4,113.09a3.82,3.82,0,0,1,7.64-.27v.38a3.82,3.82,0,1,1-7.64.26A2.29,2.29,0,0,1,94.4,113.09Zm3.77-.49a.53.53,0,0,0-.51.55h0a.52.52,0,0,0,.52.52h0a.51.51,0,0,0,.52-.5h0v-.07a.53.53,0,0,0-.53-.53h0Z"/><path class="cls-4" d="M110.13,64.88a1.61,1.61,0,0,1,1.7,2.16,10,10,0,0,1-6.43,5.53,1.55,1.55,0,0,1-1.85-1.13,1.57,1.57,0,0,1,1-2h0a7.55,7.55,0,0,0,3-1.94,7.63,7.63,0,0,0,1.19-1.68A1.54,1.54,0,0,1,110.13,64.88Z"/><path class="cls-4" d="M117.4,116.09a2.8,2.8,0,1,1,0,5.6h0a2.8,2.8,0,0,1,0-5.6Z"/><path class="cls-4" d="M91.88,124.88a1.67,1.67,0,0,1-1.74-1.6h0a1.72,1.72,0,0,1,.13-.71,9.18,9.18,0,0,1,.48-1,1.63,1.63,0,0,1,2-.9,1.57,1.57,0,0,1,1,1.9,4.94,4.94,0,0,1-.75,1.69A1.51,1.51,0,0,1,91.88,124.88Z"/><path class="cls-4" d="M64,108a4.18,4.18,0,0,1-1,2,1.59,1.59,0,0,1-2,.19,1.61,1.61,0,0,1-.73-1.78A5.66,5.66,0,0,1,61,106.9a1.59,1.59,0,0,1,1.76-.61A1.65,1.65,0,0,1,64,108Z"/><path class="cls-4" d="M49,111.69a1.64,1.64,0,0,1-1.68-1.6h0a1.55,1.55,0,0,1,.15-.73,9,9,0,0,1,.45-1,1.62,1.62,0,0,1,1.9-.85A1.53,1.53,0,0,1,51,109.27a3.93,3.93,0,0,1-.83,1.86A1.44,1.44,0,0,1,49,111.69Z"/><path class="cls-4" d="M73,119.41A1.8,1.8,0,0,1,73,123a1.65,1.65,0,0,1-1.72-1.56h0a.74.74,0,0,1,0-.21,1.67,1.67,0,0,1,1.53-1.8H73Z"/><path class="cls-4" d="M75.71,96.73v4.59a1.63,1.63,0,0,1-3.26,0V92a1.64,1.64,0,0,1,1.47-1.78h.18a1.63,1.63,0,0,1,1.62,1.66h0v.2C75.72,93.62,75.71,95.18,75.71,96.73Z"/></g></g></svg>